SplineFontDB: 3.2
FontName: SieleItalic
FullName: Siele Italic
FamilyName: Siele
Weight: Regular
Copyright: Copyright (c) 2020, g,,,
UComments: "2020-4-8: Created with FontForge (http://fontforge.org)+AAoACgAA-Created for want of an open source 21st century Garamond.+AAoA-Design influences from various open source and historical typefaces.+AAoACgAA-The name Degarde comes from the French +IBwA-de garde+IB0A, apparently meaning +IBwA-on guard+IB0A or +IBwA-on call+IB0A."
FontLog: "2021-11-08+AAoA-Added Capital letter A."
Version: 001.000
ItalicAngle: -11.5
UnderlinePosition: -100
UnderlineWidth: 45
Ascent: 720
Descent: 280
InvalidEm: 0
LayerCount: 3
Layer: 0 0 "Back" 1
Layer: 1 0 "Fore" 0
Layer: 2 0 "Rough" 1
XUID: [1021 700 1000704272 7087436]
StyleMap: 0x0000
FSType: 0
OS2Version: 0
OS2_WeightWidthSlopeOnly: 0
OS2_UseTypoMetrics: 1
CreationTime: 1586314676
ModificationTime: 1636340491
PfmFamily: 17
TTFWeight: 400
TTFWidth: 5
LineGap: 90
VLineGap: 0
OS2TypoAscent: 0
OS2TypoAOffset: 1
OS2TypoDescent: 0
OS2TypoDOffset: 1
OS2TypoLinegap: 90
OS2WinAscent: 0
OS2WinAOffset: 1
OS2WinDescent: 0
OS2WinDOffset: 1
HheadAscent: 0
HheadAOffset: 1
HheadDescent: 0
HheadDOffset: 1
OS2Vendor: 'PfEd'
Lookup: 4 0 1 "'liga' Standard Ligatures in Latin lookup 2" { "'liga' Standard Ligatures in Latin lookup 2-1"  } ['liga' ('DFLT' <'dflt' > 'latn' <'dflt' > ) ]
Lookup: 4 0 0 "'dlig' Discretionary Ligatures lookup 12" { "'dlig' Discretionary Ligatures lookup 12-1"  } ['dlig' ('DFLT' <'dflt' > 'grek' <'dflt' > 'latn' <'dflt' > ) ]
Lookup: 1 0 0 "'smcp' Lowercase to Small Capitals in Latin lookup 8" { "'smcp' Lowercase to Small Capitals in Latin lookup 8-1"  } ['smcp' ('DFLT' <'dflt' > 'latn' <'dflt' > ) ]
Lookup: 1 0 0 "'c2sc' Capitals to Small Capitals in Latin lookup 9" { "'c2sc' Capitals to Small Capitals in Latin lookup 9-1"  } ['c2sc' ('DFLT' <'dflt' > 'latn' <'dflt' > ) ]

StartChar: i
Encoding: 105 105 0
Width: 265
Flags: HMW
LayerCount: 3
Back
SplineSet
158 308 m 2
 161 324 160 335 152 335 c 3
 138 335 107 310 68 261 c 1
 50 279 l 1
 110 370 167 413 205 413 c 3
 237 413 240 380 226 313 c 2
 185 110 l 2
 179 82 180 69 190 69 c 3
 207 69 238 90 280 142 c 1
 298 125 l 1
 235 32 181 -13 143 -13 c 3
 111 -13 99 18 116 100 c 2
 158 308 l 2
793 400 m 1
 861 400 l 1
 783 0 l 1
 715 0 l 1
 793 400 l 1
716 400 m 1
 784 400 l 1
 713 0 l 1
 645 0 l 1
 716 400 l 1
870 400 m 1
 938 400 l 1
 853 0 l 1
 785 0 l 1
 870 400 l 1
142 308 m 2
 145 324 144 335 136 335 c 3
 122 335 92 310 52 260 c 1
 34 278 l 1
 95 370 152 413 190 413 c 3
 222 413 224 380 211 313 c 2
 170 110 l 2
 165 82 165 69 175 69 c 3
 192 69 223 90 265 142 c 1
 283 125 l 1
 220 32 165 -13 127 -13 c 3
 95 -13 85 20 100 100 c 2
 142 308 l 2
158 588 m 0
 162 611 184 630 207 630 c 0
 230 630 246 611 242 588 c 0
 238 565 216 546 193 546 c 0
 170 546 154 565 158 588 c 0
38 588 m 0
 38 611 57 630 80 630 c 0
 103 630 122 611 122 588 c 0
 122 565 103 546 80 546 c 0
 57 546 38 565 38 588 c 0
369 361 m 1
 369 369 l 1
 480 415 l 1
 490 415 l 1
 490 31 l 1
 562 31 l 1
 562 0 l 1
 352 0 l 1
 352 31 l 1
 420 31 l 1
 420 319 l 1
 369 361 l 1
415 588 m 0
 415 613 435 633 460 633 c 0
 485 633 505 613 505 588 c 0
 505 563 485 543 460 543 c 0
 435 543 415 563 415 588 c 0
EndSplineSet
Fore
SplineSet
173 581 m 0
 173 607 196 630 222 630 c 0
 242 630 257 616 257 595 c 0
 257 569 234 546 208 546 c 0
 188 546 173 560 173 581 c 0
158 308 m 2
 161 324 160 335 151 335 c 3
 137 335 104 310 65 261 c 1
 47 279 l 1
 107 370 164 413 202 413 c 3
 235 413 240 382 226 313 c 2
 185 110 l 2
 179 82 180 69 190 69 c 3
 207 69 238 90 280 142 c 1
 298 125 l 1
 235 32 181 -13 143 -13 c 3
 111 -13 99 18 116 100 c 2
 158 308 l 2
EndSplineSet
Layer: 2
SplineSet
488 581 m 0
 488 607 511 630 537 630 c 0
 557 630 572 616 572 595 c 0
 572 569 549 546 523 546 c 0
 503 546 488 560 488 581 c 0
474 308 m 2
 477 324 476 335 468 335 c 3
 454 335 423 310 384 261 c 1
 366 279 l 1
 426 370 483 413 521 413 c 3
 553 413 556 380 542 313 c 2
 500 110 l 2
 494 82 495 69 505 69 c 3
 522 69 553 90 595 142 c 1
 613 125 l 1
 550 32 496 -13 458 -13 c 3
 426 -13 414 18 431 100 c 2
 474 308 l 2
703 400 m 1
 771 400 l 1
 693 0 l 1
 625 0 l 1
 703 400 l 1
780 400 m 1
 848 400 l 1
 763 0 l 1
 695 0 l 1
 780 400 l 1
158 580 m 0
 158 608 183 631 208 631 c 0
 227 631 242 616 242 596 c 0
 242 568 217 545 192 545 c 0
 173 545 158 560 158 580 c 0
140 308 m 2
 143 325 142 335 134 335 c 3
 120 335 90 310 50 260 c 1
 32 277 l 1
 95 369 150 413 188 413 c 3
 220 413 222.888730385 380.021398003 210 313 c 2
 170 105 l 2
 164 75 167 64 177 64 c 3
 190 64 225 85 265 140 c 1
 283 123 l 1
 217 30 165 -13 127 -13 c 3
 95 -13 84.6291012839 20.0713266762 100 100 c 2
 140 308 l 2
EndSplineSet
Substitution2: "'ital' Italics in Latin lookup 2-1" i.ital
Substitution2: "'smcp' Lowercase to Small Capitals in Latin lookup 8-1" i.smcp
EndChar

StartChar: n
Encoding: 110 110 1
Width: 485
Flags: HMW
LayerCount: 3
Back
SplineSet
373 308 m 2
 376 324 375 335 367 335 c 3
 353 335 322 310 283 261 c 1
 265 279 l 1
 325 370 382 413 420 413 c 3
 452 413 455 380 441 313 c 2
 400 110 l 2
 394 82 395 69 405 69 c 3
 422 69 453 90 495 142 c 1
 513 125 l 1
 450 32 396 -13 358 -13 c 3
 326 -13 314 18 331 100 c 2
 373 308 l 2
153 308 m 2
 156 324 155 335 147 335 c 3
 133 335 102 310 63 261 c 1
 45 279 l 1
 105 370 162 413 200 413 c 3
 232 413 235 380 221 313 c 2
 180 110 l 2
 174 82 175 69 185 69 c 3
 202 69 233 90 275 142 c 1
 293 125 l 1
 230 32 176 -13 138 -13 c 3
 106 -13 94 18 111 100 c 2
 153 308 l 2
257 501 m 1
 258 500 l 1
 257 499 l 1
 256 500 l 1
 257 501 l 1
-500 357 m 1
 -500 365 l 1
 -400 415 l 1
 -390 415 l 1
 -381 339 l 1
 -380 338 l 1
 -345 380 -285 412 -235 412 c 0
 -167 412 -115 370 -115 290 c 2
 -115 31 l 1
 -50 31 l 1
 -50 0 l 1
 -238 0 l 1
 -238 31 l 1
 -185 31 l 1
 -185 270 l 2
 -185 325 -222 360 -272 360 c 0
 -308 360 -350 340 -380 305 c 1
 -380 31 l 1
 -325 31 l 1
 -325 0 l 1
 -510 0 l 1
 -510 31 l 1
 -450 31 l 1
 -450 320 l 1
 -500 357 l 1
EndSplineSet
Fore
SplineSet
185 125 m 2
 160 0 l 2
 95 0 l 2
 156 304 l 2
 160 322 158 334 150 334 c 3
 136 334 106 310 68 264 c 1
 50 282 l 1
 109 371 165 413 203 413 c 3
 236 413 241 380 220 295 c 2
 209 251 l 1
 211 250 l 1
 275 350 350 413 405 413 c 3
 445 413 458 375 442 295 c 2
 404 105 l 2
 399 80 401 69 410 69 c 3
 435 69 465 100 499 143 c 1
 517 125 l 1
 470 50 410 -13 365 -13 c 3
 325 -13 323 35 336 100 c 10
 372 280 l 2
 380 320 377 340 362 340 c 3
 320 340 208 240 185 125 c 2
EndSplineSet
Layer: 2
SplineSet
90 0 m 2
 151 304 l 2
 155 322 153 334 145 334 c 3
 131 334 102 310 64 264 c 1
 46 282 l 1
 105 371 162 413 200 413 c 3
 234 413 236 370 212 285 c 1
 214 284 l 1
 194 185 l 1
 156 0 l 2
 90 0 l 2
EndSplineSet
Substitution2: "'ital' Italics in Latin lookup 2-1" n.ital
Substitution2: "'smcp' Lowercase to Small Capitals in Latin lookup 8-1" n.smcp
EndChar

StartChar: o
Encoding: 111 111 2
Width: 389
Flags: HMW
LayerCount: 3
Back
SplineSet
245 501 m 1
 246 500 l 1
 245 499 l 1
 244 500 l 1
 245 501 l 1
33 200 m 0
 33 318 127 412 245 412 c 0
 363 412 457 318 457 200 c 0
 457 82 363 -12 245 -12 c 0
 127 -12 33 82 33 200 c 0
115 210 m 0
 115 110 173 23 253 23 c 0
 327 23 375 92 375 190 c 0
 375 290 317 378 238 378 c 0
 163 378 115 308 115 210 c 0
EndSplineSet
Fore
SplineSet
62 140 m 0
 62 275 162 413 285 413 c 0
 356 413 408 350 408 260 c 0
 408 125 308 -13 185 -13 c 0
 114 -13 62 50 62 140 c 0
137 130 m 3
 137 60 162 24 200 24 c 3
 270 24 333 155 333 270 c 3
 333 340 308 376 270 376 c 3
 200 376 137 245 137 130 c 3
EndSplineSet
Layer: 2
SplineSet
62 140 m 0
 62 275 162 413 290 413 c 0
 356 413 408 350 408 260 c 0
 408 125 308 -13 180 -13 c 0
 114 -13 62 50 62 140 c 0
137 135 m 0
 135 65 164 25 202 24 c 0
 266 22 328 135 333 265 c 0
 335 335 306 375 268 376 c 0
 204 378 142 265 137 135 c 0
-358 130 m 0
 -358 275 -256 413 -130 413 c 0
 -64 413 -12 350 -12 270 c 0
 -12 125 -114 -13 -240 -13 c 0
 -306 -13 -358 50 -358 130 c 0
-278 150 m 0
 -278 70 -252 25 -212 25 c 0
 -152 25 -92 130 -92 250 c 0
 -92 330 -118 375 -158 375 c 0
 -218 375 -278 270 -278 150 c 0
-712 130 m 0
 -712 275 -620 413 -505 413 c 0
 -445 413 -398 350 -398 270 c 0
 -398 125 -490 -13 -605 -13 c 0
 -665 -13 -712 50 -712 130 c 0
-638 150 m 0
 -638 70 -615 25 -580 25 c 0
 -525 25 -472 135 -472 250 c 0
 -472 330 -495 375 -530 375 c 0
 -585 375 -638 265 -638 150 c 0
EndSplineSet
Substitution2: "'ital' Italics in Latin lookup 2-1" o.ital
Substitution2: "'smcp' Lowercase to Small Capitals in Latin lookup 8-1" o.smcp
EndChar

StartChar: t
Encoding: 116 116 3
Width: 290
Flags: HMW
LayerCount: 3
Back
SplineSet
94 400 m 1
 335 400 l 1
 335 357 l 1
 94 357 l 1
 94 400 l 1
250 500 m 1
 175 110 l 2
 169 82 170 69 180 69 c 3
 197 69 228 90 270 142 c 1
 288 125 l 1
 225 32 171 -13 133 -13 c 3
 101 -13 90 18 106 100 c 2
 164 400 l 1
 200 500 l 1
 250 500 l 1
-123 500 m 1
 -78 500 l 1
 -105 400 l 1
 0 400 l 1
 0 359 l 1
 -117 359 l 1
 -193 90 l 2
 -194 86 -195 82 -195 78 c 0
 -195 67 -190 60 -180 60 c 0
 -160 60 -120 85 -76 139 c 1
 -60 120 l 1
 -130 25 -190 -13 -230 -13 c 0
 -253 -13 -266 5 -266 35 c 0
 -266 46 -263 62 -258 80 c 2
 -181 359 l 1
 -245 359 l 1
 -245 400 l 1
 -167 400 l 1
 -123 500 l 1
EndSplineSet
Fore
SplineSet
218 357 m 1
 172 115 l 2
 165 80 170 70 180 70 c 0
 200 70 239 95 286 159 c 1
 305 142 l 1
 237 42 176 -13 137 -13 c 0
 101 -13 87 20 102 98 c 2
 152 357 l 1
 80 357 l 1
 80 400 l 1
 160 400 l 1
 202 505 l 1
 246 505 l 1
 226 400 l 1
 342 400 l 1
 342 357 l 1
 218 357 l 1
EndSplineSet
Layer: 2
SplineSet
80 400 m 1
 340 400 l 1
 340 357 l 1
 80 357 l 1
 80 400 l 1
245 502 m 1
 172 115 l 2
 165 80 170 70 180 70 c 3
 200 70 239 95 286 159 c 1
 305 142 l 1
 237 42 176 -13 137 -13 c 3
 101 -13 87.0191608155 19.9963201083 102 98 c 2
 160 400 l 1
 200 502 l 1
 245 502 l 1
EndSplineSet
Substitution2: "'ital' Italics in Latin lookup 2-1" t.ital
Substitution2: "'smcp' Lowercase to Small Capitals in Latin lookup 8-1" t.smcp
EndChar

StartChar: g
Encoding: 103 103 4
Width: 210
Flags: HMW
LayerCount: 3
Back
SplineSet
106 -120 m 0
 106 -185 144 -237 231 -237 c 0
 321 -237 368 -184 368 -115 c 0
 368 -67 338 -40 293 -40 c 2
 156 -40 l 2
 131 -40 106 -70 106 -120 c 0
133 276 m 0
 133 204 176 157 229 157 c 0
 281 157 319 201 319 263 c 0
 319 335 276 382 223 382 c 0
 171 382 133 338 133 276 c 0
62 269 m 0
 62 350 135 412 226 412 c 0
 261 412 293 403 317 389 c 1
 442 389 l 1
 442 349 l 1
 361 349 l 1
 361 345 l 1
 378 325 390 300 390 270 c 0
 390 189 317 128 226 128 c 2
 161 127 l 1
 129 127 107 106 107 77 c 0
 107 48 129 27 161 27 c 1
 306 27 l 2
 381 27 434 -22 434 -93 c 0
 434 -182 341 -270 226 -270 c 0
 116 -270 40 -206 40 -135 c 0
 40 -90 70 -56 118 -35 c 1
 118 -32 l 1
 74 -15 51 15 51 55 c 0
 51 96 87 132 140 146 c 1
 140 149 l 1
 95 170 62 216 62 269 c 0
EndSplineSet
Fore
SplineSet
53 45 m 0
 53 74 76 97 105 97 c 0
 134 97 157 74 157 45 c 0
 157 16 134 -7 105 -7 c 0
 76 -7 53 16 53 45 c 0
EndSplineSet
Layer: 2
SplineSet
62 269 m 0
 62 350 135 412 226 412 c 0
 258 412 290 404 316 389 c 1
 441 389 l 1
 441 349 l 1
 361 349 l 1
 361 345 l 1
 378 325 390 300 390 270 c 0
 390 189 317 128 226 128 c 2
 161 127 l 2
 129 127 108 105 108 75 c 0
 108 45 129 23 161 23 c 2
 306 23 l 2
 381 23 434 -28 434 -98 c 0
 434 -180 345 -270 226 -270 c 0
 116 -270 40 -206 40 -135 c 0
 40 -98 70 -59 118 -39 c 1
 118 -36 l 1
 74 -19 50 11 50 52 c 0
 50 93 85 131 140 146 c 1
 140 149 l 1
 95 170 62 216 62 269 c 0
133 276 m 0
 133 204 176 157 229 157 c 0
 281 157 319 201 319 263 c 0
 319 335 276 382 223 382 c 0
 171 382 133 338 133 276 c 0
106 -120 m 0
 106 -185 145 -237 233 -237 c 0
 321 -237 368 -182 368 -118 c 0
 368 -73 338 -44 293 -44 c 2
 156 -44 l 2
 131 -44 106 -73 106 -120 c 0
EndSplineSet
Substitution2: "'ital' Italics in Latin lookup 2-1" g.ital
Substitution2: "'smcp' Lowercase to Small Capitals in Latin lookup 8-1" g.smcp
EndChar

StartChar: h
Encoding: 104 104 5
Width: 485
Flags: HMW
LayerCount: 3
Back
SplineSet
101 100 m 2
 193 640 l 1
 136 664 l 1
 136 675 l 1
 263 710 l 1
 271 710 l 1
 170 115 l 2
 165 85 164 67 177 67 c 3
 195 67 228 92 261 140 c 9
 281 127 l 1
 223 35 171 -12 131 -12 c 3
 97 -12 87 20 101 100 c 2
170 125 m 2
 145 0 l 2
 80 0 l 2
 141 304 l 2
 145 322 143 334 135 334 c 3
 121 334 91 310 53 264 c 1
 35 282 l 1
 94 371 150 413 188 413 c 3
 221 413 226 380 205 295 c 2
 194 251 l 1
 196 250 l 1
 260 350 335 413 390 413 c 3
 430 413 443 375 427 295 c 2
 389 105 l 2
 384 80 386 69 395 69 c 3
 420 69 450 100 484 143 c 1
 502 125 l 1
 455 50 395 -13 350 -13 c 3
 310 -13 308 35 321 100 c 10
 357 280 l 2
 365 320 362 340 347 340 c 3
 305 340 193 240 170 125 c 2
EndSplineSet
Fore
SplineSet
200 300 m 1
 190 251 l 1
 192 250 l 1
 257 350 331 413 388 413 c 3
 428 413 442 380 428 302 c 2
 394 108 l 2
 389 81 391 67 400 67 c 3
 423 67 455 98 491 145 c 1
 509 127 l 1
 463 52 403 -13 356 -13 c 3
 315 -13 315 35 326 100 c 10
 358 282 l 2
 366 325 358 341 343 341 c 3
 299 341 193 243 170 128 c 1
 150 0 l 1
 85 0 l 1
 189 635 l 1
 129 660 l 1
 129 671 l 1
 260 710 l 1
 268 710 l 1
 200 300 l 1
EndSplineSet
Layer: 2
SplineSet
200 297 m 1
 190 251 l 1
 192 250 l 1
 256 350 330 413 385 413 c 3
 425 413 438 375 422 295 c 2
 384 105 l 2
 379 80 381 69 390 69 c 3
 415 69 445 100 479 143 c 1
 497 125 l 1
 450 50 390 -13 345 -13 c 3
 305 -13 303 35 316 100 c 10
 352 280 l 2
 360 320 357 340 342 340 c 3
 300 340 193 243 170 128 c 1
 150 0 l 1
 85 0 l 1
 193 640 l 1
 137 662 l 1
 137 673 l 1
 263 710 l 1
 271 710 l 1
 200 297 l 1
EndSplineSet
Substitution2: "'ital' Italics in Latin lookup 2-1" h.ital
Substitution2: "'smcp' Lowercase to Small Capitals in Latin lookup 8-1" h.smcp
EndChar

StartChar: a
Encoding: 97 97 6
Width: 445
Flags: HMW
LayerCount: 3
Back
SplineSet
623 400 m 1
 691 400 l 1
 613 0 l 1
 545 0 l 1
 623 400 l 1
307 340 m 1
 295 350 275 355 255 355 c 0
 165 355 102 210 102 100 c 0
 102 62 115 44 135 44 c 0
 185 44 268 170 292 275 c 2
 307 340 l 1
392 420 m 1
 392 415 l 1
 356 245 l 2
 338 160 328 115 328 84 c 0
 328 72 332 66 338 66 c 0
 352 66 383 85 428 143 c 1
 445 125 l 1
 380 35 326 -13 285 -13 c 0
 266 -13 254 5 254 35 c 0
 254 57 260 95 272 139 c 1
 270 140 l 1
 205 27 152 -13 97 -13 c 0
 56 -13 30 25 30 78 c 0
 30 225 165 410 298 410 c 0
 315 410 331 405 343 398 c 1
 345 398 l 1
 372 420 l 1
 392 420 l 1
546 400 m 1
 614 400 l 1
 543 0 l 1
 475 0 l 1
 546 400 l 1
700 400 m 1
 768 400 l 1
 683 0 l 1
 615 0 l 1
 700 400 l 1
197 501 m 1
 198 500 l 1
 197 499 l 1
 196 500 l 1
 197 501 l 1
EndSplineSet
Fore
SplineSet
338 340 m 1
 325 350 305 355 285 355 c 0
 195 355 132 210 132 100 c 0
 132 62 145 44 165 44 c 0
 215 44 299 170 323 275 c 2
 338 340 l 1
422 420 m 1
 422 415 l 1
 386 245 l 2
 368 160 358 115 358 84 c 0
 358 72 362 66 368 66 c 0
 382 66 413 85 458 143 c 1
 475 125 l 1
 410 35 356 -13 315 -13 c 0
 296 -13 284 5 284 35 c 0
 284 57 290 95 302 139 c 1
 300 140 l 1
 235 27 182 -13 127 -13 c 0
 86 -13 60 25 60 78 c 0
 60 225 195 410 328 410 c 0
 345 410 361 405 373 398 c 1
 375 398 l 1
 402 420 l 1
 422 420 l 1
EndSplineSet
Layer: 2
SplineSet
297 340 m 1
 285 350 265 355 245 355 c 0
 155 355 92 207 92 97 c 0
 92 57 107 42 127 42 c 0
 177 42 258 170 282 275 c 2
 297 340 l 1
382 420 m 1
 382 415 l 1
 346 245 l 2
 328 160 318 115 318 84 c 0
 318 72 322 66 328 66 c 0
 342 66 373 85 418 143 c 1
 435 125 l 1
 370 35 316 -13 275 -13 c 0
 256 -13 244 5 244 35 c 0
 244 57 250 95 261 139 c 1
 259 140 l 1
 195 30 140 -13 85 -13 c 0
 45 -13 20 22 20 78 c 0
 20 225 155 410 288 410 c 0
 305 410 321 405 333 398 c 1
 335 398 l 1
 362 420 l 1
 382 420 l 1
-173 340 m 1
 -185 350 -205 355 -225 355 c 0
 -320 355 -380 210 -380 100 c 0
 -380 60 -365 45 -345 45 c 0
 -293 45 -216 165 -190 270 c 2
 -173 340 l 1
-88 420 m 1
 -88 415 l 1
 -124 245 l 2
 -142 160 -152 115 -152 84 c 0
 -152 72 -148 66 -142 66 c 0
 -128 66 -100 85 -52 143 c 1
 -35 125 l 1
 -105 35 -154 -13 -195 -13 c 0
 -214 -13 -225 5 -225 35 c 0
 -225 57 -221 90 -211 136 c 1
 -213 137 l 1
 -275 25 -330 -13 -385 -13 c 0
 -425 -13 -450 22 -450 80 c 0
 -450 230 -315 410 -180 410 c 0
 -165 410 -149 405 -137 398 c 1
 -135 398 l 1
 -108 420 l 1
 -88 420 l 1
757 340 m 1
 745 350 725 355 705 355 c 0
 610 355 550 210 550 105 c 0
 550 65 565 47 585 47 c 0
 637 47 714 165 740 270 c 2
 757 340 l 1
842 420 m 1
 842 415 l 1
 806 245 l 2
 788 160 778 115 778 84 c 0
 778 72 782 66 788 66 c 0
 802 66 830 85 878 143 c 1
 895 125 l 1
 825 35 776 -13 735 -13 c 0
 716 -13 705 5 705 35 c 0
 705 57 708 88 718 135 c 1
 715 137 l 1
 650 30 600 -13 545 -13 c 0
 505 -13 480 20 480 75 c 0
 480 225 615 410 750 410 c 0
 765 410 781 405 793 398 c 1
 795 398 l 1
 822 420 l 1
 842 420 l 1
-610 400 m 1
 -540 400 l 1
 -540 0 l 1
 -610 0 l 1
 -610 400 l 1
1215 340 m 1
 1205 350 1192 355 1175 355 c 0
 1093 355 1005 190 1005 90 c 0
 1005 65 1015 52 1030 52 c 0
 1094 52 1176 160 1200 270 c 2
 1215 340 l 1
1302 420 m 1
 1302 415 l 1
 1266 245 l 2
 1248 160 1238 115 1238 84 c 0
 1238 72 1242 66 1248 66 c 0
 1262 66 1290 85 1338 143 c 1
 1355 125 l 1
 1285 35 1236 -13 1195 -13 c 0
 1176 -13 1165 5 1165 35 c 0
 1165 57 1170 95 1180 142 c 1
 1177 144 l 1
 1100 25 1040 -13 1000 -13 c 0
 965 -13 940 17 940 60 c 0
 940 215 1100 410 1210 410 c 0
 1225 410 1241 405 1253 398 c 1
 1255 398 l 1
 1282 420 l 1
 1302 420 l 1
EndSplineSet
Substitution2: "'ital' Italics in Latin lookup 2-1" a.ital
Substitution2: "'smcp' Lowercase to Small Capitals in Latin lookup 8-1" a.smcp
EndChar

StartChar: j
Encoding: 106 106 7
Width: 220
Flags: HMW
LayerCount: 3
Back
SplineSet
168 581 m 0
 168 607 191 630 217 630 c 0
 237 630 252 616 252 595 c 0
 252 569 229 546 203 546 c 0
 183 546 168 560 168 581 c 0
90 -35 m 2
 154 310 l 2
 157 328 155 336 147 336 c 3
 132 336 100 317 57 270 c 1
 40 289 l 1
 100 368 159 413 200 413 c 3
 228 413 237 390 225 330 c 2
 155 -35 l 2
 134 -145 100 -225 -25 -270 c 1
 -35 -250 l 1
 55 -195 71 -135 90 -35 c 2
EndSplineSet
Fore
SplineSet
168 581 m 4
 168 607 191 630 217 630 c 4
 237 630 252 616 252 595 c 4
 252 569 229 546 203 546 c 4
 183 546 168 560 168 581 c 4
90 -35 m 6
 154 310 l 6
 157 328 156 336 150 336 c 7
 135 336 100 312 57 265 c 5
 40 284 l 5
 100 363 161 413 203 413 c 7
 230 413 236 388 225 330 c 6
 155 -35 l 6
 134 -145 100 -225 -25 -270 c 5
 -35 -250 l 5
 55 -195 71 -135 90 -35 c 6
EndSplineSet
Layer: 2
SplineSet
173 581 m 0
 173 607 196 630 222 630 c 0
 242 630 257 616 257 595 c 0
 257 569 234 546 208 546 c 0
 188 546 173 560 173 581 c 0
158 308 m 2
 161 324 160 335 151 335 c 3
 137 335 104 310 65 261 c 1
 47 279 l 1
 107 370 164 413 202 413 c 3
 235 413 240 382 226 313 c 2
 185 110 l 2
 179 82 180 69 190 69 c 3
 207 69 238 90 280 142 c 1
 298 125 l 1
 235 32 181 -13 143 -13 c 3
 111 -13 99 18 116 100 c 2
 158 308 l 2
EndSplineSet
Substitution2: "'ss07' Style Set 7 lookup 19-1" j.alt
Substitution2: "'ital' Italics in Latin lookup 2-1" j.ital
Substitution2: "'smcp' Lowercase to Small Capitals in Latin lookup 8-1" j.smcp
Substitution2: "'salt' Stylistic Alternatives in Latin lookup 2-1" j.alt
EndChar

StartChar: periodcentered
Encoding: 183 183 8
Width: 200
Flags: HMW
LayerCount: 3
Back
SplineSet
48 220 m 0
 48 249 71 272 100 272 c 0
 129 272 152 249 152 220 c 0
 152 191 129 168 100 168 c 0
 71 168 48 191 48 220 c 0
EndSplineSet
Fore
SplineSet
48 220 m 0
 48 249 71 272 100 272 c 0
 129 272 152 249 152 220 c 0
 152 191 129 168 100 168 c 0
 71 168 48 191 48 220 c 0
EndSplineSet
EndChar

StartChar: period
Encoding: 46 46 9
Width: 180
Flags: HMW
LayerCount: 3
Back
SplineSet
53 45 m 0
 53 74 76 97 105 97 c 0
 134 97 157 74 157 45 c 0
 157 16 134 -7 105 -7 c 0
 76 -7 53 16 53 45 c 0
EndSplineSet
Fore
SplineSet
50 38 m 0
 50 70 76 97 106 97 c 0
 130 97 150 80 150 52 c 0
 150 20 124 -7 94 -7 c 0
 70 -7 50 10 50 38 c 0
EndSplineSet
Layer: 2
SplineSet
55 38 m 0
 55 70 81 97 111 97 c 0
 135 97 155 80 155 52 c 0
 155 20 129 -7 99 -7 c 0
 75 -7 55 10 55 38 c 0
-65 45 m 0
 -61 74 -37 97 -8 97 c 0
 21 97 39 74 35 45 c 0
 31 16 7 -7 -22 -7 c 0
 -51 -7 -69 16 -65 45 c 0
EndSplineSet
Substitution2: "'ital' Italics in Latin lookup 2-1" period.ital
EndChar

StartChar: k
Encoding: 107 107 10
Width: 245
Flags: HMW
LayerCount: 3
Back
SplineSet
445 400 m 1
 445 369 l 1
 395 369 l 1
 245 240 l 1
 435 31 l 1
 475 31 l 1
 475 0 l 1
 300 0 l 1
 300 31 l 1
 345 31 l 1
 175 220 l 1
 329 359 l 1
 332 369 l 1
 280 369 l 1
 280 400 l 1
 445 400 l 1
46 665 m 1
 46 673 l 1
 155 710 l 1
 165 710 l 1
 165 31 l 1
 225 31 l 1
 225 0 l 1
 33 0 l 1
 33 31 l 1
 95 31 l 1
 95 625 l 1
 46 665 l 1
EndSplineSet
Fore
SplineSet
85 0 m 1
 191 630 l 1
 132 662 l 1
 132 673 l 1
 263 710 l 1
 271 710 l 1
 150 0 l 1
 85 0 l 1
EndSplineSet
Substitution2: "'ital' Italics in Latin lookup 2-1" k.ital
Substitution2: "'smcp' Lowercase to Small Capitals in Latin lookup 8-1" k.smcp
EndChar

StartChar: exclam
Encoding: 33 33 11
Width: 215
Flags: HMW
LayerCount: 3
Back
SplineSet
79 650 m 1
 161 650 l 1
 135 180 l 1
 105 180 l 1
 79 650 l 1
74 42 m 0
 74 67 95 88 120 88 c 0
 145 88 166 67 166 42 c 0
 166 17 145 -4 120 -4 c 0
 95 -4 74 17 74 42 c 0
EndSplineSet
Fore
SplineSet
66 37 m 0
 66 68 92 95 121 95 c 0
 145 95 164 78 164 51 c 0
 164 20 138 -7 109 -7 c 0
 85 -7 66 10 66 37 c 0
195 650 m 1
 275 650 l 1
 150 180 l 1
 119 180 l 1
 195 650 l 1
EndSplineSet
Substitution2: "'ital' Italics in Latin lookup 2-1" exclam.ital
EndChar

StartChar: quotedbl
Encoding: 34 34 12
Width: 210
Flags: HMW
LayerCount: 3
Back
SplineSet
52 650 m 1
 120 650 l 1
 100 440 l 1
 70 440 l 1
 52 650 l 1
172 650 m 1
 240 650 l 1
 220 440 l 1
 190 440 l 1
 172 650 l 1
EndSplineSet
Fore
SplineSet
53 45 m 0
 53 74 76 97 105 97 c 0
 134 97 157 74 157 45 c 0
 157 16 134 -7 105 -7 c 0
 76 -7 53 16 53 45 c 0
EndSplineSet
EndChar

StartChar: numbersign
Encoding: 35 35 13
Width: 210
Flags: HMW
LayerCount: 3
Back
SplineSet
145 149 m 1
 305 149 l 1
 335 311 l 1
 175 311 l 1
 145 149 l 1
40 311 m 1
 40 355 l 1
 143 355 l 1
 180 560 l 1
 220 560 l 1
 183 355 l 1
 343 355 l 1
 380 560 l 1
 420 560 l 1
 383 355 l 1
 465 355 l 1
 465 311 l 1
 375 311 l 1
 345 149 l 1
 440 149 l 1
 440 105 l 1
 337 105 l 1
 300 -100 l 1
 260 -100 l 1
 297 105 l 1
 137 105 l 1
 100 -100 l 1
 60 -100 l 1
 97 105 l 1
 15 105 l 1
 15 149 l 1
 105 149 l 1
 135 311 l 1
 40 311 l 1
EndSplineSet
Fore
SplineSet
53 45 m 0
 53 74 76 97 105 97 c 0
 134 97 157 74 157 45 c 0
 157 16 134 -7 105 -7 c 0
 76 -7 53 16 53 45 c 0
EndSplineSet
EndChar

StartChar: dollar
Encoding: 36 36 14
Width: 440
Flags: HMW
LayerCount: 3
Back
SplineSet
237 271 m 1
 237 32 l 1
 298 41 328 86 328 135 c 0
 328 192 295 229 237 271 c 1
197 399 m 1
 197 609 l 1
 147 602 115 568 115 523 c 0
 115 473 140 441 197 399 c 1
197 32 m 1
 197 294 l 1
 81 374 45 418 45 493 c 0
 45 564 105 632 197 643 c 1
 197 700 l 1
 237 700 l 1
 237 645 l 1
 288 643 335 628 367 605 c 1
 375 493 l 1
 346 493 l 1
 345 499 l 2
 335 560 299 602 237 610 c 1
 237 376 l 1
 365 288 405 244 405 167 c 0
 405 83 338 10 237 -3 c 1
 237 -60 l 1
 197 -60 l 1
 197 -5 l 1
 147 -4 94 10 56 37 c 1
 38 165 l 1
 67 165 l 1
 70 153 l 2
 88 80 129 38 197 32 c 1
EndSplineSet
Fore
SplineSet
287 270 m 1
 285 270 l 1
 243 32 l 1
 306 41 343 86 352 135 c 0
 362 192 336 228 287 270 c 1
266 400 m 1
 268 400 l 1
 304 609 l 1
 253 602 215 568 207 523 c 0
 198 473 218 442 266 400 c 1
203 32 m 1
 249 294 l 1
 147 374 119 418 132 493 c 0
 145 564 216 632 310 643 c 1
 320 700 l 1
 360 700 l 1
 351 645 l 1
 402 643 446 628 474 605 c 1
 462 493 l 1
 433 493 l 1
 433 499 l 2
 434 560 406 602 345 610 c 1
 303 376 l 1
 415 288 448 244 434 167 c 0
 419 83 339 10 236 -3 c 1
 226 -60 l 1
 186 -60 l 1
 196 -5 l 1
 146 -4 96 10 63 37 c 1
 67 165 l 1
 96 165 l 1
 97 153 l 2
 102 80 136 38 203 32 c 1
EndSplineSet
Substitution2: "'tnum' Tabular Numbers in Latin lookup 3-1" dollar.tnum
EndChar

StartChar: percent
Encoding: 37 37 15
Width: 780
Flags: HMW
LayerCount: 3
Back
SplineSet
567 645 m 1
 615 645 l 1
 213 -40 l 1
 165 -40 l 1
 567 645 l 1
445 150 m 0
 445 238 512 310 595 310 c 0
 678 310 745 238 745 150 c 0
 745 62 678 -10 595 -10 c 0
 512 -10 445 62 445 150 c 0
504 165 m 0
 504 78 548 24 603 24 c 0
 650 24 686 72 686 135 c 0
 686 222 642 276 587 276 c 0
 540 276 504 228 504 165 c 0
35 455 m 0
 35 543 102 615 185 615 c 0
 268 615 335 543 335 455 c 0
 335 367 268 295 185 295 c 0
 102 295 35 367 35 455 c 0
94 470 m 0
 94 383 138 329 193 329 c 0
 240 329 276 377 276 440 c 0
 276 527 232 581 177 581 c 0
 130 581 94 533 94 470 c 0
EndSplineSet
Fore
SplineSet
681 645 m 1
 729 645 l 1
 206 -40 l 1
 158 -40 l 1
 681 645 l 1
471 150 m 0
 487 238 567 310 650 310 c 0
 733 310 787 238 771 150 c 0
 755 62 676 -10 593 -10 c 0
 510 -10 455 62 471 150 c 0
533 165 m 0
 518 78 552 24 607 24 c 0
 654 24 699 72 710 135 c 0
 725 222 691 276 636 276 c 0
 589 276 544 228 533 165 c 0
115 455 m 0
 131 543 210 615 293 615 c 0
 376 615 431 543 415 455 c 0
 399 367 320 295 237 295 c 0
 154 295 99 367 115 455 c 0
177 470 m 0
 162 383 196 329 251 329 c 0
 298 329 343 377 354 440 c 0
 369 527 334 581 279 581 c 0
 232 581 188 533 177 470 c 0
EndSplineSet
EndChar

StartChar: ampersand
Encoding: 38 38 16
Width: 210
Flags: HMW
LayerCount: 3
Back
SplineSet
455 370 m 1
 640 370 l 1
 640 339 l 1
 580 339 l 1
 547 265 512 200 476 149 c 1
 535 90 582 44 645 44 c 0
 675 44 695 55 715 70 c 1
 725 45 l 1
 695 15 655 -15 610 -15 c 0
 539 -15 505 14 431 91 c 1
 429 91 l 1
 371 25 305 -14 220 -14 c 0
 110 -14 40 64 40 153 c 0
 40 231 88 288 177 341 c 1
 177 344 l 1
 130 390 95 431 95 487 c 0
 95 560 155 630 245 630 c 0
 320 630 375 580 375 510 c 0
 375 445 323 400 262 365 c 1
 262 362 l 1
 451 173 l 1
 453 173 l 1
 477 209 501 255 520 305 c 1
 524 339 l 1
 455 339 l 1
 455 370 l 1
243 382 m 1
 288 412 308 451 308 500 c 0
 308 555 280 597 235 597 c 0
 195 597 160 565 160 513 c 0
 160 467 196 429 243 382 c 1
407 113 m 1
 196 324 l 1
 138 285 110 240 110 185 c 0
 110 105 172 45 250 45 c 0
 317 45 365 67 407 113 c 1
EndSplineSet
Fore
SplineSet
53 45 m 0
 53 74 76 97 105 97 c 0
 134 97 157 74 157 45 c 0
 157 16 134 -7 105 -7 c 0
 76 -7 53 16 53 45 c 0
EndSplineSet
Layer: 2
SplineSet
174 346 m 1
 239 385 l 1
 479 145 l 1
 435 85 l 1
 174 346 l 1
EndSplineSet
Substitution2: "'ital' Italics in Latin lookup 2-1" ampersand.ital
EndChar

StartChar: quotesingle
Encoding: 39 39 17
Width: 210
Flags: HMW
LayerCount: 3
Back
SplineSet
52 650 m 1
 120 650 l 1
 100 440 l 1
 70 440 l 1
 52 650 l 1
EndSplineSet
Fore
SplineSet
53 45 m 0
 53 74 76 97 105 97 c 0
 134 97 157 74 157 45 c 0
 157 16 134 -7 105 -7 c 0
 76 -7 53 16 53 45 c 0
EndSplineSet
EndChar

StartChar: parenleft
Encoding: 40 40 18
Width: 210
Flags: HMW
LayerCount: 3
Back
SplineSet
145 240 m 0
 114 65 150 -85 237 -188 c 1
 214 -205 l 1
 104 -105 46 55 79 240 c 0
 112 425 225 585 371 685 c 1
 388 668 l 1
 265 565 176 415 145 240 c 0
EndSplineSet
Fore
SplineSet
53 45 m 0
 53 74 76 97 105 97 c 0
 134 97 157 74 157 45 c 0
 157 16 134 -7 105 -7 c 0
 76 -7 53 16 53 45 c 0
EndSplineSet
EndChar

StartChar: parenright
Encoding: 41 41 19
Width: 210
Flags: HMW
LayerCount: 3
Back
SplineSet
229 240 m 0
 260 415 225 565 138 668 c 1
 161 685 l 1
 271 585 328 425 295 240 c 0
 262 55 150 -105 4 -205 c 1
 -13 -188 l 1
 110 -85 198 65 229 240 c 0
EndSplineSet
Fore
SplineSet
53 45 m 0
 53 74 76 97 105 97 c 0
 134 97 157 74 157 45 c 0
 157 16 134 -7 105 -7 c 0
 76 -7 53 16 53 45 c 0
EndSplineSet
EndChar

StartChar: asterisk
Encoding: 42 42 20
Width: 390
Flags: HMW
LayerCount: 3
Back
SplineSet
228 482 m 1
 280 364 l 1
 235 344 l 1
 182 462 l 1
 86 375 l 1
 53 412 l 1
 149 499 l 1
 36 564 l 1
 62 607 l 1
 173 543 l 1
 200 670 l 1
 249 660 l 1
 222 532 l 1
 351 546 l 1
 357 496 l 1
 228 482 l 1
EndSplineSet
Fore
SplineSet
313 482 m 1
 344 364 l 1
 296 344 l 1
 263 462 l 1
 152 375 l 1
 126 412 l 1
 237 499 l 1
 135 564 l 1
 169 607 l 1
 269 543 l 1
 318 670 l 1
 365 660 l 1
 316 532 l 1
 447 546 l 1
 444 496 l 1
 313 482 l 1
EndSplineSet
EndChar

StartChar: plus
Encoding: 43 43 21
Width: 210
Flags: HMW
LayerCount: 3
Back
SplineSet
217 243 m 1
 217 430 l 1
 263 430 l 1
 263 243 l 1
 450 243 l 1
 450 197 l 1
 263 197 l 1
 263 5 l 1
 217 5 l 1
 217 197 l 1
 30 197 l 1
 30 243 l 1
 217 243 l 1
EndSplineSet
Fore
SplineSet
53 45 m 0
 53 74 76 97 105 97 c 0
 134 97 157 74 157 45 c 0
 157 16 134 -7 105 -7 c 0
 76 -7 53 16 53 45 c 0
EndSplineSet
EndChar

StartChar: comma
Encoding: 44 44 22
Width: 205
Flags: HMW
LayerCount: 3
Back
SplineSet
49 28 m 1
 67 105 l 1
 74 105 l 2
 125 105 175 70 175 3 c 0
 175 -62 128 -120 47 -150 c 1
 35 -126 l 1
 83 -107 110 -69 110 -33 c 0
 110 3 85 23 49 28 c 1
EndSplineSet
Fore
SplineSet
50 28 m 1
 75 105 l 1
 76 105 l 1
 125 102 172 68 172 8 c 0
 172 -65 113 -122 15 -150 c 1
 7 -125 l 1
 65 -104 100 -60 100 -20 c 0
 100 9 79 25 50 28 c 1
EndSplineSet
Layer: 2
SplineSet
54 28 m 1
 86 105 l 1
 93 105 l 2
 144 105 188 70 176 3 c 0
 165 -62 107 -120 21 -150 c 1
 13 -126 l 1
 64 -107 98 -69 104 -33 c 0
 110 3 89 23 54 28 c 1
EndSplineSet
Substitution2: "'ital' Italics in Latin lookup 2-1" comma.ital
EndChar

StartChar: hyphen
Encoding: 45 45 23
Width: 210
Flags: HMW
LayerCount: 3
Back
SplineSet
25 234 m 1
 220 234 l 1
 220 176 l 1
 25 176 l 1
 25 234 l 1
EndSplineSet
Fore
SplineSet
55 234 m 1
 250 234 l 1
 240 176 l 1
 45 176 l 1
 55 234 l 1
EndSplineSet
Layer: 2
SplineSet
60 214 m 1
 245 254 l 1
 235 196 l 1
 50 156 l 1
 60 214 l 1
EndSplineSet
EndChar

StartChar: slash
Encoding: 47 47 24
Width: 210
Flags: HMW
LayerCount: 3
Back
SplineSet
279 660 m 1
 325 660 l 1
 41 -100 l 1
 -5 -100 l 1
 279 660 l 1
EndSplineSet
Fore
SplineSet
53 45 m 0
 53 74 76 97 105 97 c 0
 134 97 157 74 157 45 c 0
 157 16 134 -7 105 -7 c 0
 76 -7 53 16 53 45 c 0
EndSplineSet
EndChar

StartChar: zero
Encoding: 48 48 25
Width: 210
Flags: HMW
LayerCount: 3
Back
SplineSet
33 215 m 0
 33 340 135 442 260 442 c 0
 385 442 487 340 487 215 c 0
 487 90 385 -12 260 -12 c 0
 135 -12 33 90 33 215 c 0
89 217 m 0
 89 119 164 39 251 39 c 0
 340 39 383 110 383 215 c 0
 383 320 340 391 250 391 c 0
 161 391 89 316 89 217 c 0
EndSplineSet
Fore
SplineSet
53 45 m 0
 53 74 76 97 105 97 c 0
 134 97 157 74 157 45 c 0
 157 16 134 -7 105 -7 c 0
 76 -7 53 16 53 45 c 0
EndSplineSet
Substitution2: "'dnom' Denominators lookup 15-1" zero.dnom
Substitution2: "'numr' Numerators lookup 14-1" zero.numr
Substitution2: "'lnum' Lining Figures in Latin lookup 4-1" zero.lnum
Substitution2: "'tnum' Tabular Numbers in Latin lookup 3-1" zero.tnum
EndChar

StartChar: one
Encoding: 49 49 26
Width: 210
Flags: HMW
LayerCount: 3
Back
SplineSet
221 33 m 1
 320 29 l 1
 320 -2 l 1
 185 2 l 1
 50 -2 l 1
 50 29 l 1
 149 33 l 1
 149 397 l 1
 50 401 l 1
 50 432 l 1
 185 428 l 1
 320 432 l 1
 320 401 l 1
 221 397 l 1
 221 33 l 1
EndSplineSet
Fore
SplineSet
53 45 m 0
 53 74 76 97 105 97 c 0
 134 97 157 74 157 45 c 0
 157 16 134 -7 105 -7 c 0
 76 -7 53 16 53 45 c 0
EndSplineSet
Substitution2: "'ss05' Style Set 5 lookup 16-1" one.alt
Substitution2: "'dnom' Denominators lookup 15-1" one.dnom
Substitution2: "'numr' Numerators lookup 14-1" one.numr
Substitution2: "'lnum' Lining Figures in Latin lookup 4-1" one.lnum
Substitution2: "'tnum' Tabular Numbers in Latin lookup 3-1" one.tnum
EndChar

StartChar: two
Encoding: 50 50 27
Width: 210
Flags: HMW
LayerCount: 3
Back
SplineSet
395 0 m 1
 40 0 l 1
 40 30 l 1
 190 165 240 222 240 307 c 0
 240 355 208 384 168 384 c 0
 132 384 105 362 85 335 c 1
 67 355 l 1
 97 405 145 443 200 443 c 0
 270 443 319 395 319 327 c 0
 319 252 272 191 165 98 c 2
 126 64 l 1
 127 61 l 1
 160 62 l 1
 347 62 l 2
 367 62 377 70 383 97 c 2
 387 115 l 1
 415 115 l 1
 395 0 l 1
EndSplineSet
Fore
SplineSet
53 45 m 0
 53 74 76 97 105 97 c 0
 134 97 157 74 157 45 c 0
 157 16 134 -7 105 -7 c 0
 76 -7 53 16 53 45 c 0
EndSplineSet
Substitution2: "'ss05' Style Set 5 lookup 16-1" two.alt
Substitution2: "'dnom' Denominators lookup 15-1" two.dnom
Substitution2: "'numr' Numerators lookup 14-1" two.numr
Substitution2: "'lnum' Lining Figures in Latin lookup 4-1" two.lnum
Substitution2: "'tnum' Tabular Numbers in Latin lookup 3-1" two.tnum
EndChar

StartChar: three
Encoding: 51 51 28
Width: 210
Flags: HMW
LayerCount: 3
Back
SplineSet
35 -185 m 1
 165 -162 257 -87 257 23 c 0
 257 98 209 140 147 140 c 0
 128 140 105 136 85 128 c 1
 75 153 l 1
 90 161 l 2
 180 209 213 258 213 315 c 0
 213 358 182 387 148 387 c 0
 117 387 86 372 65 344 c 1
 50 364 l 1
 78 410 120 442 175 442 c 0
 237 442 285 398 285 338 c 0
 285 278 250 234 200 196 c 1
 200 193 l 1
 275 187 332 128 332 43 c 0
 332 -102 190 -192 40 -210 c 1
 35 -185 l 1
EndSplineSet
Fore
SplineSet
53 45 m 0
 53 74 76 97 105 97 c 0
 134 97 157 74 157 45 c 0
 157 16 134 -7 105 -7 c 0
 76 -7 53 16 53 45 c 0
EndSplineSet
Substitution2: "'ss05' Style Set 5 lookup 16-1" three.alt
Substitution2: "'dnom' Denominators lookup 15-1" three.dnom
Substitution2: "'numr' Numerators lookup 14-1" three.numr
Substitution2: "'lnum' Lining Figures in Latin lookup 4-1" three.lnum
Substitution2: "'tnum' Tabular Numbers in Latin lookup 3-1" three.tnum
EndChar

StartChar: four
Encoding: 52 52 29
Width: 210
Flags: HMW
LayerCount: 3
Back
SplineSet
285 60 m 1
 285 334 l 1
 284 334 l 1
 78 62 l 1
 78 60 l 1
 285 60 l 1
350 0 m 1
 350 -200 l 1
 285 -200 l 1
 285 0 l 1
 10 0 l 1
 10 35 l 1
 325 450 l 1
 350 450 l 1
 350 60 l 1
 429 60 l 2
 447 60 458 65 462 91 c 2
 466 115 l 1
 494 115 l 1
 480 0 l 1
 350 0 l 1
EndSplineSet
Fore
SplineSet
53 45 m 0
 53 74 76 97 105 97 c 0
 134 97 157 74 157 45 c 0
 157 16 134 -7 105 -7 c 0
 76 -7 53 16 53 45 c 0
EndSplineSet
Substitution2: "'ss05' Style Set 5 lookup 16-1" four.alt
Substitution2: "'dnom' Denominators lookup 15-1" four.dnom
Substitution2: "'numr' Numerators lookup 14-1" four.numr
Substitution2: "'lnum' Lining Figures in Latin lookup 4-1" four.lnum
Substitution2: "'tnum' Tabular Numbers in Latin lookup 3-1" four.tnum
EndChar

StartChar: five
Encoding: 53 53 30
Width: 210
Flags: HMW
LayerCount: 3
Back
SplineSet
65 210 m 1
 90 430 l 1
 340 430 l 1
 340 365 l 1
 125 365 l 1
 115 271 l 1
 215 233 299 156 299 35 c 0
 299 -95 192 -193 47 -220 c 1
 42 -194 l 1
 153 -162 225 -90 225 20 c 0
 225 117 160 180 65 210 c 1
EndSplineSet
Fore
SplineSet
53 45 m 0
 53 74 76 97 105 97 c 0
 134 97 157 74 157 45 c 0
 157 16 134 -7 105 -7 c 0
 76 -7 53 16 53 45 c 0
EndSplineSet
Substitution2: "'ss05' Style Set 5 lookup 16-1" five.alt
Substitution2: "'dnom' Denominators lookup 15-1" five.dnom
Substitution2: "'numr' Numerators lookup 14-1" five.numr
Substitution2: "'lnum' Lining Figures in Latin lookup 4-1" five.lnum
Substitution2: "'tnum' Tabular Numbers in Latin lookup 3-1" five.tnum
EndChar

StartChar: six
Encoding: 54 54 31
Width: 210
Flags: HMW
LayerCount: 3
Back
SplineSet
410 660 m 1
 420 636 l 1
 245 553 125 400 125 226 c 0
 125 98 177 23 252 23 c 0
 317 23 357 85 357 165 c 0
 357 255 308 307 240 307 c 0
 222 307 197 302 179 294 c 1
 174 315 l 1
 204 340 242 355 280 355 c 0
 362 355 436 292 436 185 c 0
 436 70 352 -12 240 -12 c 0
 140 -12 46 70 46 205 c 0
 46 415 210 588 410 660 c 1
EndSplineSet
Fore
SplineSet
53 45 m 0
 53 74 76 97 105 97 c 0
 134 97 157 74 157 45 c 0
 157 16 134 -7 105 -7 c 0
 76 -7 53 16 53 45 c 0
EndSplineSet
Substitution2: "'ss05' Style Set 5 lookup 16-1" six.alt
Substitution2: "'dnom' Denominators lookup 15-1" six.dnom
Substitution2: "'numr' Numerators lookup 14-1" six.numr
Substitution2: "'lnum' Lining Figures in Latin lookup 4-1" six.lnum
Substitution2: "'tnum' Tabular Numbers in Latin lookup 3-1" six.tnum
EndChar

StartChar: seven
Encoding: 55 55 32
Width: 210
Flags: HMW
LayerCount: 3
Back
SplineSet
405 430 m 1
 405 410 l 1
 120 -225 l 1
 70 -215 l 1
 343 363 l 1
 343 365 l 1
 100 365 l 2
 78 365 67 358 60 324 c 2
 57 310 l 1
 30 310 l 1
 48 430 l 1
 405 430 l 1
EndSplineSet
Fore
SplineSet
53 45 m 0
 53 74 76 97 105 97 c 0
 134 97 157 74 157 45 c 0
 157 16 134 -7 105 -7 c 0
 76 -7 53 16 53 45 c 0
EndSplineSet
Substitution2: "'ss05' Style Set 5 lookup 16-1" seven.alt
Substitution2: "'dnom' Denominators lookup 15-1" seven.dnom
Substitution2: "'numr' Numerators lookup 14-1" seven.numr
Substitution2: "'lnum' Lining Figures in Latin lookup 4-1" seven.lnum
Substitution2: "'tnum' Tabular Numbers in Latin lookup 3-1" seven.tnum
EndChar

StartChar: eight
Encoding: 56 56 33
Width: 210
Flags: HMW
LayerCount: 3
Back
SplineSet
248 368 m 1
 296 405 312 450 312 503 c 0
 312 572 278 619 220 619 c 0
 169 619 131 579 131 525 c 0
 131 467 171 429 219 391 c 2
 248 368 l 1
176 328 m 1
 115 378 62 426 62 495 c 0
 62 575 132 653 230 653 c 0
 318 653 383 588 383 515 c 0
 383 442 342 397 270 352 c 1
 270 351 l 1
 341 294 407 245 407 160 c 0
 407 65 329 -13 220 -13 c 0
 121 -13 42 55 42 145 c 0
 42 220 90 277 176 327 c 1
 176 328 l 1
197 311 m 1
 146 275 117 225 117 160 c 0
 117 77 162 22 232 22 c 0
 296 22 335 66 335 130 c 0
 335 186 304 225 227 287 c 2
 197 311 l 1
EndSplineSet
Fore
SplineSet
53 45 m 0
 53 74 76 97 105 97 c 0
 134 97 157 74 157 45 c 0
 157 16 134 -7 105 -7 c 0
 76 -7 53 16 53 45 c 0
EndSplineSet
Substitution2: "'ss05' Style Set 5 lookup 16-1" eight.alt
Substitution2: "'dnom' Denominators lookup 15-1" eight.dnom
Substitution2: "'numr' Numerators lookup 14-1" eight.numr
Substitution2: "'lnum' Lining Figures in Latin lookup 4-1" eight.lnum
Substitution2: "'tnum' Tabular Numbers in Latin lookup 3-1" eight.tnum
EndChar

StartChar: nine
Encoding: 57 57 34
Width: 210
Flags: HMW
LayerCount: 3
Back
SplineSet
65 -225 m 1
 55 -200 l 1
 250 -120 349 20 349 195 c 0
 349 330 299 407 224 407 c 0
 160 407 120 350 120 272 c 0
 120 180 168 125 232 125 c 0
 252 125 277 129 295 137 c 1
 300 117 l 1
 268 90 230 77 195 77 c 0
 114 77 41 139 41 245 c 0
 41 358 129 442 237 442 c 0
 340 442 429 360 429 215 c 0
 429 10 290 -155 65 -225 c 1
EndSplineSet
Fore
SplineSet
53 45 m 0
 53 74 76 97 105 97 c 0
 134 97 157 74 157 45 c 0
 157 16 134 -7 105 -7 c 0
 76 -7 53 16 53 45 c 0
EndSplineSet
Substitution2: "'ss05' Style Set 5 lookup 16-1" nine.alt
Substitution2: "'dnom' Denominators lookup 15-1" nine.dnom
Substitution2: "'numr' Numerators lookup 14-1" nine.numr
Substitution2: "'lnum' Lining Figures in Latin lookup 4-1" nine.lnum
Substitution2: "'tnum' Tabular Numbers in Latin lookup 3-1" nine.tnum
EndChar

StartChar: colon
Encoding: 58 58 35
Width: 185
Flags: HMW
LayerCount: 3
Back
SplineSet
55 353 m 0
 55 381 77 403 105 403 c 0
 133 403 155 381 155 353 c 0
 155 325 133 303 105 303 c 0
 77 303 55 325 55 353 c 0
55 43 m 0
 55 71 77 93 105 93 c 0
 133 93 155 71 155 43 c 0
 155 15 133 -7 105 -7 c 0
 77 -7 55 15 55 43 c 0
EndSplineSet
Fore
SplineSet
101 345 m 0
 101 376 127 403 156 403 c 0
 180 403 199 386 199 359 c 0
 199 328 173 301 144 301 c 0
 120 301 101 318 101 345 c 0
51 37 m 0
 51 68 77 95 106 95 c 0
 130 95 149 78 149 51 c 0
 149 20 123 -7 94 -7 c 0
 70 -7 51 10 51 37 c 0
EndSplineSet
Layer: 2
SplineSet
102 346 m 0
 102 377 127 403 156 403 c 0
 179 403 198 387 198 360 c 0
 198 329 173 303 144 303 c 0
 121 303 102 319 102 346 c 0
52 36 m 0
 52 67 77 93 106 93 c 0
 129 93 148 77 148 50 c 0
 148 19 123 -7 94 -7 c 0
 71 -7 52 9 52 36 c 0
EndSplineSet
Substitution2: "'ital' Italics in Latin lookup 2-1" colon.ital
EndChar

StartChar: semicolon
Encoding: 59 59 36
Width: 205
Flags: HMW
LayerCount: 3
Back
SplineSet
117 353 m 0
 122 381 148 403 176 403 c 0
 204 403 222 381 217 353 c 0
 212 325 186 303 158 303 c 0
 130 303 112 325 117 353 c 0
49 28 m 1
 81 105 l 1
 89 105 l 2
 140 105 181 70 170 6 c 0
 160 -52 104 -110 19 -140 c 1
 11 -116 l 1
 62 -97 94 -62 101 -25 c 0
 107 7 81 23 49 28 c 1
55 353 m 0
 55 381 77 403 105 403 c 0
 133 403 155 381 155 353 c 0
 155 325 133 303 105 303 c 0
 77 303 55 325 55 353 c 0
44 28 m 1
 62 105 l 1
 70 105 l 2
 121 105 169 70 169 6 c 0
 169 -52 124 -110 44 -140 c 1
 31 -116 l 1
 79 -97 105 -62 105 -25 c 0
 105 7 77 23 44 28 c 1
EndSplineSet
Fore
SplineSet
50 28 m 1
 75 105 l 1
 76 105 l 1
 121 102 170 70 170 10 c 0
 170 -60 114 -115 20 -140 c 1
 12 -115 l 1
 72 -95 100 -58 100 -18 c 0
 100 10 79 25 50 28 c 1
106 345 m 0
 106 376 132 403 161 403 c 0
 185 403 204 386 204 359 c 0
 204 328 178 301 149 301 c 0
 125 301 106 318 106 345 c 0
EndSplineSet
Substitution2: "'ital' Italics in Latin lookup 2-1" semicolon.ital
EndChar

StartChar: less
Encoding: 60 60 37
Width: 210
Flags: HMW
LayerCount: 3
Back
SplineSet
450 47 m 1
 450 -5 l 1
 30 205 l 1
 30 235 l 1
 450 445 l 1
 450 393 l 1
 108 222 l 1
 108 218 l 1
 450 47 l 1
EndSplineSet
Fore
SplineSet
53 45 m 0
 53 74 76 97 105 97 c 0
 134 97 157 74 157 45 c 0
 157 16 134 -7 105 -7 c 0
 76 -7 53 16 53 45 c 0
EndSplineSet
EndChar

StartChar: equal
Encoding: 61 61 38
Width: 210
Flags: HMW
LayerCount: 3
Back
SplineSet
30 294 m 1
 30 340 l 1
 450 340 l 1
 450 294 l 1
 30 294 l 1
30 100 m 1
 30 146 l 1
 450 146 l 1
 450 100 l 1
 30 100 l 1
EndSplineSet
Fore
SplineSet
53 45 m 0
 53 74 76 97 105 97 c 0
 134 97 157 74 157 45 c 0
 157 16 134 -7 105 -7 c 0
 76 -7 53 16 53 45 c 0
EndSplineSet
EndChar

StartChar: greater
Encoding: 62 62 39
Width: 210
Flags: HMW
LayerCount: 3
Back
SplineSet
30 393 m 1
 30 445 l 1
 450 235 l 1
 450 205 l 1
 30 -5 l 1
 30 47 l 1
 372 218 l 1
 372 222 l 1
 30 393 l 1
EndSplineSet
Fore
SplineSet
53 45 m 0
 53 74 76 97 105 97 c 0
 134 97 157 74 157 45 c 0
 157 16 134 -7 105 -7 c 0
 76 -7 53 16 53 45 c 0
EndSplineSet
EndChar

StartChar: question
Encoding: 63 63 40
Width: 210
Flags: HMW
LayerCount: 3
Back
SplineSet
69 42 m 0
 69 67 90 88 115 88 c 0
 140 88 161 67 161 42 c 0
 161 17 140 -4 115 -4 c 0
 90 -4 69 17 69 42 c 0
262 442 m 0
 262 520 190 553 95 555 c 1
 95 668 l 1
 123 668 l 1
 123 664 l 2
 123 637 136 637 176 617 c 0
 252 580 297 525 297 440 c 0
 297 358 254 301 180 265 c 0
 140 245 130 240 130 210 c 2
 130 180 l 1
 100 180 l 1
 100 325 l 1
 190 328 262 360 262 442 c 0
EndSplineSet
Fore
SplineSet
53 45 m 0
 53 74 76 97 105 97 c 0
 134 97 157 74 157 45 c 0
 157 16 134 -7 105 -7 c 0
 76 -7 53 16 53 45 c 0
EndSplineSet
Substitution2: "'ital' Italics in Latin lookup 2-1" question.ital
EndChar

StartChar: at
Encoding: 64 64 41
Width: 210
Flags: HMW
LayerCount: 3
Back
SplineSet
505 -3 m 0
 430 -3 400 35 400 70 c 0
 400 95 405 125 413 156 c 1
 410 158 l 1
 335 53 290 22 250 22 c 0
 230 22 210 40 210 75 c 0
 210 205 360 395 455 395 c 0
 468 395 484 391 497 384 c 1
 527 405 l 1
 554 405 l 1
 554 400 l 1
 530 325 l 2
 484 182 470 127 470 98 c 0
 470 70 480 42 535 42 c 0
 620 42 710 115 710 240 c 0
 710 382 580 520 402 520 c 0
 227 520 90 380 90 203 c 0
 90 23 230 -120 408 -120 c 0
 505 -120 585 -80 643 -13 c 1
 665 -30 l 1
 600 -110 515 -160 402 -160 c 0
 205 -160 45 0 45 198 c 0
 45 399 206 560 407 560 c 0
 605 560 755 405 755 245 c 0
 755 70 615 -3 505 -3 c 0
450 310 m 0
 450 325 440 335 425 335 c 0
 355 335 263 200 263 115 c 0
 263 100 273 92 283 92 c 0
 338 92 450 225 450 310 c 0
EndSplineSet
Fore
SplineSet
53 45 m 0
 53 74 76 97 105 97 c 0
 134 97 157 74 157 45 c 0
 157 16 134 -7 105 -7 c 0
 76 -7 53 16 53 45 c 0
EndSplineSet
EndChar

StartChar: A
Encoding: 65 65 42
Width: 600
Flags: HMW
LayerCount: 3
Back
SplineSet
413 532 m 1
 409 532 l 1
 120 90 l 1
 90 31 l 1
 160 31 l 1
 160 0 l 1
 -12 0 l 1
 -12 31 l 1
 32 31 l 1
 445 660 l 1
 469 660 l 1
 568 31 l 1
 620 31 l 1
 620 0 l 1
 425 0 l 1
 425 31 l 1
 485 31 l 1
 413 532 l 1
EndSplineSet
Fore
SplineSet
210 227 m 1
 120 90 l 1
 90 31 l 1
 160 31 l 1
 160 0 l 1
 -12 0 l 1
 -12 31 l 1
 32 31 l 1
 445 660 l 1
 469 660 l 1
 568 31 l 1
 620 31 l 1
 620 0 l 1
 425 0 l 1
 425 31 l 1
 485 31 l 1
 457 227 l 1
 210 227 l 1
413 532 m 1
 409 532 l 1
 234 265 l 1
 451 265 l 1
 413 532 l 1
EndSplineSet
Layer: 2
SplineSet
369 522 m 0
 369 533 378 542 389 542 c 0
 400 542 409 533 409 522 c 0
 409 511 400 502 389 502 c 0
 378 502 369 511 369 522 c 0
479 227 m 1
 221 227 l 1
 131 87 l 1
 105 31 l 1
 178 31 l 1
 171 0 l 1
 -4 0 l 1
 3 31 l 1
 50 31 l 1
 455 660 l 1
 479 660 l 1
 603 31 l 1
 648 31 l 1
 641 0 l 1
 441 0 l 1
 448 31 l 1
 516 31 l 1
 479 227 l 1
472 265 m 1
 422 535 l 1
 418 535 l 1
 245 265 l 1
 472 265 l 1
EndSplineSet
Substitution2: "'salt' Stylistic Alternatives in Latin lookup 2-1" A.alt
Substitution2: "'ital' Italics in Latin lookup 2-1" A.ital
Substitution2: "'ss01' Style Set 1 in Latin lookup 10-1" A.alt
Substitution2: "'c2sc' Capitals to Small Capitals in Latin lookup 9-1" a.smcp
EndChar

StartChar: B
Encoding: 66 66 43
Width: 210
Flags: HMW
LayerCount: 3
Back
SplineSet
370 347 m 1
 458 330 525 273 525 188 c 0
 525 70 435 0 275 0 c 2
 45 0 l 1
 45 31 l 1
 120 31 l 1
 120 609 l 1
 45 609 l 1
 45 640 l 1
 265 640 l 2
 402 640 485 585 485 490 c 0
 485 425 435 373 370 350 c 1
 370 347 l 1
200 322 m 1
 200 69 l 2
 200 50 211 38 230 38 c 2
 270 38 l 2
 375 38 437 93 437 180 c 0
 437 265 379 322 257 322 c 2
 200 322 l 1
252 604 m 2
 200 604 l 1
 200 358 l 1
 270 358 l 2
 345 358 401 406 401 483 c 0
 401 560 357 604 252 604 c 2
EndSplineSet
Fore
SplineSet
53 45 m 0
 53 74 76 97 105 97 c 0
 134 97 157 74 157 45 c 0
 157 16 134 -7 105 -7 c 0
 76 -7 53 16 53 45 c 0
EndSplineSet
Layer: 2
SplineSet
431 347 m 1
 516 330 573 273 558 188 c 0
 537 70 435 0 275 0 c 2
 43 0 l 1
 49 32 l 1
 126 32 l 1
 227 608 l 1
 150 608 l 1
 156 640 l 1
 378 640 l 2
 515 640 588 585 571 490 c 0
 560 425 501 373 432 350 c 1
 431 347 l 1
257 322 m 1
 212 69 l 2
 209 50 218 38 237 38 c 2
 277 38 l 2
 382 38 454 93 469 180 c 0
 484 265 436 322 314 322 c 2
 257 322 l 1
359 604 m 2
 307 604 l 1
 263 358 l 1
 333 358 l 2
 408 358 472 406 486 483 c 0
 500 560 464 604 359 604 c 2
EndSplineSet
Substitution2: "'ital' Italics in Latin lookup 2-1" B.ital
Substitution2: "'c2sc' Capitals to Small Capitals in Latin lookup 9-1" b.smcp
EndChar

StartChar: C
Encoding: 67 67 44
Width: 210
Flags: HMW
LayerCount: 3
Back
SplineSet
590 138 m 2
 610 185 l 1
 640 185 l 1
 589 30 l 1
 533 2 457 -14 390 -14 c 0
 183 -14 40 125 40 320 c 0
 40 515 203 654 390 654 c 0
 460 654 537 637 593 607 c 1
 615 460 l 1
 585 460 l 1
 578 490 l 2
 571 520 557 548 540 565 c 0
 510 595 457 618 382 618 c 0
 245 618 135 505 135 335 c 0
 135 152 240 25 395 25 c 0
 510 25 562 72 590 138 c 2
EndSplineSet
Fore
SplineSet
53 45 m 0
 53 74 76 97 105 97 c 0
 134 97 157 74 157 45 c 0
 157 16 134 -7 105 -7 c 0
 76 -7 53 16 53 45 c 0
EndSplineSet
Layer: 2
SplineSet
614 138 m 2
 643 185 l 1
 673 185 l 1
 594 30 l 1
 533 2 455 -14 388 -14 c 0
 181 -14 62 125 96 320 c 0
 130 515 318 654 505 654 c 0
 575 654 649 637 700 607 c 1
 696 460 l 1
 666 460 l 1
 664 490 l 2
 662 520 654 548 640 565 c 0
 615 595 566 618 491 618 c 0
 354 618 224 505 194 335 c 0
 162 152 244 25 399 25 c 0
 514 25 574 72 614 138 c 2
EndSplineSet
Substitution2: "'ital' Italics in Latin lookup 2-1" C.ital
Substitution2: "'c2sc' Capitals to Small Capitals in Latin lookup 9-1" c.smcp
EndChar

StartChar: D
Encoding: 68 68 45
Width: 210
Flags: HMW
LayerCount: 3
Back
SplineSet
320 642 m 2
 525 642 694 530 694 332 c 0
 694 140 547 0 330 0 c 2
 45 0 l 1
 45 31 l 1
 120 31 l 1
 120 609 l 1
 45 609 l 1
 45 640 l 1
 320 642 l 2
310 605 m 2
 200 605 l 1
 200 80 l 2
 200 52 215 38 245 38 c 2
 327 38 l 2
 495 38 602 150 602 320 c 4
 602 505 482 605 310 605 c 2
EndSplineSet
Fore
SplineSet
53 45 m 0
 53 74 76 97 105 97 c 0
 134 97 157 74 157 45 c 0
 157 16 134 -7 105 -7 c 0
 76 -7 53 16 53 45 c 0
EndSplineSet
Layer: 2
SplineSet
433 642 m 2
 638 642 788 530 753 332 c 0
 719 140 547 0 330 0 c 2
 45 0 l 1
 51 32 l 1
 126 32 l 1
 227 608 l 1
 152 608 l 1
 158 640 l 1
 433 642 l 2
417 605 m 2
 307 605 l 1
 214 80 l 2
 209 52 222 38 252 38 c 2
 334 38 l 2
 502 38 628 150 658 320 c 0
 691 505 589 605 417 605 c 2
EndSplineSet
Substitution2: "'ital' Italics in Latin lookup 2-1" D.ital
Substitution2: "'c2sc' Capitals to Small Capitals in Latin lookup 9-1" d.smcp
EndChar

StartChar: E
Encoding: 69 69 46
Width: 520
Flags: HMW
LayerCount: 3
Back
SplineSet
210 355 m 1
 431 355 l 1
 443 423 l 1
 473 423 l 1
 443 243 l 1
 413 243 l 1
 425 318 l 1
 210 318 l 1
 210 355 l 1
125 608 m 1
 125 640 l 1
 575 640 l 1
 559 490 l 1
 530 490 l 1
 530 535 l 2
 530 590 515 604 465 604 c 2
 279 604 l 1
 188 77 l 2
 184 52 192 39 217 39 c 2
 360 39 l 2
 435 39 472 70 500 135 c 2
 515 170 l 1
 545 170 l 1
 475 0 l 1
 10 0 l 1
 10 32 l 1
 100 32 l 1
 200 608 l 1
 125 608 l 1
EndSplineSet
Fore
SplineSet
125 608 m 1
 125 640 l 1
 575 640 l 1
 559 490 l 1
 530 490 l 1
 530 535 l 2
 530 590 515 604 465 604 c 2
 279 604 l 1
 236 355 l 1
 431 355 l 1
 443 423 l 1
 473 423 l 1
 443 243 l 1
 413 243 l 1
 425 318 l 1
 230 318 l 1
 188 77 l 2
 184 52 192 39 217 39 c 2
 360 39 l 2
 435 39 472 70 500 135 c 2
 515 170 l 1
 545 170 l 1
 475 0 l 1
 10 0 l 1
 10 32 l 1
 100 32 l 1
 200 608 l 1
 125 608 l 1
EndSplineSet
Layer: 2
SplineSet
502 604 m 2
 307 604 l 1
 263 355 l 1
 463 355 l 1
 475 423 l 1
 505 423 l 1
 490 338 l 1
 473 243 l 1
 443 243 l 1
 456 318 l 1
 256 318 l 1
 212 68 l 2
 208 48 217 38 237 38 c 2
 392 38 l 2
 452 38 484 62 523 147 c 2
 536 175 l 1
 566 175 l 1
 500 0 l 1
 35 0 l 1
 41 32 l 1
 126 32 l 1
 227 608 l 1
 149 608 l 1
 155 640 l 1
 608 640 l 1
 586 490 l 1
 557 490 l 1
 559 524 l 2
 563 590 544 604 502 604 c 2
EndSplineSet
Substitution2: "'ital' Italics in Latin lookup 2-1" E.ital
Substitution2: "'c2sc' Capitals to Small Capitals in Latin lookup 9-1" e.smcp
EndChar

StartChar: F
Encoding: 70 70 47
Width: 210
Flags: HMW
LayerCount: 3
Back
SplineSet
200 305 m 1
 200 31 l 1
 290 31 l 1
 290 0 l 1
 47 0 l 1
 47 31 l 1
 120 31 l 1
 120 609 l 1
 40 609 l 1
 40 640 l 1
 490 640 l 1
 500 480 l 1
 470 480 l 1
 462 527 l 2
 452 585 427 604 384 604 c 2
 200 604 l 1
 200 342 l 1
 405 342 l 1
 405 420 l 1
 435 420 l 1
 435 325 l 1
 435 220 l 1
 405 220 l 1
 405 305 l 1
 200 305 l 1
EndSplineSet
Fore
SplineSet
53 45 m 0
 53 74 76 97 105 97 c 0
 134 97 157 74 157 45 c 0
 157 16 134 -7 105 -7 c 0
 76 -7 53 16 53 45 c 0
EndSplineSet
Layer: 2
SplineSet
254 305 m 1
 206 32 l 1
 298 32 l 1
 292 0 l 1
 45 0 l 1
 51 32 l 1
 126 32 l 1
 227 608 l 1
 145 608 l 1
 151 640 l 1
 603 640 l 1
 585 480 l 1
 555 480 l 1
 555 527 l 2
 555 585 534 604 491 604 c 2
 307 604 l 1
 260 342 l 1
 465 342 l 1
 479 420 l 1
 509 420 l 1
 492 325 l 1
 474 220 l 1
 444 220 l 1
 459 305 l 1
 254 305 l 1
EndSplineSet
Substitution2: "'ital' Italics in Latin lookup 2-1" F.ital
Substitution2: "'c2sc' Capitals to Small Capitals in Latin lookup 9-1" f.smcp
EndChar

StartChar: G
Encoding: 71 71 48
Width: 210
Flags: HMW
LayerCount: 3
Back
SplineSet
533 52 m 1
 533 244 l 1
 440 244 l 1
 440 275 l 1
 669 275 l 1
 669 244 l 1
 610 244 l 1
 609 25 l 1
 535 0 457 -14 390 -14 c 0
 183 -14 40 125 40 320 c 0
 40 510 195 654 393 654 c 0
 467 654 542 635 597 605 c 1
 605 465 l 1
 575 465 l 1
 570 500 l 2
 566 526 556 551 539 568 c 0
 509 598 457 618 390 618 c 0
 235 618 131 500 131 330 c 0
 131 160 236 24 398 24 c 0
 442 24 494 31 533 52 c 1
EndSplineSet
Fore
SplineSet
53 45 m 0
 53 74 76 97 105 97 c 0
 134 97 157 74 157 45 c 0
 157 16 134 -7 105 -7 c 0
 76 -7 53 16 53 45 c 0
EndSplineSet
Layer: 2
SplineSet
542 52 m 1
 576 243 l 1
 483 243 l 1
 488 275 l 1
 718 275 l 1
 713 243 l 1
 653 243 l 1
 613 25 l 1
 535 0 455 -14 388 -14 c 0
 181 -14 62 125 96 320 c 0
 130 510 310 654 508 654 c 0
 582 654 654 635 704 605 c 1
 687 465 l 1
 657 465 l 1
 658 500 l 2
 659 526 653 551 639 568 c 0
 614 598 566 618 499 618 c 0
 344 618 219 500 189 330 c 0
 159 160 240 24 402 24 c 0
 446 24 499 31 542 52 c 1
EndSplineSet
Substitution2: "'ital' Italics in Latin lookup 2-1" G.ital
Substitution2: "'c2sc' Capitals to Small Capitals in Latin lookup 9-1" g.smcp
EndChar

StartChar: H
Encoding: 72 72 49
Width: 740
Flags: HMW
LayerCount: 3
Back
SplineSet
45 609 m 1
 45 640 l 1
 275 640 l 1
 275 609 l 1
 200 609 l 1
 200 352 l 1
 580 352 l 1
 580 609 l 1
 505 609 l 1
 505 640 l 1
 735 640 l 1
 735 609 l 1
 660 609 l 1
 660 31 l 1
 735 31 l 1
 735 0 l 1
 505 0 l 1
 505 31 l 1
 580 31 l 1
 580 312 l 1
 200 312 l 1
 200 31 l 1
 275 31 l 1
 275 0 l 1
 45 0 l 1
 45 31 l 1
 120 31 l 1
 120 609 l 1
 45 609 l 1
EndSplineSet
Fore
SplineSet
123 608 m 1
 123 640 l 1
 357 640 l 1
 357 608 l 1
 280 608 l 1
 236 352 l 1
 616 352 l 1
 660 608 l 1
 583 608 l 1
 583 640 l 1
 817 640 l 1
 817 608 l 1
 740 608 l 1
 640 32 l 1
 717 32 l 1
 717 0 l 1
 483 0 l 1
 483 32 l 1
 560 32 l 1
 609 312 l 1
 229 312 l 1
 180 32 l 1
 257 32 l 1
 257 0 l 1
 23 0 l 1
 23 32 l 1
 100 32 l 1
 200 608 l 1
 123 608 l 1
EndSplineSet
Layer: 2
SplineSet
205 352 m 1
 635 352 l 1
 635 312 l 1
 205 312 l 1
 205 352 l 1
583 609 m 1
 583 640 l 1
 817 640 l 1
 817 609 l 1
 740 609 l 1
 640 31 l 1
 717 31 l 1
 717 0 l 1
 483 0 l 1
 483 31 l 1
 560 31 l 1
 660 609 l 1
 583 609 l 1
123 609 m 1
 123 640 l 1
 357 640 l 1
 357 609 l 1
 280 609 l 1
 180 31 l 1
 257 31 l 1
 257 0 l 1
 23 0 l 1
 23 31 l 1
 100 31 l 1
 200 609 l 1
 123 609 l 1
EndSplineSet
Substitution2: "'ital' Italics in Latin lookup 2-1" H.ital
Substitution2: "'c2sc' Capitals to Small Capitals in Latin lookup 9-1" h.smcp
EndChar

StartChar: I
Encoding: 73 73 50
Width: 280
Flags: HMW
LayerCount: 3
Back
SplineSet
43 609 m 1
 43 640 l 1
 277 640 l 1
 277 609 l 1
 200 609 l 1
 200 31 l 1
 277 31 l 1
 277 0 l 1
 43 0 l 1
 43 31 l 1
 120 31 l 1
 120 609 l 1
 43 609 l 1
EndSplineSet
Fore
SplineSet
123 608 m 1
 123 640 l 1
 357 640 l 1
 357 608 l 1
 280 608 l 1
 180 32 l 1
 257 32 l 1
 257 0 l 1
 23 0 l 1
 23 32 l 1
 100 32 l 1
 200 608 l 1
 123 608 l 1
EndSplineSet
Layer: 2
SplineSet
147 608 m 1
 153 640 l 1
 393 640 l 1
 387 608 l 1
 307 608 l 1
 206 32 l 1
 286 32 l 1
 280 0 l 1
 40 0 l 1
 46 32 l 1
 126 32 l 1
 227 608 l 1
 147 608 l 1
EndSplineSet
Substitution2: "'ital' Italics in Latin lookup 2-1" I.ital
Substitution2: "'c2sc' Capitals to Small Capitals in Latin lookup 9-1" i.smcp
EndChar

StartChar: J
Encoding: 74 74 51
Width: 210
Flags: HMW
LayerCount: 3
Back
SplineSet
195 15 m 2
 195 -130 100 -240 -24 -240 c 0
 -55 -240 -85 -232 -105 -219 c 1
 -67 -154 l 1
 -65 -154 l 1
 -42 -173 -8 -185 22 -185 c 0
 90 -185 115 -140 115 -30 c 2
 115 609 l 1
 25 609 l 1
 25 640 l 1
 270 640 l 1
 270 609 l 1
 195 609 l 1
 195 15 l 2
EndSplineSet
Fore
SplineSet
53 45 m 0
 53 74 76 97 105 97 c 0
 134 97 157 74 157 45 c 0
 157 16 134 -7 105 -7 c 0
 76 -7 53 16 53 45 c 0
EndSplineSet
Layer: 2
SplineSet
198 15 m 2
 172 -130 58 -240 -66 -240 c 0
 -97 -240 -126 -232 -144 -219 c 1
 -94 -154 l 1
 -92 -154 l 1
 -72 -173 -41 -185 -11 -185 c 0
 57 -185 91 -140 110 -30 c 2
 222 608 l 1
 130 608 l 1
 136 640 l 1
 385 640 l 1
 379 608 l 1
 302 608 l 1
 198 15 l 2
EndSplineSet
Substitution2: "'ital' Italics in Latin lookup 2-1" J.ital
Substitution2: "'c2sc' Capitals to Small Capitals in Latin lookup 9-1" j.smcp
EndChar

StartChar: K
Encoding: 75 75 52
Width: 210
Flags: HMW
LayerCount: 3
Back
SplineSet
45 609 m 1
 45 640 l 1
 275 640 l 1
 275 609 l 1
 200 609 l 1
 200 31 l 1
 270 31 l 1
 270 0 l 1
 45 0 l 1
 45 31 l 1
 120 31 l 1
 120 609 l 1
 45 609 l 1
595 640 m 1
 595 610 l 1
 545 610 l 1
 294 366 l 1
 597 31 l 1
 645 31 l 1
 645 0 l 1
 430 0 l 1
 430 31 l 1
 492 31 l 1
 215 340 l 1
 462 584 l 1
 478 610 l 1
 420 610 l 1
 420 640 l 1
 595 640 l 1
EndSplineSet
Fore
SplineSet
53 45 m 0
 53 74 76 97 105 97 c 0
 134 97 157 74 157 45 c 0
 157 16 134 -7 105 -7 c 0
 76 -7 53 16 53 45 c 0
EndSplineSet
Layer: 2
SplineSet
150 608 m 1
 156 640 l 1
 390 640 l 1
 384 608 l 1
 307 608 l 1
 206 32 l 1
 278 32 l 1
 272 0 l 1
 43 0 l 1
 49 32 l 1
 126 32 l 1
 227 608 l 1
 150 608 l 1
709 640 m 1
 703 608 l 1
 650 608 l 1
 359 366 l 1
 602 32 l 1
 651 32 l 1
 645 0 l 1
 428 0 l 1
 434 32 l 1
 497 32 l 1
 275 340 l 1
 563 582 l 1
 584 608 l 1
 524 608 l 1
 530 640 l 1
 709 640 l 1
EndSplineSet
Substitution2: "'ital' Italics in Latin lookup 2-1" K.ital
Substitution2: "'c2sc' Capitals to Small Capitals in Latin lookup 9-1" k.smcp
EndChar

StartChar: L
Encoding: 76 76 53
Width: 520
Flags: HMW
LayerCount: 3
Back
SplineSet
123 608 m 1
 123 640 l 1
 357 640 l 1
 357 608 l 1
 280 608 l 1
 180 32 l 1
 210 39 l 1
 365 39 l 2
 430 39 466 70 510 140 c 2
 535 180 l 1
 565 180 l 1
 475 0 l 1
 23 0 l 1
 23 32 l 1
 100 32 l 1
 200 608 l 1
 123 608 l 1
EndSplineSet
Fore
SplineSet
123 608 m 1
 123 640 l 1
 367 640 l 1
 367 608 l 1
 280 608 l 1
 188 77 l 2
 184 52 192 39 217 39 c 2
 360 39 l 2
 435 39 469 75 510 140 c 2
 535 180 l 1
 565 180 l 1
 475 0 l 1
 23 0 l 1
 23 32 l 1
 100 32 l 1
 200 608 l 1
 123 608 l 1
EndSplineSet
Layer: 2
SplineSet
101 32 m 1
 202 608 l 1
 125 608 l 1
 131 640 l 1
 375 640 l 1
 369 608 l 1
 282 608 l 1
 188 74 l 2
 184 51 195 39 217 39 c 2
 367 39 l 2
 427 39 465 68 517 155 c 2
 539 190 l 1
 569 190 l 1
 475 0 l 1
 16 0 l 1
 22 32 l 1
 101 32 l 1
EndSplineSet
Substitution2: "'ital' Italics in Latin lookup 2-1" L.ital
Substitution2: "'c2sc' Capitals to Small Capitals in Latin lookup 9-1" l.smcp
EndChar

StartChar: M
Encoding: 77 77 54
Width: 210
Flags: HMW
LayerCount: 3
Back
SplineSet
675 640 m 1
 825 640 l 1
 825 610 l 1
 800 610 l 2
 767 610 756 597 756 575 c 2
 756 573 l 1
 770 31 l 1
 845 31 l 1
 845 0 l 1
 615 0 l 1
 615 31 l 1
 690 31 l 1
 677 533 l 1
 674 533 l 1
 426 -10 l 1
 404 -10 l 1
 180 527 l 1
 176 527 l 1
 150 31 l 1
 228 31 l 1
 228 0 l 1
 30 0 l 1
 30 31 l 1
 105 31 l 1
 135 590 l 1
 125 605 110 610 80 610 c 2
 60 610 l 1
 60 640 l 1
 221 640 l 1
 435 115 l 1
 440 115 l 1
 675 640 l 1
EndSplineSet
Fore
SplineSet
53 45 m 0
 53 74 76 97 105 97 c 0
 134 97 157 74 157 45 c 0
 157 16 134 -7 105 -7 c 0
 76 -7 53 16 53 45 c 0
EndSplineSet
Layer: 2
SplineSet
785 640 m 1
 936 640 l 1
 930 608 l 1
 899 608 l 2
 872 608 858 597 854 575 c 2
 854 573 l 1
 773 32 l 1
 850 32 l 1
 844 0 l 1
 610 0 l 1
 616 32 l 1
 693 32 l 1
 768 533 l 1
 765 533 l 1
 421 -10 l 1
 399 -10 l 1
 269 532 l 1
 266 532 l 1
 153 32 l 1
 233 32 l 1
 227 0 l 1
 26 0 l 1
 32 32 l 1
 109 32 l 1
 236 589 l 1
 229 604 214 608 184 608 c 2
 163 608 l 1
 169 640 l 1
 331 640 l 1
 453 113 l 1
 456 113 l 1
 785 640 l 1
EndSplineSet
Substitution2: "'ital' Italics in Latin lookup 2-1" M.ital
Substitution2: "'c2sc' Capitals to Small Capitals in Latin lookup 9-1" m.smcp
EndChar

StartChar: N
Encoding: 78 78 55
Width: 210
Flags: HMW
LayerCount: 3
Back
SplineSet
27 611 m 1
 27 640 l 1
 189 640 l 1
 609 141 l 1
 612 142 l 1
 612 609 l 1
 530 609 l 1
 530 640 l 1
 734 640 l 1
 734 609 l 1
 657 609 l 1
 657 -15 l 1
 627 -15 l 1
 170 528 l 1
 167 527 l 1
 167 31 l 1
 247 31 l 1
 247 0 l 1
 44 0 l 1
 44 31 l 1
 122 31 l 1
 122 573 l 1
 97 600 77 611 42 611 c 2
 27 611 l 1
EndSplineSet
Fore
SplineSet
53 45 m 0
 53 74 76 97 105 97 c 0
 134 97 157 74 157 45 c 0
 157 16 134 -7 105 -7 c 0
 76 -7 53 16 53 45 c 0
EndSplineSet
Layer: 2
SplineSet
132 609 m 1
 138 640 l 1
 301 640 l 1
 634 140 l 1
 637 141 l 1
 719 608 l 1
 634 608 l 1
 640 640 l 1
 848 640 l 1
 842 608 l 1
 763 608 l 1
 653 -15 l 1
 623 -15 l 1
 262 528 l 1
 259 527 l 1
 172 32 l 1
 255 32 l 1
 249 0 l 1
 42 0 l 1
 48 32 l 1
 128 32 l 1
 223 572 l 1
 203 599 183 609 148 609 c 2
 132 609 l 1
EndSplineSet
Substitution2: "'ital' Italics in Latin lookup 2-1" N.ital
Substitution2: "'c2sc' Capitals to Small Capitals in Latin lookup 9-1" n.smcp
EndChar

StartChar: O
Encoding: 79 79 56
Width: 210
Flags: HMW
LayerCount: 3
Back
SplineSet
40 320 m 0
 40 507 188 654 375 654 c 0
 562 654 710 507 710 320 c 0
 710 133 562 -14 375 -14 c 0
 188 -14 40 133 40 320 c 0
134 335 m 0
 134 153 241 23 385 23 c 0
 520 23 616 143 616 305 c 0
 616 487 509 618 365 618 c 0
 230 618 134 497 134 335 c 0
EndSplineSet
Fore
SplineSet
53 45 m 0
 53 74 76 97 105 97 c 0
 134 97 157 74 157 45 c 0
 157 16 134 -7 105 -7 c 0
 76 -7 53 16 53 45 c 0
EndSplineSet
Layer: 2
SplineSet
96 320 m 0
 129 507 303 654 490 654 c 0
 677 654 799 507 766 320 c 0
 733 133 560 -14 373 -14 c 0
 186 -14 63 133 96 320 c 0
193 335 m 0
 161 153 245 23 389 23 c 0
 524 23 641 143 670 305 c 0
 702 487 618 618 474 618 c 0
 339 618 222 497 193 335 c 0
EndSplineSet
Substitution2: "'ital' Italics in Latin lookup 2-1" O.ital
Substitution2: "'c2sc' Capitals to Small Capitals in Latin lookup 9-1" o.smcp
EndChar

StartChar: P
Encoding: 80 80 57
Width: 210
Flags: HMW
LayerCount: 3
Back
SplineSet
225 605 m 2
 205 605 195 595 195 575 c 2
 195 31 l 1
 285 31 l 1
 285 0 l 1
 40 0 l 1
 40 31 l 1
 115 31 l 1
 115 609 l 1
 38 609 l 1
 38 640 l 1
 260 640 l 2
 407 640 505 572 505 455 c 0
 505 320 385 248 250 248 c 0
 245 248 236 249 230 250 c 1
 230 282 l 1
 255 282 l 2
 350 282 415 340 415 440 c 0
 415 547 355 605 250 605 c 2
 225 605 l 2
EndSplineSet
Fore
SplineSet
53 45 m 0
 53 74 76 97 105 97 c 0
 134 97 157 74 157 45 c 0
 157 16 134 -7 105 -7 c 0
 76 -7 53 16 53 45 c 0
EndSplineSet
Layer: 2
SplineSet
332 605 m 2
 312 605 300 595 296 575 c 2
 201 32 l 1
 293 32 l 1
 287 0 l 1
 38 0 l 1
 44 32 l 1
 121 32 l 1
 222 608 l 1
 143 608 l 1
 149 640 l 1
 373 640 l 2
 520 640 606 572 585 455 c 0
 561 320 429 248 294 248 c 0
 289 248 280 249 274 250 c 1
 280 282 l 1
 305 282 l 2
 400 282 475 340 493 440 c 0
 512 547 462 605 357 605 c 2
 332 605 l 2
EndSplineSet
Substitution2: "'ital' Italics in Latin lookup 2-1" P.ital
Substitution2: "'c2sc' Capitals to Small Capitals in Latin lookup 9-1" p.smcp
EndChar

StartChar: Q
Encoding: 81 81 58
Width: 210
Flags: HMW
LayerCount: 3
Back
SplineSet
134 335 m 0
 134 153 241 23 385 23 c 0
 520 23 616 143 616 305 c 0
 616 487 509 618 365 618 c 0
 230 618 134 497 134 335 c 0
40 320 m 0
 40 507 188 654 375 654 c 0
 562 654 710 507 710 320 c 0
 710 176 620 46 480 4 c 1
 480 0 l 1
 585 -35 650 -130 790 -130 c 0
 822 -130 865 -125 895 -110 c 1
 900 -130 l 1
 865 -160 800 -182 750 -182 c 0
 565 -182 461 -21 340 -12 c 0
 198 -1 40 120 40 320 c 0
EndSplineSet
Fore
SplineSet
53 45 m 0
 53 74 76 97 105 97 c 0
 134 97 157 74 157 45 c 0
 157 16 134 -7 105 -7 c 0
 76 -7 53 16 53 45 c 0
EndSplineSet
Layer: 2
SplineSet
193 335 m 0
 161 153 245 23 389 23 c 0
 524 23 641 143 670 305 c 0
 702 487 618 618 474 618 c 0
 339 618 222 497 193 335 c 0
96 320 m 0
 129 507 303 654 490 654 c 0
 677 654 799 507 766 320 c 0
 741 176 628 46 481 4 c 1
 480 0 l 1
 579 -35 627 -130 767 -130 c 0
 799 -130 842 -125 875 -110 c 1
 879 -130 l 1
 837 -160 770 -182 718 -182 c 0
 533 -182 457 -21 338 -12 c 0
 198 -1 61 120 96 320 c 0
EndSplineSet
Substitution2: "'ss03' Style Set 3 lookup 20-1" Q.alt
Substitution2: "'ss10' Style Set 10 lookup 18-1" Q.alt2
Substitution2: "'ital' Italics in Latin lookup 2-1" Q.ital
Substitution2: "'c2sc' Capitals to Small Capitals in Latin lookup 9-1" q.smcp
Substitution2: "'salt' Stylistic Alternatives in Latin lookup 2-1" Q.alt
EndChar

StartChar: R
Encoding: 82 82 59
Width: 210
Flags: HMW
LayerCount: 3
Back
SplineSet
200 284 m 1
 200 31 l 1
 275 31 l 1
 275 0 l 1
 48 0 l 1
 48 31 l 1
 120 31 l 1
 120 609 l 1
 45 609 l 1
 45 640 l 1
 257 640 l 2
 405 640 492 575 492 470 c 0
 492 390 440 334 366 303 c 1
 366 300 l 1
 445 182 l 2
 536 46 585 30 645 30 c 2
 655 30 l 1
 655 10 l 1
 638 -2 610 -10 585 -10 c 0
 515 -10 450 21 356 177 c 2
 292 283 l 1
 200 284 l 1
225 605 m 2
 210 605 200 594 200 578 c 2
 200 322 l 1
 212 320 235 318 247 318 c 0
 353 318 409 375 409 464 c 0
 409 551 353 605 250 605 c 2
 225 605 l 2
EndSplineSet
Fore
SplineSet
53 45 m 0
 53 74 76 97 105 97 c 0
 134 97 157 74 157 45 c 0
 157 16 134 -7 105 -7 c 0
 76 -7 53 16 53 45 c 0
EndSplineSet
Layer: 2
SplineSet
250 284 m 1
 206 32 l 1
 283 32 l 1
 277 0 l 1
 46 0 l 1
 52 32 l 1
 126 32 l 1
 227 608 l 1
 150 608 l 1
 156 640 l 1
 370 640 l 2
 518 640 594 575 575 470 c 0
 561 390 498 334 419 303 c 1
 419 300 l 1
 477 182 l 2
 544 46 590 30 650 30 c 2
 660 30 l 1
 657 10 l 1
 638 -2 608 -10 583 -10 c 0
 513 -10 453 21 387 177 c 2
 342 283 l 1
 250 284 l 1
332 605 m 2
 317 605 305 594 302 578 c 2
 257 322 l 1
 269 320 291 318 303 318 c 0
 409 318 475 375 491 464 c 0
 506 551 460 605 357 605 c 2
 332 605 l 2
EndSplineSet
Substitution2: "'ital' Italics in Latin lookup 2-1" R.ital
Substitution2: "'c2sc' Capitals to Small Capitals in Latin lookup 9-1" r.smcp
EndChar

StartChar: S
Encoding: 83 83 60
Width: 210
Flags: HMW
LayerCount: 3
Back
SplineSet
245 21 m 0
 325 21 364 70 364 125 c 0
 364 193 322 233 220 305 c 0
 114 380 74 427 74 500 c 0
 74 580 153 656 264 656 c 0
 322 656 373 640 410 615 c 1
 420 475 l 1
 390 475 l 1
 385 514 l 2
 377 574 330 621 255 621 c 0
 193 621 148 582 148 535 c 0
 148 475 185 440 280 373 c 0
 403 286 448 240 448 160 c 0
 448 65 359 -16 235 -16 c 0
 180 -16 119 -3 77 25 c 1
 55 185 l 1
 85 185 l 1
 95 140 l 2
 113 60 165 21 245 21 c 0
EndSplineSet
Fore
SplineSet
53 45 m 0
 53 74 76 97 105 97 c 0
 134 97 157 74 157 45 c 0
 157 16 134 -7 105 -7 c 0
 76 -7 53 16 53 45 c 0
EndSplineSet
Layer: 2
SplineSet
249 21 m 0
 329 21 376 70 386 125 c 0
 398 193 363 233 274 305 c 0
 181 380 149 427 162 500 c 0
 176 580 269 656 380 656 c 0
 438 656 485 640 518 615 c 1
 504 475 l 1
 474 475 l 1
 476 514 l 2
 479 574 439 621 364 621 c 0
 302 621 250 582 242 535 c 0
 231 475 263 440 346 373 c 0
 454 286 490 240 476 160 c 0
 459 65 356 -16 232 -16 c 0
 177 -16 118 -3 81 25 c 1
 88 185 l 1
 118 185 l 1
 120 140 l 2
 124 60 169 21 249 21 c 0
EndSplineSet
Substitution2: "'ital' Italics in Latin lookup 2-1" S.ital
Substitution2: "'c2sc' Capitals to Small Capitals in Latin lookup 9-1" s.smcp
EndChar

StartChar: T
Encoding: 84 84 61
Width: 210
Flags: HMW
LayerCount: 3
Back
SplineSet
30 675 m 1
 60 675 l 1
 65 640 l 1
 565 640 l 1
 575 675 l 1
 605 675 l 1
 595 475 l 1
 565 475 l 1
 565 518 l 2
 565 585 545 602 515 602 c 2
 345 602 l 1
 345 31 l 1
 425 31 l 1
 425 0 l 1
 185 0 l 1
 185 31 l 1
 265 31 l 1
 265 602 l 1
 113 602 l 2
 75 602 52 580 37 512 c 2
 30 480 l 1
 0 480 l 1
 30 675 l 1
EndSplineSet
Fore
SplineSet
53 45 m 0
 53 74 76 97 105 97 c 0
 134 97 157 74 157 45 c 0
 157 16 134 -7 105 -7 c 0
 76 -7 53 16 53 45 c 0
EndSplineSet
Layer: 2
SplineSet
149 675 m 1
 179 675 l 1
 178 640 l 1
 678 640 l 1
 694 675 l 1
 724 675 l 1
 679 475 l 1
 649 475 l 1
 656 518 l 2
 668 585 651 602 618 602 c 2
 451 602 l 1
 351 32 l 1
 433 32 l 1
 427 0 l 1
 183 0 l 1
 189 32 l 1
 271 32 l 1
 371 602 l 1
 219 602 l 2
 181 602 154 580 127 512 c 2
 115 480 l 1
 85 480 l 1
 149 675 l 1
EndSplineSet
Substitution2: "'ital' Italics in Latin lookup 2-1" T.ital
Substitution2: "'c2sc' Capitals to Small Capitals in Latin lookup 9-1" t.smcp
EndChar

StartChar: U
Encoding: 85 85 62
Width: 210
Flags: HMW
LayerCount: 3
Back
SplineSet
40 609 m 1
 40 640 l 1
 265 640 l 1
 265 609 l 1
 190 609 l 1
 190 240 l 2
 190 102 260 32 390 32 c 0
 520 32 595 110 595 245 c 2
 595 609 l 1
 519 609 l 1
 519 640 l 1
 710 640 l 1
 710 609 l 1
 640 609 l 1
 640 255 l 2
 640 85 545 -15 370 -15 c 0
 210 -15 110 80 110 235 c 2
 110 609 l 1
 40 609 l 1
EndSplineSet
Fore
SplineSet
53 45 m 0
 53 74 76 97 105 97 c 0
 134 97 157 74 157 45 c 0
 157 16 134 -7 105 -7 c 0
 76 -7 53 16 53 45 c 0
EndSplineSet
Layer: 2
SplineSet
145 608 m 1
 151 640 l 1
 380 640 l 1
 374 608 l 1
 297 608 l 1
 232 240 l 2
 208 102 266 32 396 32 c 0
 526 32 614 110 638 245 c 2
 702 608 l 1
 624 608 l 1
 630 640 l 1
 825 640 l 1
 819 608 l 1
 747 608 l 1
 685 255 l 2
 655 85 542 -15 367 -15 c 0
 207 -15 124 80 151 235 c 2
 217 608 l 1
 145 608 l 1
EndSplineSet
Substitution2: "'ital' Italics in Latin lookup 2-1" U.ital
Substitution2: "'c2sc' Capitals to Small Capitals in Latin lookup 9-1" u.smcp
EndChar

StartChar: V
Encoding: 86 86 63
Width: 210
Flags: HMW
LayerCount: 3
Back
SplineSet
134 609 m 1
 330 112 l 1
 335 112 l 1
 521 550 l 1
 535 609 l 1
 465 609 l 1
 465 640 l 1
 640 640 l 1
 640 609 l 1
 593 609 l 1
 321 -20 l 1
 299 -20 l 1
 45 609 l 1
 0 609 l 1
 0 640 l 1
 200 640 l 1
 200 609 l 1
 134 609 l 1
EndSplineSet
Fore
SplineSet
53 45 m 0
 53 74 76 97 105 97 c 0
 134 97 157 74 157 45 c 0
 157 16 134 -7 105 -7 c 0
 76 -7 53 16 53 45 c 0
EndSplineSet
Layer: 2
SplineSet
241 608 m 1
 350 109 l 1
 353 109 l 1
 618 548 l 1
 642 608 l 1
 570 608 l 1
 576 640 l 1
 755 640 l 1
 749 608 l 1
 700 608 l 1
 317 -20 l 1
 295 -20 l 1
 152 608 l 1
 104 608 l 1
 110 640 l 1
 315 640 l 1
 309 608 l 1
 241 608 l 1
EndSplineSet
Substitution2: "'ital' Italics in Latin lookup 2-1" V.ital
Substitution2: "'c2sc' Capitals to Small Capitals in Latin lookup 9-1" v.smcp
EndChar

StartChar: W
Encoding: 87 87 64
Width: 210
Flags: HMW
LayerCount: 3
Back
SplineSet
425 609 m 1
 493 448 l 1
 496 448 l 1
 545 561 l 1
 558 609 l 1
 425 609 l 1
665 640 m 1
 665 609 l 1
 613 609 l 1
 515 397 l 1
 638 106 l 1
 642 106 l 1
 834 550 l 1
 850 609 l 1
 785 609 l 1
 785 640 l 1
 950 640 l 1
 950 609 l 1
 908 609 l 1
 631 -20 l 1
 609 -20 l 1
 472 302 l 1
 468 302 l 1
 321 -20 l 1
 299 -20 l 1
 40 609 l 1
 0 609 l 1
 0 640 l 1
 190 640 l 1
 190 609 l 1
 127 609 l 1
 330 108 l 1
 335 108 l 1
 448 357 l 1
 340 609 l 1
 290 609 l 1
 290 640 l 1
 665 640 l 1
EndSplineSet
Fore
SplineSet
53 45 m 0
 53 74 76 97 105 97 c 0
 134 97 157 74 157 45 c 0
 157 16 134 -7 105 -7 c 0
 76 -7 53 16 53 45 c 0
EndSplineSet
Layer: 2
SplineSet
532 608 m 1
 573 446 l 1
 576 446 l 1
 645 561 l 1
 666 608 l 1
 532 608 l 1
778 640 m 1
 772 608 l 1
 721 608 l 1
 586 395 l 1
 657 104 l 1
 657 104 l 1
 931 550 l 1
 957 608 l 1
 892 608 l 1
 898 640 l 1
 1063 640 l 1
 1057 608 l 1
 1012 608 l 1
 627 -20 l 1
 605 -20 l 1
 525 302 l 1
 522 302 l 1
 317 -20 l 1
 295 -20 l 1
 147 608 l 1
 107 608 l 1
 113 640 l 1
 303 640 l 1
 297 608 l 1
 234 608 l 1
 349 104 l 1
 352 104 l 1
 511 357 l 1
 447 608 l 1
 397 608 l 1
 403 640 l 1
 778 640 l 1
EndSplineSet
Substitution2: "'ss02' Style Set 2 lookup 20-1" W.alt
Substitution2: "'salt' Stylistic Alternatives in Latin lookup 2-1" W.alt
Substitution2: "'ital' Italics in Latin lookup 2-1" W.ital
Substitution2: "'c2sc' Capitals to Small Capitals in Latin lookup 9-1" w.smcp
EndChar

StartChar: X
Encoding: 88 88 65
Width: 210
Flags: HMW
LayerCount: 3
Back
SplineSet
370 349 m 1
 619 31 l 1
 670 31 l 1
 670 0 l 1
 448 0 l 1
 448 31 l 1
 513 31 l 1
 317 285 l 1
 314 285 l 1
 138 73 l 1
 116 31 l 1
 188 31 l 1
 188 0 l 1
 -7 0 l 1
 -7 31 l 1
 46 31 l 1
 288 320 l 1
 61 609 l 1
 10 609 l 1
 10 640 l 1
 232 640 l 1
 232 609 l 1
 165 609 l 1
 343 384 l 1
 346 384 l 1
 499 568 l 1
 520 609 l 1
 448 609 l 1
 448 640 l 1
 641 640 l 1
 641 609 l 1
 590 609 l 1
 370 349 l 1
EndSplineSet
Fore
SplineSet
53 45 m 0
 53 74 76 97 105 97 c 0
 134 97 157 74 157 45 c 0
 157 16 134 -7 105 -7 c 0
 76 -7 53 16 53 45 c 0
EndSplineSet
Layer: 2
SplineSet
432 349 m 1
 624 32 l 1
 677 32 l 1
 671 0 l 1
 446 0 l 1
 452 32 l 1
 518 32 l 1
 366 286 l 1
 365 286 l 1
 152 74 l 1
 123 32 l 1
 196 32 l 1
 190 0 l 1
 -8 0 l 1
 -2 32 l 1
 53 32 l 1
 344 320 l 1
 169 608 l 1
 116 608 l 1
 122 640 l 1
 347 640 l 1
 341 608 l 1
 273 608 l 1
 412 383 l 1
 413 383 l 1
 598 567 l 1
 626 608 l 1
 553 608 l 1
 559 640 l 1
 755 640 l 1
 749 608 l 1
 696 608 l 1
 432 349 l 1
EndSplineSet
Substitution2: "'ital' Italics in Latin lookup 2-1" X.ital
Substitution2: "'c2sc' Capitals to Small Capitals in Latin lookup 9-1" x.smcp
EndChar

StartChar: Y
Encoding: 89 89 66
Width: 210
Flags: HMW
LayerCount: 3
Back
SplineSet
141 609 m 1
 310 332 l 1
 314 332 l 1
 463 560 l 1
 483 609 l 1
 415 609 l 1
 415 640 l 1
 590 640 l 1
 590 609 l 1
 545 609 l 1
 330 285 l 1
 330 31 l 1
 405 31 l 1
 405 0 l 1
 175 0 l 1
 175 31 l 1
 250 31 l 1
 250 275 l 1
 45 609 l 1
 0 609 l 1
 0 640 l 1
 200 640 l 1
 200 609 l 1
 141 609 l 1
EndSplineSet
Fore
SplineSet
53 45 m 0
 53 74 76 97 105 97 c 0
 134 97 157 74 157 45 c 0
 157 16 134 -7 105 -7 c 0
 76 -7 53 16 53 45 c 0
EndSplineSet
Layer: 2
SplineSet
249 608 m 1
 369 331 l 1
 372 331 l 1
 561 559 l 1
 589 608 l 1
 520 608 l 1
 526 640 l 1
 705 640 l 1
 699 608 l 1
 651 608 l 1
 380 285 l 1
 336 32 l 1
 413 32 l 1
 407 0 l 1
 173 0 l 1
 179 32 l 1
 256 32 l 1
 299 276 l 1
 153 608 l 1
 105 608 l 1
 111 640 l 1
 315 640 l 1
 309 608 l 1
 249 608 l 1
317 329 m 0
 317 341 326 350 338 350 c 0
 350 350 359 341 359 329 c 0
 359 317 350 308 338 308 c 0
 326 308 317 317 317 329 c 0
317 330 m 0
 317 341 326 350 337 350 c 0
 348 350 357 341 357 330 c 0
 357 319 348 310 337 310 c 0
 326 310 317 319 317 330 c 0
EndSplineSet
Substitution2: "'ital' Italics in Latin lookup 2-1" Y.ital
Substitution2: "'c2sc' Capitals to Small Capitals in Latin lookup 9-1" y.smcp
EndChar

StartChar: Z
Encoding: 90 90 67
Width: 210
Flags: HMW
LayerCount: 3
Back
SplineSet
83 670 m 1
 113 670 l 1
 118 640 l 1
 580 640 l 1
 580 610 l 1
 150 40 l 1
 150 38 l 1
 473 38 l 2
 523 38 551 55 575 140 c 2
 585 175 l 1
 615 175 l 1
 580 0 l 1
 40 0 l 1
 40 30 l 1
 470 602 l 1
 470 604 l 1
 180 604 l 2
 135 604 112 585 94 515 c 2
 84 475 l 1
 55 475 l 1
 83 670 l 1
EndSplineSet
Fore
SplineSet
53 45 m 0
 53 74 76 97 105 97 c 0
 134 97 157 74 157 45 c 0
 157 16 134 -7 105 -7 c 0
 76 -7 53 16 53 45 c 0
EndSplineSet
Layer: 2
SplineSet
201 670 m 1
 231 670 l 1
 231 640 l 1
 693 640 l 1
 688 610 l 1
 157 40 l 1
 157 38 l 1
 480 38 l 2
 530 38 561 55 600 140 c 2
 616 175 l 1
 646 175 l 1
 580 0 l 1
 40 0 l 1
 45 30 l 1
 576 602 l 1
 577 604 l 1
 287 604 l 2
 242 604 215 585 185 515 c 2
 168 475 l 1
 139 475 l 1
 201 670 l 1
EndSplineSet
Substitution2: "'ital' Italics in Latin lookup 2-1" Z.ital
Substitution2: "'c2sc' Capitals to Small Capitals in Latin lookup 9-1" z.smcp
EndChar

StartChar: bracketleft
Encoding: 91 91 68
Width: 300
Flags: HMW
LayerCount: 3
Back
SplineSet
243 640 m 1
 102 -160 l 1
 242 -160 l 1
 236 -195 l 1
 36 -195 l 1
 189 675 l 1
 389 675 l 1
 383 640 l 1
 243 640 l 1
EndSplineSet
Fore
SplineSet
195 675 m 1
 385 675 l 1
 385 640 l 1
 249 640 l 1
 86 -160 l 1
 220 -160 l 1
 220 -195 l 1
 20 -195 l 1
 195 675 l 1
EndSplineSet
Layer: 2
SplineSet
190 675 m 1
 250 675 l 1
 95 -195 l 1
 35 -195 l 1
 190 675 l 1
EndSplineSet
EndChar

StartChar: backslash
Encoding: 92 92 69
Width: 210
Flags: HMW
LayerCount: 3
Back
SplineSet
-5 660 m 1
 41 660 l 1
 325 -100 l 1
 279 -100 l 1
 -5 660 l 1
EndSplineSet
Fore
SplineSet
53 45 m 0
 53 74 76 97 105 97 c 0
 134 97 157 74 157 45 c 0
 157 16 134 -7 105 -7 c 0
 76 -7 53 16 53 45 c 0
EndSplineSet
EndChar

StartChar: bracketright
Encoding: 93 93 70
Width: 210
Flags: HMW
LayerCount: 3
Back
SplineSet
283 640 m 1
 143 640 l 1
 149 675 l 1
 349 675 l 1
 196 -195 l 1
 -4 -195 l 1
 2 -160 l 1
 142 -160 l 1
 283 640 l 1
EndSplineSet
Fore
SplineSet
53 45 m 0
 53 74 76 97 105 97 c 0
 134 97 157 74 157 45 c 0
 157 16 134 -7 105 -7 c 0
 76 -7 53 16 53 45 c 0
EndSplineSet
EndChar

StartChar: asciicircum
Encoding: 94 94 71
Width: 210
Flags: HMW
LayerCount: 3
Back
SplineSet
305 345 m 1
 182 590 l 1
 178 590 l 1
 55 345 l 1
 5 345 l 1
 165 665 l 1
 195 665 l 1
 355 345 l 1
 305 345 l 1
EndSplineSet
Fore
SplineSet
53 45 m 0
 53 74 76 97 105 97 c 0
 134 97 157 74 157 45 c 0
 157 16 134 -7 105 -7 c 0
 76 -7 53 16 53 45 c 0
EndSplineSet
EndChar

StartChar: underscore
Encoding: 95 95 72
Width: 210
Flags: HMW
LayerCount: 3
Back
SplineSet
20 -40 m 1
 460 -40 l 1
 460 -75 l 1
 20 -75 l 1
 20 -40 l 1
EndSplineSet
Fore
SplineSet
53 45 m 0
 53 74 76 97 105 97 c 0
 134 97 157 74 157 45 c 0
 157 16 134 -7 105 -7 c 0
 76 -7 53 16 53 45 c 0
EndSplineSet
EndChar

StartChar: grave
Encoding: 96 96 73
Width: 210
Flags: HMW
LayerCount: 3
Back
SplineSet
110 670 m 1
 200 490 l 1
 178 477 l 1
 45 642 l 1
 45 647 l 1
 110 670 l 1
EndSplineSet
Fore
SplineSet
53 45 m 0
 53 74 76 97 105 97 c 0
 134 97 157 74 157 45 c 0
 157 16 134 -7 105 -7 c 0
 76 -7 53 16 53 45 c 0
EndSplineSet
EndChar

StartChar: b
Encoding: 98 98 74
Width: 210
Flags: HMW
LayerCount: 3
Back
SplineSet
162 -35 m 1
 130 -270 l 1
 65 -270 l 1
 132 200 l 2
 140 249 145 285 145 316 c 0
 145 328 140 334 134 334 c 0
 120 334 90 316 45 258 c 1
 27 275 l 1
 92 365 139 413 180 413 c 0
 200 413 216 395 216 365 c 0
 216 345 212 310 207 279 c 1
 209 278 l 1
 261 365 315 413 365 413 c 0
 415 413 450 370 450 300 c 0
 450 158 315 -4 195 -4 c 0
 185 -4 172 -2 165 0 c 1
 162 -35 l 1
177 75 m 2
 174 55 195 44 225 44 c 0
 317 44 379 173 379 285 c 0
 379 335 362 354 335 354 c 0
 285 354 207 250 192 162 c 2
 177 75 l 2
EndSplineSet
Fore
SplineSet
53 45 m 0
 53 74 76 97 105 97 c 0
 134 97 157 74 157 45 c 0
 157 16 134 -7 105 -7 c 0
 76 -7 53 16 53 45 c 0
EndSplineSet
Substitution2: "'ital' Italics in Latin lookup 2-1" b.ital
Substitution2: "'smcp' Lowercase to Small Capitals in Latin lookup 8-1" b.smcp
EndChar

StartChar: c
Encoding: 99 99 75
Width: 310
Flags: HMW
LayerCount: 3
Back
SplineSet
330 318 m 1
 305 345 270 368 230 368 c 0
 165 368 114 317 114 215 c 0
 114 108 177 50 255 50 c 0
 300 50 340 68 367 103 c 1
 382 90 l 1
 350 28 293 -12 220 -12 c 0
 120 -12 40 67 40 185 c 0
 40 310 145 412 255 412 c 0
 298 412 347 398 377 375 c 1
 332 318 l 1
 330 318 l 1
EndSplineSet
Fore
SplineSet
313 95 m 1
 265 20 212 -13 165 -13 c 0
 105 -13 63 40 63 115 c 0
 63 252 180 413 310 413 c 0
 325 413 343 409 357 402 c 1
 328 340 l 1
 325 340 l 1
 310 348 288 354 268 354 c 0
 178 354 132 240 132 150 c 0
 132 85 160 48 198 48 c 0
 227 48 260 65 296 113 c 1
 313 95 l 1
EndSplineSet
Layer: 2
SplineSet
310 90 m 1
 260 15 210 -13 165 -13 c 0
 105 -13 63 40 63 115 c 0
 63 252 180 413 310 413 c 0
 325 413 343 409 357 402 c 1
 328 340 l 1
 325 340 l 1
 310 348 288 354 268 354 c 0
 178 354 132 240 132 150 c 0
 132 85 160 48 198 48 c 0
 227 48 259 62 293 108 c 1
 310 90 l 1
EndSplineSet
Substitution2: "'ital' Italics in Latin lookup 2-1" c.ital
Substitution2: "'smcp' Lowercase to Small Capitals in Latin lookup 8-1" c.smcp
EndChar

StartChar: d
Encoding: 100 100 76
Width: 442
Flags: HMW
LayerCount: 3
Fore
SplineSet
338 340 m 1
 325 350 304 356 284 356 c 0
 192 356 134 215 134 110 c 0
 134 67 148 46 170 46 c 0
 225 46 302 164 324 272 c 2
 338 340 l 1
353 430 m 1
 384 630 l 1
 316 658 l 1
 316 669 l 1
 456 710 l 1
 464 710 l 9
 381 200 l 18
 373 152 369 110 369 85 c 0
 369 73 373 66 380 66 c 0
 394 66 425 84 470 142 c 1
 488 125 l 1
 428 37 373 -13 331 -13 c 0
 311 -13 297 5 297 35 c 0
 297 57 302 97 309 141 c 1
 307 142 l 1
 246 30 191 -13 135 -13 c 0
 91 -13 63 30 63 85 c 0
 63 230 186 407 321 407 c 0
 330 407 343 405 349 403 c 1
 350 404 l 1
 353 430 l 1
EndSplineSet
Layer: 2
SplineSet
338 340 m 1
 325 350 305 355 285 355 c 0
 195 355 132 210 132 100 c 0
 132 62 145 44 165 44 c 0
 215 44 299 170 323 275 c 2
 338 340 l 1
422 420 m 1
 422 415 l 1
 386 245 l 2
 368 160 358 115 358 84 c 0
 358 72 362 66 368 66 c 0
 382 66 413 85 458 143 c 1
 475 125 l 1
 410 35 356 -13 315 -13 c 0
 296 -13 284 5 284 35 c 0
 284 57 290 95 302 139 c 1
 300 140 l 1
 235 27 182 -13 127 -13 c 0
 86 -13 60 25 60 78 c 0
 60 225 195 410 328 410 c 0
 345 410 361 405 373 398 c 1
 375 398 l 1
 402 420 l 1
 422 420 l 1
EndSplineSet
Substitution2: "'ital' Italics in Latin lookup 2-1" d.ital
Substitution2: "'smcp' Lowercase to Small Capitals in Latin lookup 8-1" d.smcp
EndChar

StartChar: e
Encoding: 101 101 77
Width: 340
Flags: HMW
LayerCount: 3
Back
SplineSet
290 90 m 1
 241 17 191 -13 145 -13 c 0
 95 -13 63 35 63 95 c 0
 63 235 180 407 315 407 c 0
 330 407 345 403 355 397 c 1
 335 340 l 1
 330 340 l 1
 318 349 298 355 280 355 c 0
 185 355 134 220 134 120 c 0
 134 72 150 46 180 46 c 0
 206 46 240 65 275 110 c 1
 290 90 l 1
222 501 m 1
 223 500 l 1
 222 499 l 1
 221 500 l 1
 222 501 l 1
EndSplineSet
Fore
SplineSet
264 368 m 3
 189 368 134 245 134 135 c 0
 134 82 157 45 197 45 c 0
 227 45 262 60 292 108 c 1
 309 90 l 1
 264 15 212 -13 164 -13 c 0
 102 -13 65 40 65 115 c 0
 65 250 177 412 287 412 c 0
 332 412 367 380 367 335 c 3
 367 260 282 210 127 197 c 1
 122 220 l 1
 242 235 302 275 302 325 c 3
 302 348 287 368 264 368 c 3
EndSplineSet
Layer: 2
SplineSet
265 370 m 3
 190 370 132 245 132 135 c 0
 132 82 155 45 195 45 c 0
 225 45 260 60 290 108 c 1
 307 90 l 1
 262 15 210 -13 162 -13 c 0
 100 -13 63 40 63 115 c 0
 63 250 175 412 285 412 c 0
 330 412 370 380 370 335 c 3
 370 260 280 210 125 197 c 1
 120 220 l 1
 240 235 305 275 305 325 c 3
 305 350 288 370 265 370 c 3
-164 370 m 3
 -239 370 -293 240 -289 130 c 0
 -287 80 -263 48 -223 48 c 0
 -198 48 -163 58 -127 108 c 1
 -109 90 l 1
 -156 15 -211 -13 -261 -13 c 0
 -316 -13 -354 35 -357 110 c 0
 -362 245 -255 412 -145 412 c 0
 -95 412 -60 380 -58 335 c 0
 -55 260 -143 210 -298 197 c 1
 -304 220 l 1
 -185 235 -120 275 -122 325 c 0
 -123 350 -139 370 -164 370 c 3
-545 370 m 3
 -620 370 -678 240 -678 130 c 0
 -678 80 -655 48 -615 48 c 0
 -590 48 -555 58 -517 108 c 1
 -500 90 l 1
 -550 15 -605 -13 -655 -13 c 0
 -710 -13 -747 35 -747 110 c 0
 -747 245 -635 412 -525 412 c 0
 -475 412 -440 380 -440 335 c 3
 -440 260 -530 210 -685 197 c 1
 -690 220 l 1
 -570 235 -505 275 -505 325 c 3
 -505 350 -520 370 -545 370 c 3
-890 90 m 1
 -939 17 -989 -13 -1035 -13 c 0
 -1085 -13 -1117 35 -1117 90 c 0
 -1117 235 -995 407 -860 407 c 0
 -845 407 -830 403 -820 397 c 1
 -820 390 l 1
 -842 340 l 1
 -855 350 -875 357 -895 357 c 0
 -988 357 -1046 220 -1046 115 c 0
 -1046 72 -1030 46 -1000 46 c 0
 -974 46 -940 65 -905 110 c 1
 -890 90 l 1
EndSplineSet
Substitution2: "'ital' Italics in Latin lookup 2-1" e.ital
Substitution2: "'smcp' Lowercase to Small Capitals in Latin lookup 8-1" e.smcp
EndChar

StartChar: f
Encoding: 102 102 78
Width: 210
Flags: HMW
LayerCount: 3
Back
SplineSet
668 618 m 1
 646 632 617 640 593 640 c 0
 535 640 490 600 490 475 c 2
 490 400 l 1
 605 400 l 1
 600 357 l 1
 490 357 l 1
 490 32 l 1
 575 32 l 1
 575 0 l 1
 360 0 l 1
 360 32 l 1
 420 32 l 1
 420 357 l 1
 363 357 l 1
 363 378 l 1
 420 404 l 1
 420 435 l 2
 420 595 545 698 630 698 c 0
 655 698 681 690 700 677 c 1
 670 618 l 1
 668 618 l 1
348 617 m 1
 325 632 294 640 272 640 c 0
 215 640 170 600 170 475 c 2
 170 400 l 1
 285 400 l 1
 280 357 l 1
 170 357 l 1
 170 31 l 1
 255 31 l 1
 255 0 l 1
 40 0 l 1
 40 31 l 1
 100 31 l 1
 100 357 l 1
 43 357 l 1
 43 378 l 1
 100 404 l 1
 100 435 l 2
 100 595 225 698 310 698 c 0
 335 698 362 690 380 676 c 1
 350 617 l 1
 348 617 l 1
EndSplineSet
Fore
SplineSet
53 45 m 0
 53 74 76 97 105 97 c 0
 134 97 157 74 157 45 c 0
 157 16 134 -7 105 -7 c 0
 76 -7 53 16 53 45 c 0
EndSplineSet
Layer: 2
SplineSet
967 618 m 1
 945 633 917 642 892 642 c 0
 827 642 790 597 790 475 c 2
 790 400 l 1
 905 400 l 1
 900 357 l 1
 790 357 l 1
 790 32 l 1
 875 32 l 1
 875 0 l 1
 660 0 l 1
 660 32 l 1
 720 32 l 1
 720 357 l 1
 663 357 l 1
 663 378 l 1
 720 404 l 1
 720 440 l 2
 720 595 837 698 927 698 c 0
 953 698 981 690 1000 677 c 1
 970 618 l 1
 967 618 l 1
1272 618 m 1
 1252 633 1222 642 1195 642 c 0
 1130 642 1090 597 1090 475 c 2
 1090 400 l 1
 1205 400 l 1
 1200 357 l 1
 1090 357 l 1
 1090 32 l 1
 1175 32 l 1
 1175 0 l 1
 960 0 l 1
 960 32 l 1
 1020 32 l 1
 1020 357 l 1
 963 357 l 1
 963 378 l 1
 1020 404 l 1
 1020 440 l 2
 1020 597 1140 698 1235 698 c 0
 1260 698 1287 690 1305 677 c 1
 1275 618 l 1
 1272 618 l 1
668 617 m 1
 645 632 614 640 592 640 c 0
 535 640 490 600 490 475 c 2
 490 400 l 1
 605 400 l 1
 600 357 l 1
 490 357 l 1
 490 32 l 1
 575 32 l 1
 575 0 l 1
 360 0 l 1
 360 32 l 1
 420 32 l 1
 420 357 l 1
 363 357 l 1
 363 378 l 1
 420 404 l 1
 420 435 l 2
 420 592 542 698 630 698 c 0
 655 698 682 690 700 677 c 1
 670 617 l 1
 668 617 l 1
EndSplineSet
Substitution2: "'ss11' Style Set 11 lookup 19-1" f.alt
Substitution2: "'ss10' Style Set 10 lookup 18-1" f.alt
Substitution2: "'ss06' Style Set 6 lookup 17-1" f.alt
Substitution2: "'ital' Italics in Latin lookup 2-1" f.ital
Substitution2: "'smcp' Lowercase to Small Capitals in Latin lookup 8-1" f.smcp
Substitution2: "'salt' Stylistic Alternatives in Latin lookup 2-1" f.alt
EndChar

StartChar: l
Encoding: 108 108 79
Width: 245
Flags: HMW
LayerCount: 3
Back
SplineSet
100 100 m 2
 192 640 l 1
 135 664 l 1
 135 675 l 1
 263 710 l 1
 271 710 l 1
 170 115 l 2
 165 85 165 67 177 67 c 3
 195 67 227 92 260 140 c 9
 280 127 l 1
 222 35 170 -12 130 -12 c 3
 96 -12 86 20 100 100 c 2
EndSplineSet
Fore
SplineSet
101 100 m 2
 192 635 l 1
 130 662 l 1
 130 673 l 1
 263 710 l 1
 271 710 l 1
 170 115 l 2
 165 85 164 67 177 67 c 3
 195 67 228 92 261 140 c 9
 281 127 l 1
 223 35 171 -12 131 -12 c 3
 97 -12 87 20 101 100 c 2
EndSplineSet
Layer: 2
SplineSet
101 100 m 2
 193 640 l 1
 135 664 l 1
 135 675 l 1
 263 710 l 1
 271 710 l 1
 170 115 l 2
 165 85 164 67 177 67 c 3
 195 67 228 92 261 140 c 9
 281 127 l 1
 223 35 171 -12 131 -12 c 3
 97 -12 87 20 101 100 c 2
168 400 m 1
 236 400 l 1
 165 0 l 1
 97 0 l 1
 168 400 l 1
EndSplineSet
Substitution2: "'ital' Italics in Latin lookup 2-1" l.ital
Substitution2: "'smcp' Lowercase to Small Capitals in Latin lookup 8-1" l.smcp
EndChar

StartChar: m
Encoding: 109 109 80
Width: 690
Flags: HMW
LayerCount: 3
Back
SplineSet
308 0 m 25
 373 0 l 2
 399 130 l 2
 422 245 523 340 565 340 c 3
 580 340 583 320 575 280 c 2
 539 100 l 18
 526 35 528 -13 568 -13 c 3
 613 -13 673 50 720 125 c 1
 702 143 l 1
 668 100 638 69 613 69 c 3
 604 69 602 80 607 105 c 2
 645 295 l 2
 661 375 648 413 608 413 c 3
 553 413 488 350 424 250 c 1
 422 251 l 1
 433 295 l 2
 453 374 435 413 395 413 c 3
 340 413 275 350 211 250 c 1
 209 251 l 1
 220 295 l 2
 241 380 236 413 203 413 c 3
 165 413 109 371 50 282 c 1
 68 264 l 1
 106 310 136 334 150 334 c 3
 158 334 160 322 156 304 c 2
 95 0 l 2
 160 0 l 2
 186 130 l 2
 209 245 310 340 352 340 c 3
 367 340 370 320 362 280 c 2
 308 0 l 25
EndSplineSet
Fore
SplineSet
309 0 m 25
 363 280 l 2
 370 315 369 341 354 341 c 3
 311 341 211 250 186 130 c 2
 159 0 l 2
 95 0 l 2
 155 301 l 2
 159 322 158 334 150 334 c 3
 136 334 104 310 67 266 c 1
 49 284 l 1
 107 370 164 413 200 413 c 3
 234 413 241 382 221 300 c 2
 211 259 l 1
 213 258 l 1
 275 353 346 413 398 413 c 3
 438 413 449 370 432 295 c 2
 426 268 l 1
 428 267 l 1
 494 360 558 413 609 413 c 3
 649 413 662 375 646 295 c 2
 609 105 l 2
 604 80 606 69 617 69 c 3
 640 69 671 100 703 142 c 1
 722 125 l 1
 675 49 615 -13 570 -13 c 3
 530 -13 528 33 541 98 c 10
 577 283 l 2
 584 320 581 341 568 341 c 3
 523 341 423 253 401 140 c 2
 374 0 l 2
 309 0 l 25
EndSplineSet
Layer: 2
SplineSet
309 0 m 25
 374 0 l 2
 401 140 l 2
 423 253 523 341 568 341 c 3
 581 341 584 320 577 283 c 2
 541 98 l 18
 528 33 530 -13 570 -13 c 3
 615 -13 675 49 722 125 c 1
 703 142 l 1
 671 100 640 69 617 69 c 3
 606 69 604.126953125 79.9755859375 609 105 c 2
 646 295 l 2
 662 375 649 413 609 413 c 3
 558 413 495 362 428 267 c 1
 426 268 l 1
 432 295 l 2
 450 375 438 413 398 413 c 3
 346 413 275 353 213 258 c 1
 211 259 l 1
 221 300 l 2
 241 382 234 413 200 413 c 3
 164 413 107 370 49 284 c 1
 67 266 l 1
 104 310 136 334 150 334 c 3
 158 334 159 322 155 301 c 2
 95 0 l 2
 159 0 l 2
 186 130 l 2
 211 250 311 341 354 341 c 3
 370 341 370 315 363 280 c 2
 309 0 l 25
EndSplineSet
Substitution2: "'ital' Italics in Latin lookup 2-1" m.ital
Substitution2: "'smcp' Lowercase to Small Capitals in Latin lookup 8-1" m.smcp
EndChar

StartChar: p
Encoding: 112 112 81
Width: 430
Flags: HMW
LayerCount: 3
Back
SplineSet
174 60 m 1
 187 50 209 44 229 44 c 0
 321 44 379 183 379 300 c 0
 379 335 365 354 343 354 c 0
 290 354 209 233 187 125 c 2
 174 60 l 1
162 -20 m 1
 129 -230 l 1
 197 -258 l 1
 197 -269 l 1
 57 -310 l 1
 49 -310 l 9
 132 200 l 18
 140 249 145 285 145 316 c 0
 145 328 140 334 134 334 c 0
 120 334 90 316 45 258 c 1
 27 275 l 1
 92 365 139 413 180 413 c 0
 200 413 216 395 216 365 c 0
 216 343 211 303 204 259 c 1
 206 258 l 1
 267 370 322 413 380 413 c 0
 422 413 450 370 450 315 c 0
 450 168 327 -7 192 -7 c 0
 183 -7 170 -5 164 -3 c 1
 162 -20 l 1
EndSplineSet
Fore
SplineSet
162 -35 m 1
 130 -270 l 1
 65 -270 l 1
 132 200 l 2
 140 249 145 285 145 316 c 0
 145 328 140 334 134 334 c 0
 120 334 90 316 45 258 c 1
 27 275 l 1
 92 365 139 413 180 413 c 0
 200 413 216 395 216 365 c 0
 216 345 212 310 207 279 c 1
 209 278 l 1
 261 365 315 413 365 413 c 0
 415 413 450 370 450 300 c 0
 450 158 315 -4 195 -4 c 0
 185 -4 172 -2 165 0 c 1
 162 -35 l 1
177 75 m 2
 174 55 195 44 225 44 c 0
 317 44 379 173 379 285 c 0
 379 335 362 354 335 354 c 0
 285 354 207 250 192 162 c 2
 177 75 l 2
EndSplineSet
Layer: 2
SplineSet
162 -35 m 1
 130 -270 l 1
 65 -270 l 1
 132 200 l 2
 140 249 145 285 145 316 c 0
 145 328 140 334 134 334 c 0
 120 334 90 316 45 258 c 1
 27 275 l 1
 92 365 139 413 180 413 c 0
 200 413 216 395 216 365 c 0
 216 345 212 310 207 279 c 1
 209 278 l 1
 262 365 320 413 370 413 c 0
 420 413 455 370 455 300 c 0
 455 158 320 -7 195 -7 c 0
 180 -7 171 -5 165 -3 c 1
 162 -35 l 1
175 62 m 1
 185 51 205 44 230 44 c 0
 322 44 384 173 384 285 c 0
 384 335 367 354 340 354 c 0
 290 354 208 260 193 170 c 2
 175 62 l 1
EndSplineSet
Substitution2: "'ital' Italics in Latin lookup 2-1" p.ital
Substitution2: "'smcp' Lowercase to Small Capitals in Latin lookup 8-1" p.smcp
EndChar

StartChar: q
Encoding: 113 113 82
Width: 210
Flags: HMW
LayerCount: 3
Back
SplineSet
346 313 m 1
 326 346 286 370 243 370 c 0
 174 370 111 315 111 215 c 0
 111 100 184 43 256 43 c 0
 289 43 321 54 346 75 c 1
 346 313 l 1
366 390 m 1
 368 390 l 1
 396 419 l 1
 416 419 l 1
 416 -239 l 1
 486 -239 l 1
 486 -270 l 1
 261 -270 l 1
 261 -239 l 1
 346 -239 l 1
 346 10 l 1
 348 49 l 1
 346 50 l 1
 311 12 266 -12 218 -12 c 0
 126 -12 40 66 40 180 c 0
 40 307 148 412 265 412 c 0
 298 412 335 403 366 390 c 1
EndSplineSet
Fore
SplineSet
53 45 m 0
 53 74 76 97 105 97 c 0
 134 97 157 74 157 45 c 0
 157 16 134 -7 105 -7 c 0
 76 -7 53 16 53 45 c 0
EndSplineSet
Substitution2: "'ital' Italics in Latin lookup 2-1" q.ital
Substitution2: "'smcp' Lowercase to Small Capitals in Latin lookup 8-1" q.smcp
EndChar

StartChar: r
Encoding: 114 114 83
Width: 210
Flags: HMW
LayerCount: 3
Back
SplineSet
304 330 m 2
 295 333 282 335 270 335 c 0
 235 335 200 320 170 280 c 1
 170 31 l 1
 257 31 l 1
 257 0 l 1
 35 0 l 1
 35 31 l 1
 100 31 l 1
 100 323 l 1
 47 362 l 1
 47 370 l 1
 155 415 l 1
 165 415 l 1
 165 318 l 1
 170 315 l 1
 210 370 250 413 295 413 c 0
 310 413 325 410 335 404 c 1
 305 330 l 1
 304 330 l 2
EndSplineSet
Fore
SplineSet
53 45 m 0
 53 74 76 97 105 97 c 0
 134 97 157 74 157 45 c 0
 157 16 134 -7 105 -7 c 0
 76 -7 53 16 53 45 c 0
EndSplineSet
Substitution2: "'ital' Italics in Latin lookup 2-1" r.ital
Substitution2: "'smcp' Lowercase to Small Capitals in Latin lookup 8-1" r.smcp
EndChar

StartChar: s
Encoding: 115 115 84
Width: 270
Flags: HMW
LayerCount: 3
Back
SplineSet
292 396 m 1
 262 338 l 1
 260 338 l 1
 240 353 211 367 185 367 c 0
 160 367 140 347 140 322 c 0
 140 264 261 198 261 120 c 0
 261 45 196 -13 118 -13 c 0
 85 -13 53 -6 35 11 c 1
 65 70 l 1
 67 70 l 1
 92 49 124 35 156 35 c 0
 182 35 204 56 204 82 c 0
 204 146 86 207 86 290 c 0
 86 350 145 413 220 413 c 0
 252 413 278 407 292 396 c 1
-28 393 m 1
 -58 335 l 1
 -60 335 l 1
 -80 350 -109 367 -135 367 c 0
 -160 367 -180 347 -180 322 c 0
 -180 264 -79 198 -79 120 c 0
 -79 45 -144 -13 -222 -13 c 0
 -255 -13 -287 -3 -305 14 c 1
 -275 73 l 1
 -273 73 l 1
 -248 52 -216 35 -184 35 c 0
 -158 35 -136 56 -136 82 c 0
 -136 146 -234 207 -234 290 c 0
 -234 350 -175 413 -100 413 c 0
 -68 413 -42 404 -28 393 c 1
173 501 m 1
 174 500 l 1
 173 499 l 1
 172 500 l 1
 173 501 l 1
EndSplineSet
Fore
SplineSet
305 396 m 1
 275 338 l 1
 273 338 l 1
 251 353 220 367 192 367 c 0
 165 367 143 347 143 322 c 0
 143 264 274 198 274 120 c 0
 274 45 205 -13 119 -13 c 0
 83 -13 51 -5 32 11 c 1
 62 70 l 1
 64 70 l 1
 91 49 125 35 160 35 c 0
 188 35 212 56 212 82 c 0
 212 146 85 207 85 290 c 0
 85 352 149 413 230 413 c 0
 265 413 290 406 305 396 c 1
EndSplineSet
Layer: 2
SplineSet
-335 402 m 1
 -363 342 l 1
 -365 342 l 1
 -387 355 -419 371 -446 369 c 0
 -472 367 -492 345 -490 320 c 0
 -486 262 -374 204 -368 126 c 0
 -362 51 -427 -10 -509 -16 c 0
 -544 -18 -577 -10 -597 5 c 1
 -571 66 l 1
 -569 66 l 1
 -541 47 -507 32 -473 34 c 0
 -446 36 -424 58 -426 84 c 0
 -431 148 -539 202 -545 285 c 0
 -549 345 -492 411 -413 417 c 0
 -379 419 -351 412 -335 402 c 1
-25 398 m 1
 -53 339 l 1
 -55 339 l 1
 -77 352 -109 368 -136 366 c 0
 -162 364 -182 342 -180 318 c 0
 -176 261 -64 203 -58 127 c 0
 -52 53 -117 -6 -199 -12 c 0
 -234 -14 -267 -6 -287 9 c 1
 -261 69 l 1
 -259 69 l 1
 -231 50 -197 35 -163 37 c 0
 -136 39 -114 61 -116 86 c 0
 -121 149 -229 202 -235 283 c 0
 -239 342 -182 407 -103 413 c 0
 -69 415 -41 408 -25 398 c 1
EndSplineSet
Substitution2: "'ss04' Style Set 4 lookup 14-1" longs
Substitution2: "'ital' Italics in Latin lookup 2-1" s.ital
Substitution2: "'smcp' Lowercase to Small Capitals in Latin lookup 8-1" s.smcp
Substitution2: "'hist' Historical Forms in Latin lookup 7-1" longs
EndChar

StartChar: u
Encoding: 117 117 85
Width: 210
Flags: HMW
LayerCount: 3
Back
SplineSet
249 501 m 1
 250 500 l 1
 249 499 l 1
 248 500 l 1
 249 501 l 1
417 415 m 1
 417 48 l 1
 485 57 l 1
 485 27 l 1
 362 -10 l 1
 347 -10 l 1
 352 64 l 1
 347 65 l 1
 310 20 252 -12 197 -12 c 0
 132 -12 87 25 87 110 c 2
 87 331 l 1
 37 371 l 1
 37 379 l 1
 147 414 l 1
 157 414 l 1
 157 130 l 2
 157 70 187 40 237 40 c 0
 274 40 317 62 347 100 c 1
 347 331 l 1
 277 367 l 1
 277 375 l 1
 407 415 l 1
 417 415 l 1
EndSplineSet
Fore
SplineSet
53 45 m 0
 53 74 76 97 105 97 c 0
 134 97 157 74 157 45 c 0
 157 16 134 -7 105 -7 c 0
 76 -7 53 16 53 45 c 0
EndSplineSet
Substitution2: "'ital' Italics in Latin lookup 2-1" u.ital
Substitution2: "'smcp' Lowercase to Small Capitals in Latin lookup 8-1" u.smcp
EndChar

StartChar: v
Encoding: 118 118 86
Width: 355
Flags: HMW
LayerCount: 3
Back
SplineSet
-398 369 m 1
 -291 95 l 1
 -289 95 l 1
 -190 328 l 1
 -181 369 l 1
 -238 369 l 1
 -238 400 l 1
 -91 400 l 1
 -91 369 l 1
 -130 369 l 1
 -300 -16 l 1
 -320 -16 l 1
 -475 369 l 1
 -515 369 l 1
 -515 400 l 1
 -345 400 l 1
 -345 369 l 1
 -398 369 l 1
EndSplineSet
Fore
SplineSet
175 368 m 1
 175 155 l 1
 173 100 l 1
 175 99 l 1
 340 320 l 1
 375 395 l 1
 445 405 l 1
 450 400 l 1
 130 -17 l 1
 110 -17 l 1
 110 368 l 1
 55 368 l 1
 55 400 l 1
 240 400 l 1
 240 368 l 1
 175 368 l 1
EndSplineSet
Layer: 2
SplineSet
135 368 m 1
 135 95 l 1
 137 95 l 1
 317 320 l 1
 350 395 l 1
 425 405 l 1
 430 400 l 1
 90 -17 l 1
 70 -17 l 1
 70 368 l 1
 15 368 l 1
 15 400 l 1
 205 400 l 1
 205 368 l 1
 135 368 l 1
EndSplineSet
Substitution2: "'ital' Italics in Latin lookup 2-1" v.ital
Substitution2: "'smcp' Lowercase to Small Capitals in Latin lookup 8-1" v.smcp
EndChar

StartChar: w
Encoding: 119 119 87
Width: 210
Flags: HMW
LayerCount: 3
Back
SplineSet
270 369 m 1
 122 369 l 1
 227 91 l 1
 229 91 l 1
 310 270 l 1
 270 369 l 1
5 400 m 1
 395 400 l 1
 395 369 l 1
 347 369 l 1
 448 99 l 1
 450 99 l 1
 541 329 l 1
 550 369 l 1
 497 369 l 1
 497 400 l 1
 637 400 l 1
 637 369 l 1
 600 369 l 1
 440 -16 l 1
 420 -16 l 1
 329 223 l 1
 326 223 l 1
 215 -16 l 1
 195 -16 l 1
 45 369 l 1
 5 369 l 1
 5 400 l 1
EndSplineSet
Fore
SplineSet
53 45 m 0
 53 74 76 97 105 97 c 0
 134 97 157 74 157 45 c 0
 157 16 134 -7 105 -7 c 0
 76 -7 53 16 53 45 c 0
EndSplineSet
Substitution2: "'ss02' Style Set 2 lookup 20-1" w.alt
Substitution2: "'ital' Italics in Latin lookup 2-1" w.ital
Substitution2: "'smcp' Lowercase to Small Capitals in Latin lookup 8-1" w.smcp
Substitution2: "'salt' Stylistic Alternatives in Latin lookup 2-1" w.alt
EndChar

StartChar: x
Encoding: 120 120 88
Width: 210
Flags: HMW
LayerCount: 3
Back
SplineSet
181 196 m 1
 52 369 l 1
 12 369 l 1
 12 400 l 1
 180 400 l 1
 180 369 l 1
 139 369 l 1
 229 247 l 1
 232 247 l 1
 313 344 l 1
 323 369 l 1
 278 369 l 1
 278 400 l 1
 425 400 l 1
 425 369 l 1
 382 369 l 1
 253 217 l 1
 393 31 l 1
 437 31 l 1
 437 0 l 1
 262 0 l 1
 262 31 l 1
 305 31 l 1
 206 164 l 1
 202 164 l 1
 113 58 l 1
 103 31 l 1
 153 31 l 1
 153 0 l 1
 2 0 l 1
 2 31 l 1
 43 31 l 1
 181 196 l 1
EndSplineSet
Fore
SplineSet
53 45 m 0
 53 74 76 97 105 97 c 0
 134 97 157 74 157 45 c 0
 157 16 134 -7 105 -7 c 0
 76 -7 53 16 53 45 c 0
EndSplineSet
Substitution2: "'ital' Italics in Latin lookup 2-1" x.ital
Substitution2: "'smcp' Lowercase to Small Capitals in Latin lookup 8-1" x.smcp
EndChar

StartChar: y
Encoding: 121 121 89
Width: 210
Flags: HMW
LayerCount: 3
Back
SplineSet
223 501 m 1
 224 500 l 1
 223 499 l 1
 222 500 l 1
 223 501 l 1
150 -175 m 2
 120 -243 85 -275 50 -275 c 1
 27 -210 l 1
 27 -208 l 1
 84 -202 113 -180 134 -132 c 2
 195 10 l 1
 50 369 l 1
 8 369 l 1
 8 400 l 1
 180 400 l 1
 180 369 l 1
 125 369 l 1
 232 100 l 1
 234 100 l 1
 330 328 l 1
 339 369 l 1
 282 369 l 1
 282 400 l 1
 432 400 l 1
 432 369 l 1
 390 369 l 1
 150 -175 l 2
EndSplineSet
Fore
SplineSet
53 45 m 0
 53 74 76 97 105 97 c 0
 134 97 157 74 157 45 c 0
 157 16 134 -7 105 -7 c 0
 76 -7 53 16 53 45 c 0
EndSplineSet
Substitution2: "'ital' Italics in Latin lookup 2-1" y.ital
Substitution2: "'smcp' Lowercase to Small Capitals in Latin lookup 8-1" y.smcp
EndChar

StartChar: z
Encoding: 122 122 90
Width: 440
Flags: HMW
LayerCount: 3
Back
SplineSet
63 426 m 1
 90 426 l 1
 90 400 l 1
 369 400 l 1
 369 370 l 1
 125 34 l 1
 280 34 l 2
 320 34 339 50 355 119 c 2
 360 140 l 1
 387 140 l 1
 360 0 l 1
 35 0 l 1
 35 30 l 1
 280 367 l 1
 135 367 l 2
 97 367 85 360 74 305 c 2
 70 285 l 1
 43 285 l 1
 63 426 l 1
EndSplineSet
Fore
SplineSet
425 420 m 1
 450 395 l 1
 151 96 l 1
 152 94 l 1
 160 95 l 1
 215 95 295 40 360 40 c 0
 393 40 412 57 412 80 c 0
 412 98 402 115 385 130 c 1
 385 132 l 1
 435 180 l 1
 453 165 465 142 465 120 c 0
 465 45 395 -15 310 -15 c 0
 235 -15 176 36 121 36 c 0
 101 36 82 27 50 -5 c 2
 45 -10 l 1
 20 15 l 1
 330 325 l 1
 265 340 200 353 160 353 c 0
 135 353 122 337 122 320 c 0
 122 305 130 292 145 280 c 1
 145 278 l 1
 95 240 l 1
 85 252 80 270 80 289 c 0
 80 356 137 410 200 410 c 0
 260 410 330 387 365 387 c 0
 386 387 397 392 422 417 c 2
 425 420 l 1
EndSplineSet
Layer: 2
SplineSet
430 420 m 1
 455 395 l 1
 156 96 l 1
 157 94 l 1
 165 95 l 1
 220 95 330 40 395 40 c 0
 428 40 447 57 447 80 c 0
 447 98 437 115 420 130 c 1
 420 132 l 1
 470 180 l 1
 488 165 500 142 500 120 c 0
 500 45 430 -15 345 -15 c 0
 270 -15 181 36 126 36 c 0
 106 36 87 27 55 -5 c 2
 50 -10 l 1
 25 15 l 1
 335 325 l 1
 270 340 205 353 165 353 c 0
 140 353 127 337 127 320 c 0
 127 305 135 292 150 280 c 1
 150 278 l 1
 100 240 l 1
 90 252 85 270 85 289 c 0
 85 356 142 410 205 410 c 0
 265 410 335 387 370 387 c 0
 391 387 402 392 427 417 c 2
 430 420 l 1
EndSplineSet
Substitution2: "'ital' Italics in Latin lookup 2-1" z.ital
Substitution2: "'smcp' Lowercase to Small Capitals in Latin lookup 8-1" z.smcp
EndChar

StartChar: braceleft
Encoding: 123 123 91
Width: 210
Flags: HMW
LayerCount: 3
Back
SplineSet
143 242 m 1
 142 238 l 1
 195 225 208 185 198 130 c 2
 163 -67 l 2
 152 -127 171 -162 236 -162 c 2
 251 -162 l 1
 246 -195 l 1
 221 -195 l 2
 126 -195 88 -135 103 -50 c 2
 137 140 l 2
 147 195 133 225 65 225 c 1
 70 255 l 1
 138 255 162 285 172 340 c 2
 205 530 l 2
 220 615 279 675 374 675 c 2
 399 675 l 1
 393 642 l 1
 378 642 l 2
 313 642 282 607 271 547 c 2
 237 350 l 2
 227 295 200 255 143 242 c 1
EndSplineSet
Fore
SplineSet
53 45 m 0
 53 74 76 97 105 97 c 0
 134 97 157 74 157 45 c 0
 157 16 134 -7 105 -7 c 0
 76 -7 53 16 53 45 c 0
EndSplineSet
Layer: 2
SplineSet
103 240 m 0
 103 65 165 -85 270 -188 c 1
 250 -205 l 1
 122 -105 37 55 37 240 c 0
 37 425 122 585 250 685 c 1
 270 668 l 1
 165 565 103 415 103 240 c 0
EndSplineSet
EndChar

StartChar: bar
Encoding: 124 124 92
Width: 210
Flags: HMW
LayerCount: 3
Back
SplineSet
69 640 m 1
 111 640 l 1
 111 -200 l 1
 69 -200 l 1
 69 640 l 1
EndSplineSet
Fore
SplineSet
53 45 m 0
 53 74 76 97 105 97 c 0
 134 97 157 74 157 45 c 0
 157 16 134 -7 105 -7 c 0
 76 -7 53 16 53 45 c 0
EndSplineSet
EndChar

StartChar: braceright
Encoding: 125 125 93
Width: 210
Flags: HMW
LayerCount: 3
Back
SplineSet
242 238 m 1
 243 242 l 1
 190 255 177 295 187 350 c 2
 221 547 l 2
 232 607 213 642 148 642 c 2
 133 642 l 1
 139 675 l 1
 164 675 l 2
 259 675 296 615 281 530 c 2
 248 340 l 2
 238 285 252 255 320 255 c 1
 315 225 l 1
 247 225 223 195 213 140 c 2
 179 -50 l 2
 164 -135 106 -195 11 -195 c 2
 -14 -195 l 1
 -9 -162 l 1
 6 -162 l 2
 71 -162 102 -127 113 -67 c 2
 148 130 l 2
 158 185 185 225 242 238 c 1
EndSplineSet
Fore
SplineSet
53 45 m 0
 53 74 76 97 105 97 c 0
 134 97 157 74 157 45 c 0
 157 16 134 -7 105 -7 c 0
 76 -7 53 16 53 45 c 0
EndSplineSet
EndChar

StartChar: asciitilde
Encoding: 126 126 94
Width: 210
Flags: HMW
LayerCount: 3
Back
SplineSet
30 170 m 1
 45 242 95 277 145 277 c 0
 175 277 209 266 262 245 c 0
 304 228 332 220 355 220 c 0
 390 220 413 245 425 280 c 1
 450 270 l 1
 435 198 385 163 335 163 c 0
 305 163 271 174 218 195 c 0
 176 212 148 220 125 220 c 0
 90 220 67 195 55 160 c 1
 30 170 l 1
EndSplineSet
Fore
SplineSet
53 45 m 0
 53 74 76 97 105 97 c 0
 134 97 157 74 157 45 c 0
 157 16 134 -7 105 -7 c 0
 76 -7 53 16 53 45 c 0
EndSplineSet
EndChar

StartChar: exclamdown
Encoding: 161 161 95
Width: 210
Flags: HMW
LayerCount: 3
Back
SplineSet
161 -245 m 1
 79 -245 l 1
 105 225 l 1
 135 225 l 1
 161 -245 l 1
166 363 m 0
 166 338 145 317 120 317 c 0
 95 317 74 338 74 363 c 0
 74 388 95 409 120 409 c 0
 145 409 166 388 166 363 c 0
EndSplineSet
Fore
SplineSet
53 45 m 0
 53 74 76 97 105 97 c 0
 134 97 157 74 157 45 c 0
 157 16 134 -7 105 -7 c 0
 76 -7 53 16 53 45 c 0
EndSplineSet
EndChar

StartChar: cent
Encoding: 162 162 96
Width: 210
Flags: HMW
LayerCount: 3
Back
SplineSet
226 368 m 1
 165 364 118 312 118 215 c 0
 118 122 162 68 219 52 c 1
 226 368 l 1
266 363 m 1
 259 47 l 1
 306 48 343 69 371 107 c 1
 387 93 l 1
 360 41 314 2 258 -9 c 1
 255 -115 l 1
 215 -115 l 1
 217 -12 l 1
 121 -8 45 68 45 185 c 0
 45 298 130 391 227 409 c 1
 230 520 l 1
 270 520 l 1
 267 412 l 1
 308 411 354 397 382 375 c 1
 337 318 l 1
 335 318 l 1
 317 338 293 355 266 363 c 1
EndSplineSet
Fore
SplineSet
53 45 m 0
 53 74 76 97 105 97 c 0
 134 97 157 74 157 45 c 0
 157 16 134 -7 105 -7 c 0
 76 -7 53 16 53 45 c 0
EndSplineSet
Substitution2: "'tnum' Tabular Numbers in Latin lookup 3-1" cent.tnum
EndChar

StartChar: sterling
Encoding: 163 163 97
Width: 210
Flags: HMW
LayerCount: 3
Back
SplineSet
105 58 m 1
 106 56 l 1
 140 57 l 1
 355 57 l 2
 390 57 407 65 427 119 c 2
 431 130 l 1
 460 130 l 1
 425 0 l 1
 35 0 l 1
 35 35 l 1
 80 50 96 80 106 160 c 2
 125 310 l 1
 45 310 l 1
 45 349 l 1
 130 349 l 1
 135 390 l 2
 155 555 270 654 375 654 c 0
 398 654 427 647 445 635 c 1
 408 574 l 1
 406 574 l 1
 388 586 358 597 330 597 c 0
 272 597 231 564 212 425 c 2
 202 349 l 1
 375 349 l 1
 375 310 l 1
 197 310 l 1
 181 195 l 2
 173 135 150 85 105 58 c 1
EndSplineSet
Fore
SplineSet
53 45 m 0
 53 74 76 97 105 97 c 0
 134 97 157 74 157 45 c 0
 157 16 134 -7 105 -7 c 0
 76 -7 53 16 53 45 c 0
EndSplineSet
EndChar

StartChar: currency
Encoding: 164 164 98
Width: 210
Flags: HMW
LayerCount: 3
Back
SplineSet
137 420 m 1
 166 442 200 454 240 454 c 0
 280 454 315 442 344 420 c 1
 393 470 l 1
 425 438 l 1
 375 390 l 1
 397 361 409 325 409 285 c 0
 409 245 397 209 375 180 c 1
 425 132 l 1
 393 100 l 1
 344 150 l 1
 315 128 280 116 240 116 c 0
 200 116 165 128 136 150 c 1
 87 100 l 1
 55 132 l 1
 105 180 l 1
 84 209 71 244 71 285 c 0
 71 325 83 359 105 388 c 1
 55 438 l 1
 87 470 l 1
 137 420 l 1
120 285 m 0
 120 213 171 156 240 156 c 0
 313 156 360 212 360 285 c 0
 360 354 309 414 240 414 c 0
 167 414 120 358 120 285 c 0
EndSplineSet
Fore
SplineSet
53 45 m 0
 53 74 76 97 105 97 c 0
 134 97 157 74 157 45 c 0
 157 16 134 -7 105 -7 c 0
 76 -7 53 16 53 45 c 0
EndSplineSet
EndChar

StartChar: yen
Encoding: 165 165 99
Width: 210
Flags: HMW
LayerCount: 3
Back
SplineSet
146 608 m 1
 293 368 l 1
 297 368 l 1
 421 559 l 1
 442 608 l 1
 380 608 l 1
 380 640 l 1
 547 640 l 1
 547 608 l 1
 502 608 l 1
 328 343 l 1
 316 326 l 1
 316 325 l 1
 476 325 l 1
 476 290 l 1
 313 290 l 1
 313 205 l 1
 476 205 l 1
 476 170 l 1
 313 170 l 1
 313 32 l 1
 390 32 l 1
 390 0 l 1
 160 0 l 1
 160 32 l 1
 237 32 l 1
 237 170 l 1
 77 170 l 1
 77 205 l 1
 237 205 l 1
 237 290 l 1
 77 290 l 1
 77 325 l 1
 231 325 l 1
 231 326 l 1
 219 344 l 1
 55 608 l 1
 10 608 l 1
 10 640 l 1
 205 640 l 1
 205 608 l 1
 146 608 l 1
EndSplineSet
Fore
SplineSet
53 45 m 0
 53 74 76 97 105 97 c 0
 134 97 157 74 157 45 c 0
 157 16 134 -7 105 -7 c 0
 76 -7 53 16 53 45 c 0
EndSplineSet
Substitution2: "'tnum' Tabular Numbers in Latin lookup 3-1" yen.tnum
EndChar

StartChar: brokenbar
Encoding: 166 166 100
Width: 210
Flags: HMW
LayerCount: 3
Back
SplineSet
69 170 m 1
 111 170 l 1
 111 -200 l 1
 69 -200 l 1
 69 170 l 1
69 640 m 1
 111 640 l 1
 111 270 l 1
 69 270 l 1
 69 640 l 1
EndSplineSet
Fore
SplineSet
53 45 m 0
 53 74 76 97 105 97 c 0
 134 97 157 74 157 45 c 0
 157 16 134 -7 105 -7 c 0
 76 -7 53 16 53 45 c 0
EndSplineSet
Layer: 2
SplineSet
69 640 m 1
 111 640 l 1
 111 -200 l 1
 69 -200 l 1
 69 640 l 1
EndSplineSet
EndChar

StartChar: section
Encoding: 167 167 101
Width: 505
Flags: HMW
LayerCount: 3
Back
SplineSet
295 305 m 0
 400 200 454 120 454 -3 c 0
 454 -128 345 -240 225 -240 c 0
 168 -240 110 -220 65 -185 c 1
 113 -129 l 1
 115 -129 l 1
 145 -160 190 -192 245 -192 c 0
 305 -192 345 -147 345 -97 c 0
 345 -21 290 25 210 105 c 0
 105 210 51 290 51 413 c 0
 51 538 160 650 280 650 c 0
 337 650 395 630 440 595 c 1
 392 539 l 1
 390 539 l 1
 360 570 315 602 260 602 c 0
 200 602 160 557 160 507 c 0
 160 431 215 385 295 305 c 0
260 275 m 0
 176 355 118 415 118 505 c 1
 115 505 l 1
 102 475 94 445 94 415 c 0
 94 308 150 225 245 135 c 0
 329 55 387 -5 387 -95 c 1
 390 -95 l 1
 403 -65 411 -35 411 -5 c 0
 411 102 355 185 260 275 c 0
EndSplineSet
Fore
SplineSet
295 305 m 0
 400 200 454 120 454 -3 c 0
 454 -128 345 -240 225 -240 c 0
 168 -240 110 -220 65 -185 c 1
 113 -129 l 1
 115 -129 l 1
 145 -160 190 -192 245 -192 c 0
 305 -192 345 -147 345 -97 c 0
 345 -21 290 25 210 105 c 0
 105 210 51 290 51 413 c 0
 51 538 160 650 280 650 c 0
 337 650 395 630 440 595 c 1
 392 539 l 1
 390 539 l 1
 360 570 315 602 260 602 c 0
 200 602 160 557 160 507 c 0
 160 431 215 385 295 305 c 0
260 275 m 0
 176 355 118 415 118 505 c 1
 115 505 l 1
 102 475 94 445 94 415 c 0
 94 308 150 225 245 135 c 0
 329 55 387 -5 387 -95 c 1
 390 -95 l 1
 403 -65 411 -35 411 -5 c 0
 411 102 355 185 260 275 c 0
EndSplineSet
EndChar

StartChar: dieresis
Encoding: 168 168 102
Width: 210
Flags: HMW
LayerCount: 3
Back
SplineSet
5 560 m 0
 5 583 24 602 47 602 c 0
 70 602 89 583 89 560 c 0
 89 537 70 518 47 518 c 0
 24 518 5 537 5 560 c 0
166 560 m 0
 166 583 185 602 208 602 c 0
 231 602 250 583 250 560 c 0
 250 537 231 518 208 518 c 0
 185 518 166 537 166 560 c 0
EndSplineSet
Fore
SplineSet
53 45 m 0
 53 74 76 97 105 97 c 0
 134 97 157 74 157 45 c 0
 157 16 134 -7 105 -7 c 0
 76 -7 53 16 53 45 c 0
EndSplineSet
EndChar

StartChar: copyright
Encoding: 169 169 103
Width: 210
Flags: HMW
LayerCount: 3
Back
SplineSet
30 320 m 0
 30 502 178 650 360 650 c 0
 542 650 690 502 690 320 c 0
 690 138 542 -10 360 -10 c 0
 178 -10 30 138 30 320 c 0
66 320 m 0
 66 158 198 26 360 26 c 0
 522 26 654 158 654 320 c 0
 654 482 522 614 360 614 c 0
 198 614 66 482 66 320 c 0
505 225 m 2
 515 252 l 1
 541 252 l 1
 505 132 l 1
 470 110 425 101 375 101 c 0
 250 101 140 183 140 317 c 0
 140 452 255 539 375 539 c 0
 425 539 473 528 510 507 c 1
 524 395 l 1
 498 395 l 1
 493 419 l 2
 488 442 478 461 465 474 c 0
 446 493 413 509 372 509 c 0
 275 509 205 438 205 330 c 0
 205 212 285 134 383 134 c 0
 455 134 484 169 505 225 c 2
EndSplineSet
Fore
SplineSet
53 45 m 0
 53 74 76 97 105 97 c 0
 134 97 157 74 157 45 c 0
 157 16 134 -7 105 -7 c 0
 76 -7 53 16 53 45 c 0
EndSplineSet
EndChar

StartChar: ordfeminine
Encoding: 170 170 104
Width: 210
Flags: HMW
LayerCount: 3
Back
SplineSet
166 447 m 1
 166 500 l 1
 134 490 l 2
 97 478 86 462 86 442 c 0
 86 424 100 413 117 413 c 0
 132 413 150 422 166 447 c 1
135 650 m 0
 185 650 220 620 220 575 c 2
 220 430 l 2
 220 417 227 410 237 410 c 0
 250 410 259 417 265 430 c 1
 278 420 l 1
 266 392 245 371 218 371 c 0
 190 371 167 388 167 417 c 1
 168 421 l 1
 166 422 l 1
 145 390 117 371 87 371 c 0
 57 371 30 393 30 428 c 0
 30 460 45 487 128 513 c 2
 166 525 l 1
 166 568 l 2
 166 604 142 619 115 619 c 0
 109 619 100 617 95 614 c 1
 93 585 l 1
 40 572 l 1
 40 573 l 2
 40 605 82 650 135 650 c 0
EndSplineSet
Fore
SplineSet
53 45 m 0
 53 74 76 97 105 97 c 0
 134 97 157 74 157 45 c 0
 157 16 134 -7 105 -7 c 0
 76 -7 53 16 53 45 c 0
EndSplineSet
EndChar

StartChar: guillemotleft
Encoding: 171 171 105
Width: 210
Flags: HMW
LayerCount: 3
Back
SplineSet
30 207 m 1
 30 213 l 1
 200 385 l 1
 225 375 l 1
 115 212 l 1
 115 210 l 1
 225 45 l 1
 200 35 l 1
 30 207 l 1
210 207 m 1
 210 213 l 1
 380 385 l 1
 405 375 l 1
 295 212 l 1
 295 210 l 1
 405 45 l 1
 380 35 l 1
 210 207 l 1
EndSplineSet
Fore
SplineSet
53 45 m 0
 53 74 76 97 105 97 c 0
 134 97 157 74 157 45 c 0
 157 16 134 -7 105 -7 c 0
 76 -7 53 16 53 45 c 0
EndSplineSet
EndChar

StartChar: logicalnot
Encoding: 172 172 106
Width: 210
Flags: HMW
LayerCount: 3
Back
SplineSet
440 305 m 1
 440 90 l 1
 394 90 l 1
 394 259 l 1
 30 259 l 1
 30 305 l 1
 440 305 l 1
EndSplineSet
Fore
SplineSet
53 45 m 0
 53 74 76 97 105 97 c 0
 134 97 157 74 157 45 c 0
 157 16 134 -7 105 -7 c 0
 76 -7 53 16 53 45 c 0
EndSplineSet
EndChar

StartChar: uni00AD
Encoding: 173 173 107
Width: 210
Flags: HMW
LayerCount: 3
Back
SplineSet
25 234 m 1
 220 234 l 1
 220 176 l 1
 25 176 l 1
 25 234 l 1
EndSplineSet
Fore
SplineSet
53 45 m 0
 53 74 76 97 105 97 c 0
 134 97 157 74 157 45 c 0
 157 16 134 -7 105 -7 c 0
 76 -7 53 16 53 45 c 0
EndSplineSet
EndChar

StartChar: registered
Encoding: 174 174 108
Width: 210
Flags: HMW
LayerCount: 3
Back
SplineSet
30 320 m 0
 30 502 178 650 360 650 c 0
 542 650 690 502 690 320 c 0
 690 138 542 -10 360 -10 c 0
 178 -10 30 138 30 320 c 0
66 320 m 0
 66 158 198 26 360 26 c 0
 522 26 654 158 654 320 c 0
 654 482 522 614 360 614 c 0
 198 614 66 482 66 320 c 0
296 298 m 1
 296 147 l 1
 347 147 l 1
 347 120 l 1
 190 120 l 1
 190 147 l 1
 240 147 l 1
 240 503 l 1
 188 503 l 1
 188 530 l 1
 330 530 l 2
 425 530 484 487 484 419 c 0
 484 368 450 330 405 312 c 1
 405 310 l 1
 453 235 l 2
 504 155 530 145 565 145 c 2
 570 145 l 1
 570 129 l 1
 559 121 540 116 525 116 c 0
 480 116 443 142 390 233 c 2
 352 298 l 1
 296 298 l 1
312 504 m 2
 302 504 296 496 296 486 c 2
 296 326 l 1
 303 325 317 324 325 324 c 0
 390 324 426 359 426 414 c 0
 426 469 389 504 325 504 c 2
 312 504 l 2
EndSplineSet
Fore
SplineSet
53 45 m 0
 53 74 76 97 105 97 c 0
 134 97 157 74 157 45 c 0
 157 16 134 -7 105 -7 c 0
 76 -7 53 16 53 45 c 0
EndSplineSet
EndChar

StartChar: macron
Encoding: 175 175 109
Width: 210
Flags: HMW
LayerCount: 3
Back
SplineSet
20 577 m 1
 235 577 l 1
 235 535 l 1
 20 535 l 1
 20 577 l 1
EndSplineSet
Fore
SplineSet
53 45 m 0
 53 74 76 97 105 97 c 0
 134 97 157 74 157 45 c 0
 157 16 134 -7 105 -7 c 0
 76 -7 53 16 53 45 c 0
EndSplineSet
EndChar

StartChar: degree
Encoding: 176 176 110
Width: 210
Flags: HMW
LayerCount: 3
Back
SplineSet
25 550 m 0
 25 605 70 650 125 650 c 0
 180 650 225 605 225 550 c 0
 225 495 180 450 125 450 c 0
 70 450 25 495 25 550 c 0
55 550 m 0
 55 511 86 480 125 480 c 0
 164 480 195 511 195 550 c 0
 195 589 164 620 125 620 c 0
 86 620 55 589 55 550 c 0
EndSplineSet
Fore
SplineSet
53 45 m 0
 53 74 76 97 105 97 c 0
 134 97 157 74 157 45 c 0
 157 16 134 -7 105 -7 c 0
 76 -7 53 16 53 45 c 0
EndSplineSet
EndChar

StartChar: plusminus
Encoding: 177 177 111
Width: 210
Flags: HMW
LayerCount: 3
Back
SplineSet
217 293 m 1
 217 405 l 1
 263 405 l 1
 263 293 l 1
 445 293 l 1
 445 247 l 1
 263 247 l 1
 263 130 l 1
 217 130 l 1
 217 247 l 1
 35 247 l 1
 35 293 l 1
 217 293 l 1
30 39 m 1
 30 85 l 1
 450 85 l 1
 450 39 l 1
 30 39 l 1
EndSplineSet
Fore
SplineSet
53 45 m 0
 53 74 76 97 105 97 c 0
 134 97 157 74 157 45 c 0
 157 16 134 -7 105 -7 c 0
 76 -7 53 16 53 45 c 0
EndSplineSet
EndChar

StartChar: uni00B2
Encoding: 178 178 112
Width: 210
Flags: HMW
LayerCount: 3
Back
SplineSet
285 360 m 1
 20 360 l 1
 20 390 l 1
 150 495 182 535 182 597 c 0
 182 635 157 660 124 660 c 0
 95 660 72 643 57 623 c 1
 40 640 l 1
 63 680 102 712 150 712 c 0
 207 712 250 670 250 612 c 0
 250 557 220 515 127 440 c 2
 86 407 l 1
 87 404 l 1
 115 405 l 1
 240 405 l 2
 258 405 266 413 271 438 c 2
 274 453 l 1
 302 453 l 1
 285 360 l 1
EndSplineSet
Fore
SplineSet
53 45 m 0
 53 74 76 97 105 97 c 0
 134 97 157 74 157 45 c 0
 157 16 134 -7 105 -7 c 0
 76 -7 53 16 53 45 c 0
EndSplineSet
EndChar

StartChar: uni00B3
Encoding: 179 179 113
Width: 210
Flags: HMW
LayerCount: 3
Back
SplineSet
95 520 m 1
 87 543 l 1
 150 568 180 593 180 628 c 0
 180 648 165 668 135 668 c 0
 112 668 93 658 74 639 c 1
 60 658 l 1
 88 693 125 713 165 713 c 0
 210 713 242 683 242 650 c 0
 242 615 219 588 185 569 c 1
 185 566 l 1
 242 560 273 523 273 478 c 0
 273 418 210 348 100 348 c 0
 75 348 45 353 25 363 c 1
 25 364 l 1
 60 408 l 1
 77 392 100 383 125 383 c 0
 180 383 210 418 210 463 c 0
 210 505 178 530 140 530 c 0
 125 530 107 525 95 520 c 1
EndSplineSet
Fore
SplineSet
53 45 m 0
 53 74 76 97 105 97 c 0
 134 97 157 74 157 45 c 0
 157 16 134 -7 105 -7 c 0
 76 -7 53 16 53 45 c 0
EndSplineSet
EndChar

StartChar: acute
Encoding: 180 180 114
Width: 210
Flags: HMW
LayerCount: 3
Back
SplineSet
145 670 m 1
 210 647 l 1
 210 642 l 1
 77 477 l 1
 55 490 l 1
 145 670 l 1
EndSplineSet
Fore
SplineSet
53 45 m 0
 53 74 76 97 105 97 c 0
 134 97 157 74 157 45 c 0
 157 16 134 -7 105 -7 c 0
 76 -7 53 16 53 45 c 0
EndSplineSet
EndChar

StartChar: mu
Encoding: 181 181 115
Width: 210
Flags: HMW
LayerCount: 3
Back
SplineSet
420 415 m 1
 420 48 l 1
 488 57 l 1
 488 27 l 1
 365 -10 l 1
 350 -10 l 1
 355 64 l 1
 350 65 l 1
 313 20 255 -12 200 -12 c 0
 169 -12 145 0 129 21 c 1
 125 21 l 1
 133 -215 l 1
 57 -215 l 1
 70 -93 90 95 90 125 c 2
 90 331 l 1
 41 371 l 1
 41 379 l 1
 150 414 l 1
 160 414 l 1
 160 130 l 2
 160 70 190 40 240 40 c 0
 277 40 320 62 350 100 c 1
 350 332 l 1
 280 367 l 1
 280 375 l 1
 410 415 l 1
 420 415 l 1
EndSplineSet
Fore
SplineSet
53 45 m 0
 53 74 76 97 105 97 c 0
 134 97 157 74 157 45 c 0
 157 16 134 -7 105 -7 c 0
 76 -7 53 16 53 45 c 0
EndSplineSet
EndChar

StartChar: paragraph
Encoding: 182 182 116
Width: 480
Flags: HMW
LayerCount: 3
Back
SplineSet
290 220 m 2
 140 220 40 305 40 430 c 0
 40 555 140 640 290 640 c 2
 455 640 l 1
 455 605 l 1
 380 605 l 1
 380 -55 l 2
 380 -165 321 -220 245 -220 c 0
 170 -220 125 -172 125 -125 c 0
 125 -90 150 -65 180 -65 c 0
 210 -65 235 -90 235 -120 c 0
 235 -142 220 -163 200 -170 c 1
 200 -172 l 1
 212 -180 228 -185 245 -185 c 0
 300 -185 335 -147 335 -58 c 2
 335 220 l 1
 290 220 l 2
335 605 m 1
 305 605 l 2
 210 605 155 535 155 430 c 0
 155 325 210 255 305 255 c 2
 335 255 l 1
 335 605 l 1
EndSplineSet
Fore
SplineSet
290 220 m 2
 140 220 40 305 40 430 c 0
 40 555 140 640 290 640 c 2
 455 640 l 1
 455 605 l 1
 380 605 l 1
 380 -55 l 2
 380 -165 321 -220 245 -220 c 0
 170 -220 125 -172 125 -125 c 0
 125 -90 150 -65 180 -65 c 0
 210 -65 235 -90 235 -120 c 0
 235 -142 220 -163 200 -170 c 1
 200 -172 l 1
 212 -180 228 -185 245 -185 c 0
 300 -185 335 -147 335 -58 c 2
 335 220 l 1
 290 220 l 2
335 605 m 1
 305 605 l 2
 210 605 155 535 155 430 c 0
 155 325 210 255 305 255 c 2
 335 255 l 1
 335 605 l 1
EndSplineSet
EndChar

StartChar: cedilla
Encoding: 184 184 117
Width: 255
Flags: HMW
LayerCount: 3
Back
SplineSet
140 11 m 1
 141 10 l 1
 140 9 l 1
 139 10 l 1
 140 11 l 1
162 23 m 1
 129 -50 l 1
 130 -52 l 1
 173 -57 205 -85 205 -122 c 0
 205 -185 142 -216 60 -216 c 2
 50 -216 l 1
 51 -191 l 1
 110 -191 151 -172 151 -135 c 0
 151 -109 125 -90 82 -90 c 2
 80 -90 l 1
 80 -84 l 1
 128 23 l 1
 162 23 l 1
EndSplineSet
Fore
SplineSet
162 23 m 1
 129 -50 l 1
 130 -52 l 1
 173 -57 205 -85 205 -122 c 0
 205 -185 142 -216 60 -216 c 2
 50 -216 l 1
 51 -191 l 1
 110 -191 151 -172 151 -135 c 0
 151 -109 125 -90 82 -90 c 2
 80 -90 l 1
 80 -84 l 1
 128 23 l 1
 162 23 l 1
EndSplineSet
EndChar

StartChar: uni00B9
Encoding: 185 185 118
Width: 210
Flags: HMW
LayerCount: 3
Back
SplineSet
65 680 m 1
 185 715 l 1
 195 715 l 1
 195 392 l 1
 265 392 l 1
 265 360 l 1
 63 360 l 1
 63 392 l 1
 135 392 l 1
 135 659 l 1
 65 652 l 1
 65 680 l 1
EndSplineSet
Fore
SplineSet
53 45 m 0
 53 74 76 97 105 97 c 0
 134 97 157 74 157 45 c 0
 157 16 134 -7 105 -7 c 0
 76 -7 53 16 53 45 c 0
EndSplineSet
EndChar

StartChar: ordmasculine
Encoding: 186 186 119
Width: 210
Flags: HMW
LayerCount: 3
Back
SplineSet
20 510 m 0
 20 588 85 650 160 650 c 0
 235 650 300 588 300 510 c 0
 300 432 235 370 160 370 c 0
 85 370 20 432 20 510 c 0
85 516 m 0
 85 450 120 400 166 400 c 0
 209 400 235 448 235 504 c 0
 235 570 200 620 154 620 c 0
 111 620 85 572 85 516 c 0
EndSplineSet
Fore
SplineSet
53 45 m 0
 53 74 76 97 105 97 c 0
 134 97 157 74 157 45 c 0
 157 16 134 -7 105 -7 c 0
 76 -7 53 16 53 45 c 0
EndSplineSet
EndChar

StartChar: guillemotright
Encoding: 187 187 120
Width: 210
Flags: HMW
LayerCount: 3
Back
SplineSet
220 213 m 1
 220 207 l 1
 50 35 l 1
 25 45 l 1
 135 208 l 1
 135 210 l 1
 25 375 l 1
 50 385 l 1
 220 213 l 1
400 213 m 1
 400 207 l 1
 230 35 l 1
 205 45 l 1
 315 208 l 1
 315 210 l 1
 205 375 l 1
 230 385 l 1
 400 213 l 1
EndSplineSet
Fore
SplineSet
53 45 m 0
 53 74 76 97 105 97 c 0
 134 97 157 74 157 45 c 0
 157 16 134 -7 105 -7 c 0
 76 -7 53 16 53 45 c 0
EndSplineSet
EndChar

StartChar: onequarter
Encoding: 188 188 121
Width: 210
Flags: HMW
LayerCount: 3
Back
SplineSet
75 620 m 1
 195 655 l 1
 205 655 l 1
 205 332 l 1
 275 332 l 1
 275 300 l 1
 73 300 l 1
 73 332 l 1
 145 332 l 1
 145 599 l 1
 75 592 l 1
 75 620 l 1
617 665 m 1
 665 665 l 1
 183 -25 l 1
 135 -25 l 1
 617 665 l 1
595 0 m 1
 595 95 l 1
 435 95 l 1
 435 125 l 1
 627 360 l 1
 650 360 l 1
 650 140 l 1
 720 140 l 1
 720 95 l 1
 650 95 l 1
 650 0 l 1
 595 0 l 1
595 140 m 1
 595 267 l 1
 593 267 l 1
 490 142 l 1
 490 140 l 1
 595 140 l 1
EndSplineSet
Fore
SplineSet
53 45 m 0
 53 74 76 97 105 97 c 0
 134 97 157 74 157 45 c 0
 157 16 134 -7 105 -7 c 0
 76 -7 53 16 53 45 c 0
EndSplineSet
EndChar

StartChar: onehalf
Encoding: 189 189 122
Width: 210
Flags: HMW
LayerCount: 3
Back
SplineSet
715 0 m 1
 455 0 l 1
 455 30 l 1
 585 135 617 175 617 237 c 0
 617 275 592 300 559 300 c 0
 530 300 507 283 492 263 c 1
 475 280 l 1
 498 320 537 352 585 352 c 0
 642 352 685 310 685 252 c 0
 685 197 655 155 562 80 c 2
 521 47 l 1
 522 44 l 1
 550 45 l 1
 670 45 l 2
 688 45 696 53 701 78 c 2
 704 93 l 1
 732 93 l 1
 715 0 l 1
75 620 m 1
 195 655 l 1
 205 655 l 1
 205 332 l 1
 275 332 l 1
 275 300 l 1
 73 300 l 1
 73 332 l 1
 145 332 l 1
 145 599 l 1
 75 592 l 1
 75 620 l 1
617 665 m 1
 665 665 l 1
 183 -25 l 1
 135 -25 l 1
 617 665 l 1
EndSplineSet
Fore
SplineSet
53 45 m 0
 53 74 76 97 105 97 c 0
 134 97 157 74 157 45 c 0
 157 16 134 -7 105 -7 c 0
 76 -7 53 16 53 45 c 0
EndSplineSet
EndChar

StartChar: threequarters
Encoding: 190 190 123
Width: 210
Flags: HMW
LayerCount: 3
Back
SplineSet
115 460 m 1
 107 483 l 1
 170 508 200 533 200 568 c 0
 200 588 185 608 155 608 c 0
 132 608 113 598 94 579 c 1
 80 598 l 1
 108 633 145 653 185 653 c 0
 230 653 262 623 262 590 c 0
 262 555 239 528 205 509 c 1
 205 506 l 1
 262 500 293 463 293 418 c 0
 293 358 230 288 120 288 c 0
 95 288 65 293 45 303 c 1
 45 304 l 1
 80 348 l 1
 97 332 120 323 145 323 c 0
 200 323 230 358 230 403 c 0
 230 445 198 470 160 470 c 0
 145 470 127 465 115 460 c 1
617 665 m 1
 665 665 l 1
 183 -25 l 1
 135 -25 l 1
 617 665 l 1
595 0 m 1
 595 95 l 1
 435 95 l 1
 435 125 l 1
 627 360 l 1
 650 360 l 1
 650 140 l 1
 720 140 l 1
 720 95 l 1
 650 95 l 1
 650 0 l 1
 595 0 l 1
595 140 m 1
 595 267 l 1
 593 267 l 1
 490 142 l 1
 490 140 l 1
 595 140 l 1
EndSplineSet
Fore
SplineSet
53 45 m 0
 53 74 76 97 105 97 c 0
 134 97 157 74 157 45 c 0
 157 16 134 -7 105 -7 c 0
 76 -7 53 16 53 45 c 0
EndSplineSet
EndChar

StartChar: questiondown
Encoding: 191 191 124
Width: 210
Flags: HMW
LayerCount: 3
Back
SplineSet
261 363 m 0
 261 338 240 317 215 317 c 0
 190 317 169 338 169 363 c 0
 169 388 190 409 215 409 c 0
 240 409 261 388 261 363 c 0
68 -37 m 0
 68 -115 140 -148 235 -150 c 1
 235 -263 l 1
 207 -263 l 1
 207 -259 l 2
 207 -232 194 -232 154 -212 c 0
 78 -175 33 -120 33 -35 c 0
 33 47 76 104 150 140 c 0
 190 160 200 165 200 195 c 2
 200 225 l 1
 230 225 l 1
 230 80 l 1
 140 77 68 45 68 -37 c 0
EndSplineSet
Fore
SplineSet
53 45 m 0
 53 74 76 97 105 97 c 0
 134 97 157 74 157 45 c 0
 157 16 134 -7 105 -7 c 0
 76 -7 53 16 53 45 c 0
EndSplineSet
EndChar

StartChar: Agrave
Encoding: 192 192 125
Width: 600
Flags: HMW
LayerCount: 3
Back
Refer: 398 -1 N 1 0 0 1 170 0 2
Refer: 42 65 N 1 0 0 1 0 0 3
Fore
SplineSet
53 45 m 0
 53 74 76 97 105 97 c 0
 134 97 157 74 157 45 c 0
 157 16 134 -7 105 -7 c 0
 76 -7 53 16 53 45 c 0
EndSplineSet
Substitution2: "'salt' Stylistic Alternatives in Latin lookup 2-1" Agrave.alt
Substitution2: "'ss01' Style Set 1 in Latin lookup 10-1" Agrave.alt
EndChar

StartChar: Aacute
Encoding: 193 193 126
Width: 600
Flags: HMW
LayerCount: 3
Back
Refer: 401 -1 N 1 0 0 1 230 0 2
Refer: 42 65 N 1 0 0 1 0 0 3
Fore
SplineSet
53 45 m 0
 53 74 76 97 105 97 c 0
 134 97 157 74 157 45 c 0
 157 16 134 -7 105 -7 c 0
 76 -7 53 16 53 45 c 0
EndSplineSet
Substitution2: "'salt' Stylistic Alternatives in Latin lookup 2-1" Aacute.alt
EndChar

StartChar: Acircumflex
Encoding: 194 194 127
Width: 600
Flags: HMW
LayerCount: 3
Back
Refer: 403 -1 N 1 0 0 1 200 0 2
Refer: 42 65 N 1 0 0 1 0 0 3
Fore
SplineSet
53 45 m 0
 53 74 76 97 105 97 c 0
 134 97 157 74 157 45 c 0
 157 16 134 -7 105 -7 c 0
 76 -7 53 16 53 45 c 0
EndSplineSet
Substitution2: "'salt' Stylistic Alternatives in Latin lookup 2-1" Acircumflex.alt
Substitution2: "'ss01' Style Set 1 in Latin lookup 10-1" Acircumflex.alt
EndChar

StartChar: Atilde
Encoding: 195 195 128
Width: 600
Flags: HMW
LayerCount: 3
Back
Refer: 409 -1 N 1 0 0 1 200 0 2
Refer: 42 65 N 1 0 0 1 0 0 3
Fore
SplineSet
53 45 m 0
 53 74 76 97 105 97 c 0
 134 97 157 74 157 45 c 0
 157 16 134 -7 105 -7 c 0
 76 -7 53 16 53 45 c 0
EndSplineSet
Substitution2: "'salt' Stylistic Alternatives in Latin lookup 2-1" Atilde.alt
Substitution2: "'ss01' Style Set 1 in Latin lookup 10-1" Atilde.alt
EndChar

StartChar: Adieresis
Encoding: 196 196 129
Width: 600
Flags: HMW
LayerCount: 3
Back
Refer: 399 -1 N 1 0 0 1 200 0 2
Refer: 42 65 N 1 0 0 1 0 0 3
Fore
SplineSet
53 45 m 0
 53 74 76 97 105 97 c 0
 134 97 157 74 157 45 c 0
 157 16 134 -7 105 -7 c 0
 76 -7 53 16 53 45 c 0
EndSplineSet
Substitution2: "'salt' Stylistic Alternatives in Latin lookup 2-1" Adieresis.alt
Substitution2: "'ss01' Style Set 1 in Latin lookup 10-1" Adieresis.alt
EndChar

StartChar: Aring
Encoding: 197 197 130
Width: 600
Flags: HMW
LayerCount: 3
Back
Refer: 407 -1 N 1 0 0 1 200 0 2
Refer: 42 65 N 1 0 0 1 0 0 3
Fore
SplineSet
53 45 m 0
 53 74 76 97 105 97 c 0
 134 97 157 74 157 45 c 0
 157 16 134 -7 105 -7 c 0
 76 -7 53 16 53 45 c 0
EndSplineSet
Substitution2: "'salt' Stylistic Alternatives in Latin lookup 2-1" Aring.alt
Substitution2: "'ss01' Style Set 1 in Latin lookup 10-1" Aring.alt
EndChar

StartChar: AE
Encoding: 198 198 131
Width: 210
Flags: HMW
LayerCount: 3
Back
SplineSet
384 605 m 1
 227 322 l 1
 385 322 l 1
 385 545 l 1
 387 605 l 1
 384 605 l 1
282 640 m 1
 750 640 l 1
 755 490 l 1
 726 490 l 1
 722 524 l 2
 714 590 692 604 650 604 c 2
 465 604 l 1
 465 322 l 1
 660 322 l 1
 660 390 l 1
 690 390 l 1
 690 305 l 1
 690 210 l 1
 660 210 l 1
 660 285 l 1
 465 285 l 1
 465 68 l 2
 465 48 475 38 495 38 c 2
 650 38 l 2
 710 38 738 62 762 147 c 2
 770 175 l 1
 800 175 l 1
 765 0 l 1
 315 0 l 1
 315 31 l 1
 385 31 l 1
 385 285 l 1
 206 285 l 1
 92 80 l 1
 74 31 l 1
 145 31 l 1
 145 0 l 1
 -20 0 l 1
 -20 31 l 1
 18 31 l 1
 344 609 l 1
 282 609 l 1
 282 640 l 1
EndSplineSet
Fore
SplineSet
53 45 m 0
 53 74 76 97 105 97 c 0
 134 97 157 74 157 45 c 0
 157 16 134 -7 105 -7 c 0
 76 -7 53 16 53 45 c 0
EndSplineSet
Layer: 2
SplineSet
491 604 m 1
 284 322 l 1
 442 322 l 1
 481 545 l 1
 494 604 l 1
 491 604 l 1
394 640 m 1
 863 640 l 1
 841 490 l 1
 812 490 l 1
 814 524 l 2
 818 590 799 604 757 604 c 2
 572 604 l 1
 522 322 l 1
 717 322 l 1
 729 390 l 1
 759 390 l 1
 744 305 l 1
 727 210 l 1
 697 210 l 1
 710 285 l 1
 515 285 l 1
 477 68 l 2
 473 48 482 38 502 38 c 2
 657 38 l 2
 717 38 749 62 788 147 c 2
 801 175 l 1
 831 175 l 1
 765 0 l 1
 313 0 l 1
 319 32 l 1
 391 32 l 1
 435 285 l 1
 256 285 l 1
 106 81 l 1
 80 32 l 1
 151 32 l 1
 145 0 l 1
 -21 0 l 1
 -15 32 l 1
 24 32 l 1
 451 608 l 1
 388 608 l 1
 394 640 l 1
EndSplineSet
Substitution2: "'ital' Italics in Latin lookup 2-1" AE.ital
Substitution2: "'c2sc' Capitals to Small Capitals in Latin lookup 9-1" ae.smcp
EndChar

StartChar: Ccedilla
Encoding: 199 199 132
Width: 210
Flags: HMW
LayerCount: 3
Back
SplineSet
590 138 m 2
 610 185 l 1
 640 185 l 1
 589 30 l 1
 536 3 464 -12 400 -14 c 1
 384 -50 l 1
 385 -52 l 1
 430 -58 464 -85 464 -126 c 0
 464 -193 395 -224 311 -224 c 2
 301 -224 l 1
 302 -198 l 1
 363 -198 407 -179 407 -138 c 0
 407 -111 379 -92 335 -92 c 2
 333 -92 l 1
 333 -86 l 1
 365 -13 l 1
 172 -2 40 133 40 320 c 0
 40 515 203 654 390 654 c 0
 460 654 537 637 593 607 c 1
 615 460 l 1
 585 460 l 1
 578 490 l 2
 571 520 557 548 540 565 c 0
 510 595 457 618 382 618 c 0
 245 618 134 505 134 335 c 0
 134 152 240 25 395 25 c 0
 510 25 562 72 590 138 c 2
EndSplineSet
Fore
SplineSet
53 45 m 0
 53 74 76 97 105 97 c 0
 134 97 157 74 157 45 c 0
 157 16 134 -7 105 -7 c 0
 76 -7 53 16 53 45 c 0
EndSplineSet
EndChar

StartChar: Egrave
Encoding: 200 200 133
Width: 520
Flags: HMW
LayerCount: 3
Back
Refer: 398 -1 N 1 0 0 1 128 0 2
Refer: 46 69 N 1 0 0 1 0 0 3
Fore
SplineSet
53 45 m 0
 53 74 76 97 105 97 c 0
 134 97 157 74 157 45 c 0
 157 16 134 -7 105 -7 c 0
 76 -7 53 16 53 45 c 0
EndSplineSet
EndChar

StartChar: Eacute
Encoding: 201 201 134
Width: 520
Flags: HMW
LayerCount: 3
Back
Refer: 401 -1 N 1 0 0 1 188 0 2
Refer: 46 69 N 1 0 0 1 0 0 3
Fore
SplineSet
53 45 m 0
 53 74 76 97 105 97 c 0
 134 97 157 74 157 45 c 0
 157 16 134 -7 105 -7 c 0
 76 -7 53 16 53 45 c 0
EndSplineSet
EndChar

StartChar: Ecircumflex
Encoding: 202 202 135
Width: 520
Flags: HMW
LayerCount: 3
Back
Refer: 403 -1 N 1 0 0 1 158 0 2
Refer: 46 69 N 1 0 0 1 0 0 3
Fore
SplineSet
53 45 m 0
 53 74 76 97 105 97 c 0
 134 97 157 74 157 45 c 0
 157 16 134 -7 105 -7 c 0
 76 -7 53 16 53 45 c 0
EndSplineSet
EndChar

StartChar: Edieresis
Encoding: 203 203 136
Width: 520
Flags: HMW
LayerCount: 3
Back
Refer: 399 -1 N 1 0 0 1 158 0 2
Refer: 46 69 N 1 0 0 1 0 0 3
Fore
SplineSet
53 45 m 0
 53 74 76 97 105 97 c 0
 134 97 157 74 157 45 c 0
 157 16 134 -7 105 -7 c 0
 76 -7 53 16 53 45 c 0
EndSplineSet
EndChar

StartChar: Igrave
Encoding: 204 204 137
Width: 280
Flags: HMW
LayerCount: 3
Back
Refer: 398 -1 N 1 0 0 1 3 0 2
Refer: 50 73 N 1 0 0 1 0 0 3
Fore
SplineSet
53 45 m 0
 53 74 76 97 105 97 c 0
 134 97 157 74 157 45 c 0
 157 16 134 -7 105 -7 c 0
 76 -7 53 16 53 45 c 0
EndSplineSet
EndChar

StartChar: Iacute
Encoding: 205 205 138
Width: 280
Flags: HMW
LayerCount: 3
Back
Refer: 401 -1 N 1 0 0 1 63 0 2
Refer: 50 73 N 1 0 0 1 0 0 3
Fore
SplineSet
53 45 m 0
 53 74 76 97 105 97 c 0
 134 97 157 74 157 45 c 0
 157 16 134 -7 105 -7 c 0
 76 -7 53 16 53 45 c 0
EndSplineSet
EndChar

StartChar: Icircumflex
Encoding: 206 206 139
Width: 280
Flags: HMW
LayerCount: 3
Back
SplineSet
148 867 m 1
 173 867 l 1
 279 719 l 1
 263 702 l 1
 162 794 l 1
 159 794 l 1
 58 702 l 1
 42 719 l 1
 148 867 l 1
EndSplineSet
Refer: 50 73 N 1 0 0 1 0 0 3
Fore
SplineSet
53 45 m 0
 53 74 76 97 105 97 c 0
 134 97 157 74 157 45 c 0
 157 16 134 -7 105 -7 c 0
 76 -7 53 16 53 45 c 0
EndSplineSet
EndChar

StartChar: Idieresis
Encoding: 207 207 140
Width: 280
Flags: HMW
LayerCount: 3
Back
SplineSet
39 775 m 0
 39 799 59 819 83 819 c 0
 107 819 127 799 127 775 c 0
 127 751 107 731 83 731 c 0
 59 731 39 751 39 775 c 0
193 775 m 0
 193 799 213 819 237 819 c 0
 261 819 281 799 281 775 c 0
 281 751 261 731 237 731 c 0
 213 731 193 751 193 775 c 0
EndSplineSet
Refer: 50 73 N 1 0 0 1 0 0 3
Fore
SplineSet
53 45 m 0
 53 74 76 97 105 97 c 0
 134 97 157 74 157 45 c 0
 157 16 134 -7 105 -7 c 0
 76 -7 53 16 53 45 c 0
EndSplineSet
EndChar

StartChar: Eth
Encoding: 208 208 141
Width: 210
Flags: HMW
LayerCount: 3
Back
SplineSet
320 642 m 17
 527 642 694 530 694 332 c 0
 694 140 550 0 330 0 c 2
 45 0 l 1
 45 31 l 1
 120 31 l 1
 120 315 l 1
 52 315 l 1
 52 350 l 1
 120 350 l 1
 120 609 l 1
 45 609 l 1
 45 640 l 1
 320 642 l 17
310 605 m 2
 200 605 l 1
 200 350 l 1
 330 350 l 1
 330 315 l 1
 200 315 l 1
 200 80 l 2
 200 52 215 38 245 38 c 2
 327 38 l 2
 499 38 602 150 602 320 c 0
 602 505 484 605 310 605 c 2
EndSplineSet
Fore
SplineSet
53 45 m 0
 53 74 76 97 105 97 c 0
 134 97 157 74 157 45 c 0
 157 16 134 -7 105 -7 c 0
 76 -7 53 16 53 45 c 0
EndSplineSet
Layer: 2
SplineSet
433 642 m 17
 640 642 788 530 753 332 c 0
 719 140 550 0 330 0 c 2
 43 0 l 1
 49 32 l 1
 126 32 l 1
 176 315 l 1
 108 315 l 1
 114 350 l 1
 182 350 l 1
 227 608 l 1
 150 608 l 1
 156 640 l 1
 433 642 l 17
417 605 m 2
 307 605 l 1
 262 350 l 1
 392 350 l 1
 386 315 l 1
 256 315 l 1
 214 80 l 2
 209 52 222 38 252 38 c 2
 334 38 l 2
 506 38 628 150 658 320 c 0
 691 505 591 605 417 605 c 2
EndSplineSet
Substitution2: "'ital' Italics in Latin lookup 2-1" Eth.ital
Substitution2: "'c2sc' Capitals to Small Capitals in Latin lookup 9-1" eth.smcp
EndChar

StartChar: Ntilde
Encoding: 209 209 142
Width: 210
Flags: HMW
LayerCount: 3
Back
Refer: 409 -1 N 1 0 0 1 250 0 2
Refer: 55 78 N 1 0 0 1 0 0 3
Fore
SplineSet
53 45 m 0
 53 74 76 97 105 97 c 0
 134 97 157 74 157 45 c 0
 157 16 134 -7 105 -7 c 0
 76 -7 53 16 53 45 c 0
EndSplineSet
EndChar

StartChar: Ograve
Encoding: 210 210 143
Width: 210
Flags: HMW
LayerCount: 3
Back
Refer: 398 -1 N 1 0 0 1 217 0 2
Refer: 56 79 N 1 0 0 1 0 0 3
Fore
SplineSet
53 45 m 0
 53 74 76 97 105 97 c 0
 134 97 157 74 157 45 c 0
 157 16 134 -7 105 -7 c 0
 76 -7 53 16 53 45 c 0
EndSplineSet
EndChar

StartChar: Oacute
Encoding: 211 211 144
Width: 210
Flags: HMW
LayerCount: 3
Back
Refer: 401 -1 N 1 0 0 1 277 0 2
Refer: 56 79 N 1 0 0 1 0 0 3
Fore
SplineSet
53 45 m 0
 53 74 76 97 105 97 c 0
 134 97 157 74 157 45 c 0
 157 16 134 -7 105 -7 c 0
 76 -7 53 16 53 45 c 0
EndSplineSet
EndChar

StartChar: Ocircumflex
Encoding: 212 212 145
Width: 210
Flags: HMW
LayerCount: 3
Back
Refer: 403 -1 N 1 0 0 1 247 0 2
Refer: 56 79 N 1 0 0 1 0 0 3
Fore
SplineSet
53 45 m 0
 53 74 76 97 105 97 c 0
 134 97 157 74 157 45 c 0
 157 16 134 -7 105 -7 c 0
 76 -7 53 16 53 45 c 0
EndSplineSet
EndChar

StartChar: Otilde
Encoding: 213 213 146
Width: 210
Flags: HMW
LayerCount: 3
Back
Refer: 409 -1 N 1 0 0 1 247 0 2
Refer: 56 79 N 1 0 0 1 0 0 3
Fore
SplineSet
53 45 m 0
 53 74 76 97 105 97 c 0
 134 97 157 74 157 45 c 0
 157 16 134 -7 105 -7 c 0
 76 -7 53 16 53 45 c 0
EndSplineSet
EndChar

StartChar: Odieresis
Encoding: 214 214 147
Width: 210
Flags: HMW
LayerCount: 3
Back
Refer: 399 -1 N 1 0 0 1 247 0 2
Refer: 56 79 N 1 0 0 1 0 0 3
Fore
SplineSet
53 45 m 0
 53 74 76 97 105 97 c 0
 134 97 157 74 157 45 c 0
 157 16 134 -7 105 -7 c 0
 76 -7 53 16 53 45 c 0
EndSplineSet
EndChar

StartChar: multiply
Encoding: 215 215 148
Width: 210
Flags: HMW
LayerCount: 3
Back
SplineSet
240 252 m 1
 390 402 l 1
 422 370 l 1
 272 220 l 1
 422 70 l 1
 390 38 l 1
 240 188 l 1
 90 38 l 1
 58 70 l 1
 208 220 l 1
 58 370 l 1
 90 402 l 1
 240 252 l 1
EndSplineSet
Fore
SplineSet
53 45 m 0
 53 74 76 97 105 97 c 0
 134 97 157 74 157 45 c 0
 157 16 134 -7 105 -7 c 0
 76 -7 53 16 53 45 c 0
EndSplineSet
EndChar

StartChar: Oslash
Encoding: 216 216 149
Width: 210
Flags: HMW
LayerCount: 3
Back
SplineSet
543 531 m 1
 498 586 437 618 365 618 c 0
 230 618 134 497 134 335 c 0
 134 257 153 192 184 140 c 1
 186 140 l 1
 543 531 l 1
566 501 m 1
 564 501 l 1
 207 109 l 1
 252 55 313 23 385 23 c 0
 520 23 616 143 616 305 c 0
 616 383 597 449 566 501 c 1
655 654 m 1
 682 630 l 1
 613 555 l 1
 673 495 710 413 710 320 c 0
 710 133 562 -14 375 -14 c 0
 294 -14 221 13 163 60 c 1
 162 60 l 1
 95 -14 l 1
 68 10 l 1
 136 84 l 1
 136 85 l 1
 77 145 40 227 40 320 c 0
 40 507 188 654 375 654 c 0
 456 654 529 627 587 579 c 1
 655 654 l 1
EndSplineSet
Fore
SplineSet
53 45 m 0
 53 74 76 97 105 97 c 0
 134 97 157 74 157 45 c 0
 157 16 134 -7 105 -7 c 0
 76 -7 53 16 53 45 c 0
EndSplineSet
Substitution2: "'ital' Italics in Latin lookup 2-1" Oslash.ital
Substitution2: "'c2sc' Capitals to Small Capitals in Latin lookup 9-1" oslash.smcp
EndChar

StartChar: Ugrave
Encoding: 217 217 150
Width: 210
Flags: HMW
LayerCount: 3
Back
Refer: 398 -1 N 1 0 0 1 218 0 2
Refer: 62 85 N 1 0 0 1 0 0 3
Fore
SplineSet
53 45 m 0
 53 74 76 97 105 97 c 0
 134 97 157 74 157 45 c 0
 157 16 134 -7 105 -7 c 0
 76 -7 53 16 53 45 c 0
EndSplineSet
EndChar

StartChar: Uacute
Encoding: 218 218 151
Width: 210
Flags: HMW
LayerCount: 3
Back
Refer: 401 -1 N 1 0 0 1 278 0 2
Refer: 62 85 N 1 0 0 1 0 0 3
Fore
SplineSet
53 45 m 0
 53 74 76 97 105 97 c 0
 134 97 157 74 157 45 c 0
 157 16 134 -7 105 -7 c 0
 76 -7 53 16 53 45 c 0
EndSplineSet
EndChar

StartChar: Ucircumflex
Encoding: 219 219 152
Width: 210
Flags: HMW
LayerCount: 3
Back
Refer: 403 -1 N 1 0 0 1 248 0 2
Refer: 62 85 N 1 0 0 1 0 0 3
Fore
SplineSet
53 45 m 0
 53 74 76 97 105 97 c 0
 134 97 157 74 157 45 c 0
 157 16 134 -7 105 -7 c 0
 76 -7 53 16 53 45 c 0
EndSplineSet
EndChar

StartChar: Udieresis
Encoding: 220 220 153
Width: 210
Flags: HMW
LayerCount: 3
Back
Refer: 399 -1 N 1 0 0 1 248 0 2
Refer: 62 85 N 1 0 0 1 0 0 3
Fore
SplineSet
53 45 m 0
 53 74 76 97 105 97 c 0
 134 97 157 74 157 45 c 0
 157 16 134 -7 105 -7 c 0
 76 -7 53 16 53 45 c 0
EndSplineSet
EndChar

StartChar: Yacute
Encoding: 221 221 154
Width: 210
Flags: HMW
LayerCount: 3
Back
Refer: 401 -1 N 1 0 0 1 208 0 2
Refer: 66 89 N 1 0 0 1 0 0 3
Fore
SplineSet
53 45 m 0
 53 74 76 97 105 97 c 0
 134 97 157 74 157 45 c 0
 157 16 134 -7 105 -7 c 0
 76 -7 53 16 53 45 c 0
EndSplineSet
EndChar

StartChar: Thorn
Encoding: 222 222 155
Width: 210
Flags: HMW
LayerCount: 3
Back
SplineSet
35 609 m 1
 35 640 l 1
 265 640 l 1
 265 609 l 1
 190 609 l 1
 190 520 l 1
 250 520 l 2
 390 520 494 455 494 345 c 0
 494 210 373 143 238 143 c 0
 233 143 225 144 220 145 c 1
 220 177 l 1
 240 177 l 2
 335 177 405 230 405 330 c 0
 405 430 345 485 240 485 c 2
 215 485 l 2
 197 485 190 478 190 460 c 2
 190 31 l 1
 268 31 l 1
 268 0 l 1
 35 0 l 1
 35 31 l 1
 110 31 l 1
 110 609 l 1
 35 609 l 1
EndSplineSet
Fore
SplineSet
53 45 m 0
 53 74 76 97 105 97 c 0
 134 97 157 74 157 45 c 0
 157 16 134 -7 105 -7 c 0
 76 -7 53 16 53 45 c 0
EndSplineSet
Layer: 2
SplineSet
140 608 m 1
 146 640 l 1
 380 640 l 1
 374 608 l 1
 297 608 l 1
 282 520 l 1
 342 520 l 2
 482 520 574 455 555 345 c 0
 531 210 398 143 263 143 c 0
 258 143 251 144 246 145 c 1
 251 177 l 1
 271 177 l 2
 366 177 445 230 463 330 c 0
 481 430 431 485 326 485 c 2
 301 485 l 2
 283 485 274 478 271 460 c 2
 196 32 l 1
 276 32 l 1
 270 0 l 1
 33 0 l 1
 39 32 l 1
 116 32 l 1
 217 608 l 1
 140 608 l 1
EndSplineSet
Substitution2: "'ital' Italics in Latin lookup 2-1" Thorn.ital
Substitution2: "'c2sc' Capitals to Small Capitals in Latin lookup 9-1" thorn.smcp
EndChar

StartChar: germandbls
Encoding: 223 223 156
Width: 210
Flags: HMW
LayerCount: 3
Back
SplineSet
390 560 m 0
 390 610 353 650 295 650 c 0
 225 650 170 604 170 480 c 2
 170 32 l 1
 215 32 l 1
 215 0 l 1
 40 0 l 1
 40 32 l 1
 100 32 l 1
 100 357 l 1
 43 357 l 1
 43 378 l 1
 100 404 l 1
 100 435 l 2
 100 595 215 695 315 695 c 0
 390 695 455 645 455 575 c 0
 455 515 420 480 370 435 c 0
 335 404 315 385 315 355 c 0
 315 322 344 300 400 255 c 0
 472 198 497 165 497 115 c 0
 497 43 435 -13 355 -13 c 0
 320 -13 282 -3 257 14 c 1
 247 105 l 1
 276 105 l 1
 278 93 l 2
 286 45 317 20 365 20 c 0
 407 20 432 48 432 85 c 0
 432 120 412 145 340 200 c 0
 278 247 250 280 250 325 c 0
 250 370 281 392 340 450 c 0
 375 485 390 518 390 560 c 0
EndSplineSet
Fore
SplineSet
53 45 m 0
 53 74 76 97 105 97 c 0
 134 97 157 74 157 45 c 0
 157 16 134 -7 105 -7 c 0
 76 -7 53 16 53 45 c 0
EndSplineSet
Substitution2: "'ital' Italics in Latin lookup 2-1" germandbls.ital
EndChar

StartChar: agrave
Encoding: 224 224 157
Width: 445
Flags: HMW
LayerCount: 3
Back
Refer: 73 96 N 1 0 0 1 45 0 2
Refer: 6 97 N 1 0 0 1 0 0 3
Fore
SplineSet
53 45 m 0
 53 74 76 97 105 97 c 0
 134 97 157 74 157 45 c 0
 157 16 134 -7 105 -7 c 0
 76 -7 53 16 53 45 c 0
EndSplineSet
EndChar

StartChar: aacute
Encoding: 225 225 158
Width: 445
Flags: HMW
LayerCount: 3
Back
Refer: 114 180 N 1 0 0 1 95 0 2
Refer: 6 97 N 1 0 0 1 0 0 3
Fore
SplineSet
53 45 m 0
 53 74 76 97 105 97 c 0
 134 97 157 74 157 45 c 0
 157 16 134 -7 105 -7 c 0
 76 -7 53 16 53 45 c 0
EndSplineSet
EndChar

StartChar: acircumflex
Encoding: 226 226 159
Width: 445
Flags: HMW
LayerCount: 3
Back
Refer: 376 710 N 1 0 0 1 70 0 2
Refer: 6 97 N 1 0 0 1 0 0 3
Fore
SplineSet
53 45 m 0
 53 74 76 97 105 97 c 0
 134 97 157 74 157 45 c 0
 157 16 134 -7 105 -7 c 0
 76 -7 53 16 53 45 c 0
EndSplineSet
EndChar

StartChar: atilde
Encoding: 227 227 160
Width: 445
Flags: HMW
LayerCount: 3
Back
Refer: 369 732 N 1 0 0 1 70 0 2
Refer: 6 97 N 1 0 0 1 0 0 3
Fore
SplineSet
53 45 m 0
 53 74 76 97 105 97 c 0
 134 97 157 74 157 45 c 0
 157 16 134 -7 105 -7 c 0
 76 -7 53 16 53 45 c 0
EndSplineSet
EndChar

StartChar: adieresis
Encoding: 228 228 161
Width: 445
Flags: HMW
LayerCount: 3
Back
Refer: 102 168 N 1 0 0 1 70 0 2
Refer: 6 97 N 1 0 0 1 0 0 3
Fore
SplineSet
53 45 m 0
 53 74 76 97 105 97 c 0
 134 97 157 74 157 45 c 0
 157 16 134 -7 105 -7 c 0
 76 -7 53 16 53 45 c 0
EndSplineSet
EndChar

StartChar: aring
Encoding: 229 229 162
Width: 445
Flags: HMW
LayerCount: 3
Back
Refer: 371 730 N 1 0 0 1 72 0 2
Refer: 6 97 N 1 0 0 1 0 0 3
Fore
SplineSet
53 45 m 0
 53 74 76 97 105 97 c 0
 134 97 157 74 157 45 c 0
 157 16 134 -7 105 -7 c 0
 76 -7 53 16 53 45 c 0
EndSplineSet
EndChar

StartChar: ae
Encoding: 230 230 163
Width: 210
Flags: HMW
LayerCount: 3
Back
SplineSet
323 237 m 1
 499 280 l 1
 499 340 467 376 422 376 c 0
 362 376 327 320 323 237 c 1
258 110 m 1
 255 122 252 142 252 160 c 2
 252 190 l 1
 210 179 l 2
 127 157 107 130 107 95 c 0
 107 62 130 43 157 43 c 0
 189 43 227 64 258 110 c 1
271 88 m 1
 224 23 177 -10 122 -10 c 0
 77 -10 37 25 37 77 c 0
 37 127 66 168 191 203 c 2
 252 220 l 1
 252 290 l 2
 252 345 217 370 172 370 c 0
 162 370 142 367 132 362 c 1
 127 315 l 1
 52 293 l 1
 52 295 l 2
 52 345 122 412 202 412 c 0
 249 412 290 390 309 350 c 1
 312 350 l 1
 334 385 387 412 434 412 c 0
 519 412 575 357 575 275 c 2
 575 269 l 1
 322 207 l 1
 325 108 374 52 452 52 c 0
 502 52 536 70 559 100 c 1
 575 87 l 1
 545 30 492 -12 417 -12 c 0
 355 -12 302 27 274 88 c 1
 271 88 l 1
EndSplineSet
Fore
SplineSet
53 45 m 0
 53 74 76 97 105 97 c 0
 134 97 157 74 157 45 c 0
 157 16 134 -7 105 -7 c 0
 76 -7 53 16 53 45 c 0
EndSplineSet
Substitution2: "'ital' Italics in Latin lookup 2-1" ae.ital
Substitution2: "'smcp' Lowercase to Small Capitals in Latin lookup 8-1" ae.smcp
EndChar

StartChar: ccedilla
Encoding: 231 231 164
Width: 210
Flags: HMW
LayerCount: 3
Back
SplineSet
330 318 m 1
 305 345 270 368 230 368 c 0
 165 368 114 317 114 215 c 0
 114 108 177 50 255 50 c 0
 301 50 340 68 366 103 c 1
 382 89 l 1
 351 31 299 -8 231 -12 c 1
 214 -50 l 1
 215 -52 l 1
 258 -57 290 -85 290 -122 c 0
 290 -185 227 -216 145 -216 c 2
 135 -216 l 1
 136 -191 l 1
 195 -191 236 -172 236 -135 c 0
 236 -109 210 -90 167 -90 c 2
 165 -90 l 1
 165 -84 l 1
 198 -11 l 1
 109 0 40 76 40 185 c 0
 40 310 145 412 255 412 c 0
 298 412 347 398 377 375 c 1
 332 318 l 1
 330 318 l 1
EndSplineSet
Fore
SplineSet
53 45 m 0
 53 74 76 97 105 97 c 0
 134 97 157 74 157 45 c 0
 157 16 134 -7 105 -7 c 0
 76 -7 53 16 53 45 c 0
EndSplineSet
EndChar

StartChar: egrave
Encoding: 232 232 165
Width: 340
Flags: HMW
LayerCount: 3
Back
Refer: 73 96 N 1 0 0 1 70 0 2
Refer: 77 101 N 1 0 0 1 0 0 3
Fore
SplineSet
53 45 m 0
 53 74 76 97 105 97 c 0
 134 97 157 74 157 45 c 0
 157 16 134 -7 105 -7 c 0
 76 -7 53 16 53 45 c 0
EndSplineSet
EndChar

StartChar: eacute
Encoding: 233 233 166
Width: 340
Flags: HMW
LayerCount: 3
Back
Refer: 114 180 N 1 0 0 1 120 0 2
Refer: 77 101 N 1 0 0 1 0 0 3
Fore
SplineSet
53 45 m 0
 53 74 76 97 105 97 c 0
 134 97 157 74 157 45 c 0
 157 16 134 -7 105 -7 c 0
 76 -7 53 16 53 45 c 0
EndSplineSet
EndChar

StartChar: ecircumflex
Encoding: 234 234 167
Width: 340
Flags: HMW
LayerCount: 3
Back
Refer: 376 710 N 1 0 0 1 95 0 2
Refer: 77 101 N 1 0 0 1 0 0 3
Fore
SplineSet
53 45 m 0
 53 74 76 97 105 97 c 0
 134 97 157 74 157 45 c 0
 157 16 134 -7 105 -7 c 0
 76 -7 53 16 53 45 c 0
EndSplineSet
EndChar

StartChar: edieresis
Encoding: 235 235 168
Width: 340
Flags: HMW
LayerCount: 3
Back
Refer: 102 168 N 1 0 0 1 95 0 2
Refer: 77 101 N 1 0 0 1 0 0 3
Fore
SplineSet
53 45 m 0
 53 74 76 97 105 97 c 0
 134 97 157 74 157 45 c 0
 157 16 134 -7 105 -7 c 0
 76 -7 53 16 53 45 c 0
EndSplineSet
EndChar

StartChar: igrave
Encoding: 236 236 169
Width: 210
Flags: HMW
LayerCount: 3
Back
Refer: 73 96 N 1 0 0 1 -20 0 2
Refer: 259 305 N 1 0 0 1 0 0 3
Fore
SplineSet
53 45 m 0
 53 74 76 97 105 97 c 0
 134 97 157 74 157 45 c 0
 157 16 134 -7 105 -7 c 0
 76 -7 53 16 53 45 c 0
EndSplineSet
EndChar

StartChar: icircumflex
Encoding: 238 238 170
Width: 210
Flags: HMW
LayerCount: 3
Back
Refer: 376 710 N 1 0 0 1 5 0 2
Refer: 259 305 N 1 0 0 1 0 0 3
Fore
SplineSet
53 45 m 0
 53 74 76 97 105 97 c 0
 134 97 157 74 157 45 c 0
 157 16 134 -7 105 -7 c 0
 76 -7 53 16 53 45 c 0
EndSplineSet
EndChar

StartChar: idieresis
Encoding: 239 239 171
Width: 210
Flags: HMW
LayerCount: 3
Back
SplineSet
15 560 m 0
 15 583 34 602 57 602 c 0
 80 602 99 583 99 560 c 0
 99 537 80 518 57 518 c 0
 34 518 15 537 15 560 c 0
165 560 m 0
 165 583 184 602 207 602 c 0
 230 602 249 583 249 560 c 0
 249 537 230 518 207 518 c 0
 184 518 165 537 165 560 c 0
EndSplineSet
Refer: 259 305 N 1 0 0 1 0 0 3
Fore
SplineSet
53 45 m 0
 53 74 76 97 105 97 c 0
 134 97 157 74 157 45 c 0
 157 16 134 -7 105 -7 c 0
 76 -7 53 16 53 45 c 0
EndSplineSet
Layer: 2
SplineSet
15 560 m 0
 15 583 34 602 57 602 c 0
 80 602 99 583 99 560 c 0
 99 537 80 518 57 518 c 0
 34 518 15 537 15 560 c 0
165 560 m 0
 165 583 184 602 207 602 c 0
 230 602 249 583 249 560 c 0
 249 537 230 518 207 518 c 0
 184 518 165 537 165 560 c 0
EndSplineSet
EndChar

StartChar: eth
Encoding: 240 240 172
Width: 210
Flags: HMW
LayerCount: 3
Back
SplineSet
40 195 m 0
 40 315 127 410 247 410 c 0
 277 410 317 400 339 387 c 1
 342 390 l 1
 324 452 294 508 256 556 c 1
 147 502 l 1
 132 534 l 1
 233 583 l 1
 233 584 l 1
 192 628 145 663 92 690 c 1
 107 710 l 1
 172 686 231 650 281 606 c 1
 387 658 l 1
 402 627 l 1
 308 581 l 1
 308 580 l 1
 394 492 447 373 447 235 c 0
 447 82 355 -12 237 -12 c 0
 117 -12 40 75 40 195 c 0
370 210 m 0
 370 245 366 295 357 325 c 1
 332 352 287 370 244 370 c 0
 172 370 117 301 117 208 c 0
 117 95 170 25 249 25 c 0
 322 25 370 100 370 210 c 0
EndSplineSet
Fore
SplineSet
53 45 m 0
 53 74 76 97 105 97 c 0
 134 97 157 74 157 45 c 0
 157 16 134 -7 105 -7 c 0
 76 -7 53 16 53 45 c 0
EndSplineSet
Substitution2: "'ital' Italics in Latin lookup 2-1" eth.ital
Substitution2: "'smcp' Lowercase to Small Capitals in Latin lookup 8-1" eth.smcp
EndChar

StartChar: ntilde
Encoding: 241 241 173
Width: 485
Flags: HMW
LayerCount: 3
Back
Refer: 369 732 N 1 0 0 1 130 0 2
Refer: 1 110 N 1 0 0 1 0 0 3
Fore
SplineSet
53 45 m 0
 53 74 76 97 105 97 c 0
 134 97 157 74 157 45 c 0
 157 16 134 -7 105 -7 c 0
 76 -7 53 16 53 45 c 0
EndSplineSet
EndChar

StartChar: ograve
Encoding: 242 242 174
Width: 389
Flags: HMW
LayerCount: 3
Back
Refer: 73 96 N 1 0 0 1 95 0 2
Refer: 2 111 N 1 0 0 1 0 0 3
Fore
SplineSet
53 45 m 0
 53 74 76 97 105 97 c 0
 134 97 157 74 157 45 c 0
 157 16 134 -7 105 -7 c 0
 76 -7 53 16 53 45 c 0
EndSplineSet
EndChar

StartChar: oacute
Encoding: 243 243 175
Width: 389
Flags: HMW
LayerCount: 3
Back
Refer: 114 180 N 1 0 0 1 145 0 2
Refer: 2 111 N 1 0 0 1 0 0 3
Fore
SplineSet
53 45 m 0
 53 74 76 97 105 97 c 0
 134 97 157 74 157 45 c 0
 157 16 134 -7 105 -7 c 0
 76 -7 53 16 53 45 c 0
EndSplineSet
EndChar

StartChar: ocircumflex
Encoding: 244 244 176
Width: 389
Flags: HMW
LayerCount: 3
Back
Refer: 376 710 N 1 0 0 1 120 0 2
Refer: 2 111 N 1 0 0 1 0 0 3
Fore
SplineSet
53 45 m 0
 53 74 76 97 105 97 c 0
 134 97 157 74 157 45 c 0
 157 16 134 -7 105 -7 c 0
 76 -7 53 16 53 45 c 0
EndSplineSet
EndChar

StartChar: otilde
Encoding: 245 245 177
Width: 389
Flags: HMW
LayerCount: 3
Back
Refer: 369 732 N 1 0 0 1 120 0 2
Refer: 2 111 N 1 0 0 1 0 0 3
Fore
SplineSet
53 45 m 0
 53 74 76 97 105 97 c 0
 134 97 157 74 157 45 c 0
 157 16 134 -7 105 -7 c 0
 76 -7 53 16 53 45 c 0
EndSplineSet
EndChar

StartChar: odieresis
Encoding: 246 246 178
Width: 389
Flags: HMW
LayerCount: 3
Back
Refer: 102 168 N 1 0 0 1 120 0 2
Refer: 2 111 N 1 0 0 1 0 0 3
Fore
SplineSet
53 45 m 0
 53 74 76 97 105 97 c 0
 134 97 157 74 157 45 c 0
 157 16 134 -7 105 -7 c 0
 76 -7 53 16 53 45 c 0
EndSplineSet
EndChar

StartChar: divide
Encoding: 247 247 179
Width: 210
Flags: HMW
LayerCount: 3
Back
SplineSet
195 373 m 0
 195 398 215 418 240 418 c 0
 265 418 285 398 285 373 c 0
 285 348 265 328 240 328 c 0
 215 328 195 348 195 373 c 0
195 67 m 0
 195 92 215 112 240 112 c 0
 265 112 285 92 285 67 c 0
 285 42 265 22 240 22 c 0
 215 22 195 42 195 67 c 0
30 197 m 1
 30 243 l 1
 450 243 l 1
 450 197 l 1
 30 197 l 1
EndSplineSet
Fore
SplineSet
53 45 m 0
 53 74 76 97 105 97 c 0
 134 97 157 74 157 45 c 0
 157 16 134 -7 105 -7 c 0
 76 -7 53 16 53 45 c 0
EndSplineSet
EndChar

StartChar: oslash
Encoding: 248 248 180
Width: 210
Flags: HMW
LayerCount: 3
Back
SplineSet
157 76 m 1
 182 43 216 23 254 23 c 0
 328 23 376 92 376 190 c 0
 376 230 367 265 352 296 c 1
 351 296 l 1
 157 76 l 1
140 105 m 1
 141 105 l 1
 335 324 l 1
 335 325 l 1
 310 358 277 378 239 378 c 0
 164 378 116 308 116 210 c 0
 116 170 125 135 140 105 c 1
34 200 m 0
 34 318 128 412 246 412 c 0
 294 412 341 396 374 368 c 1
 432 434 l 1
 456 413 l 1
 397 347 l 1
 436 309 458 258 458 200 c 0
 458 82 364 -12 246 -12 c 0
 198 -12 153 4 117 31 c 1
 60 -34 l 1
 36 -13 l 1
 94 52 l 1
 56 90 34 142 34 200 c 0
EndSplineSet
Fore
SplineSet
53 45 m 0
 53 74 76 97 105 97 c 0
 134 97 157 74 157 45 c 0
 157 16 134 -7 105 -7 c 0
 76 -7 53 16 53 45 c 0
EndSplineSet
Substitution2: "'ital' Italics in Latin lookup 2-1" oslash.ital
Substitution2: "'smcp' Lowercase to Small Capitals in Latin lookup 8-1" oslash.smcp
EndChar

StartChar: ugrave
Encoding: 249 249 181
Width: 210
Flags: HMW
LayerCount: 3
Back
Refer: 73 96 N 1 0 0 1 97 0 2
Refer: 85 117 N 1 0 0 1 0 0 3
Fore
SplineSet
53 45 m 0
 53 74 76 97 105 97 c 0
 134 97 157 74 157 45 c 0
 157 16 134 -7 105 -7 c 0
 76 -7 53 16 53 45 c 0
EndSplineSet
EndChar

StartChar: uacute
Encoding: 250 250 182
Width: 210
Flags: HMW
LayerCount: 3
Back
Refer: 114 180 N 1 0 0 1 147 0 2
Refer: 85 117 N 1 0 0 1 0 0 3
Fore
SplineSet
53 45 m 0
 53 74 76 97 105 97 c 0
 134 97 157 74 157 45 c 0
 157 16 134 -7 105 -7 c 0
 76 -7 53 16 53 45 c 0
EndSplineSet
EndChar

StartChar: ucircumflex
Encoding: 251 251 183
Width: 210
Flags: HMW
LayerCount: 3
Back
Refer: 376 710 N 1 0 0 1 122 0 2
Refer: 85 117 N 1 0 0 1 0 0 3
Fore
SplineSet
53 45 m 0
 53 74 76 97 105 97 c 0
 134 97 157 74 157 45 c 0
 157 16 134 -7 105 -7 c 0
 76 -7 53 16 53 45 c 0
EndSplineSet
EndChar

StartChar: udieresis
Encoding: 252 252 184
Width: 210
Flags: HMW
LayerCount: 3
Back
Refer: 102 168 N 1 0 0 1 122 0 2
Refer: 85 117 N 1 0 0 1 0 0 3
Fore
SplineSet
53 45 m 0
 53 74 76 97 105 97 c 0
 134 97 157 74 157 45 c 0
 157 16 134 -7 105 -7 c 0
 76 -7 53 16 53 45 c 0
EndSplineSet
EndChar

StartChar: yacute
Encoding: 253 253 185
Width: 210
Flags: HMW
LayerCount: 3
Back
Refer: 114 180 N 1 0 0 1 121 0 2
Refer: 89 121 N 1 0 0 1 0 0 3
Fore
SplineSet
53 45 m 0
 53 74 76 97 105 97 c 0
 134 97 157 74 157 45 c 0
 157 16 134 -7 105 -7 c 0
 76 -7 53 16 53 45 c 0
EndSplineSet
EndChar

StartChar: thorn
Encoding: 254 254 186
Width: 210
Flags: HMW
LayerCount: 3
Back
SplineSet
154 351 m 5
 155 349 l 5
 187 385 235 412 285 412 c 4
 385 412 463 328 463 212 c 4
 463 80 355 -10 245 -10 c 4
 217 -10 181 -5 156 6 c 5
 154 5 l 5
 155 -35 l 5
 155 -240 l 5
 230 -240 l 5
 230 -272 l 5
 20 -272 l 5
 20 -240 l 5
 85 -240 l 5
 85 625 l 5
 32 668 l 5
 32 676 l 5
 145 710 l 5
 155 710 l 5
 155 388 l 5
 154 351 l 5
155 73 m 5
 180 45 215 30 260 30 c 4
 332 30 389 85 389 185 c 4
 389 292 330 358 255 358 c 4
 216 358 179 344 155 323 c 5
 155 73 l 5
EndSplineSet
Fore
SplineSet
53 45 m 0
 53 74 76 97 105 97 c 0
 134 97 157 74 157 45 c 0
 157 16 134 -7 105 -7 c 0
 76 -7 53 16 53 45 c 0
EndSplineSet
Substitution2: "'ital' Italics in Latin lookup 2-1" thorn.ital
Substitution2: "'smcp' Lowercase to Small Capitals in Latin lookup 8-1" thorn.smcp
EndChar

StartChar: ydieresis
Encoding: 255 255 187
Width: 210
Flags: HMW
LayerCount: 3
Back
Refer: 102 168 N 1 0 0 1 96 0 2
Refer: 89 121 N 1 0 0 1 0 0 3
Fore
SplineSet
53 45 m 0
 53 74 76 97 105 97 c 0
 134 97 157 74 157 45 c 0
 157 16 134 -7 105 -7 c 0
 76 -7 53 16 53 45 c 0
EndSplineSet
EndChar

StartChar: Amacron
Encoding: 256 256 188
Width: 600
Flags: HMW
LayerCount: 3
Back
Refer: 400 -1 N 1 0 0 1 200 0 2
Refer: 42 65 N 1 0 0 1 0 0 3
Fore
SplineSet
53 45 m 0
 53 74 76 97 105 97 c 0
 134 97 157 74 157 45 c 0
 157 16 134 -7 105 -7 c 0
 76 -7 53 16 53 45 c 0
EndSplineSet
Substitution2: "'salt' Stylistic Alternatives in Latin lookup 2-1" Amacron.alt
Substitution2: "'ss01' Style Set 1 in Latin lookup 10-1" Amacron.alt
EndChar

StartChar: amacron
Encoding: 257 257 189
Width: 445
Flags: HMW
LayerCount: 3
Back
Refer: 109 175 N 1 0 0 1 70 0 2
Refer: 6 97 N 1 0 0 1 0 0 3
Fore
SplineSet
53 45 m 0
 53 74 76 97 105 97 c 0
 134 97 157 74 157 45 c 0
 157 16 134 -7 105 -7 c 0
 76 -7 53 16 53 45 c 0
EndSplineSet
EndChar

StartChar: Emacron
Encoding: 274 274 190
Width: 520
Flags: HMW
LayerCount: 3
Back
Refer: 400 -1 N 1 0 0 1 158 0 2
Refer: 46 69 N 1 0 0 1 0 0 3
Fore
SplineSet
53 45 m 0
 53 74 76 97 105 97 c 0
 134 97 157 74 157 45 c 0
 157 16 134 -7 105 -7 c 0
 76 -7 53 16 53 45 c 0
EndSplineSet
EndChar

StartChar: emacron
Encoding: 275 275 191
Width: 340
Flags: HMW
LayerCount: 3
Back
Refer: 109 175 N 1 0 0 1 95 0 2
Refer: 77 101 N 1 0 0 1 0 0 3
Fore
SplineSet
53 45 m 0
 53 74 76 97 105 97 c 0
 134 97 157 74 157 45 c 0
 157 16 134 -7 105 -7 c 0
 76 -7 53 16 53 45 c 0
EndSplineSet
EndChar

StartChar: Imacron
Encoding: 298 298 192
Width: 280
Flags: HMW
LayerCount: 3
Back
SplineSet
40 787 m 1
 280 787 l 1
 280 743 l 1
 40 743 l 1
 40 787 l 1
EndSplineSet
Refer: 50 73 N 1 0 0 1 0 0 3
Fore
SplineSet
53 45 m 0
 53 74 76 97 105 97 c 0
 134 97 157 74 157 45 c 0
 157 16 134 -7 105 -7 c 0
 76 -7 53 16 53 45 c 0
EndSplineSet
EndChar

StartChar: imacron
Encoding: 299 299 193
Width: 210
Flags: HMW
LayerCount: 3
Back
SplineSet
32 577 m 1
 232 577 l 1
 232 535 l 1
 32 535 l 1
 32 577 l 1
EndSplineSet
Refer: 259 305 N 1 0 0 1 0 0 3
Fore
SplineSet
53 45 m 0
 53 74 76 97 105 97 c 0
 134 97 157 74 157 45 c 0
 157 16 134 -7 105 -7 c 0
 76 -7 53 16 53 45 c 0
EndSplineSet
Layer: 2
SplineSet
32 577 m 1
 232 577 l 1
 232 535 l 1
 32 535 l 1
 32 577 l 1
EndSplineSet
EndChar

StartChar: Omacron
Encoding: 332 332 194
Width: 210
Flags: HMW
LayerCount: 3
Back
Refer: 400 -1 N 1 0 0 1 247 0 2
Refer: 56 79 N 1 0 0 1 0 0 3
Fore
SplineSet
53 45 m 0
 53 74 76 97 105 97 c 0
 134 97 157 74 157 45 c 0
 157 16 134 -7 105 -7 c 0
 76 -7 53 16 53 45 c 0
EndSplineSet
EndChar

StartChar: omacron
Encoding: 333 333 195
Width: 389
Flags: HMW
LayerCount: 3
Back
SplineSet
137 577 m 1
 357 577 l 1
 357 535 l 1
 137 535 l 1
 137 577 l 1
EndSplineSet
Refer: 2 111 N 1 0 0 1 0 0 3
Fore
SplineSet
53 45 m 0
 53 74 76 97 105 97 c 0
 134 97 157 74 157 45 c 0
 157 16 134 -7 105 -7 c 0
 76 -7 53 16 53 45 c 0
EndSplineSet
EndChar

StartChar: Umacron
Encoding: 362 362 196
Width: 210
Flags: HMW
LayerCount: 3
Back
Refer: 400 -1 N 1 0 0 1 248 0 2
Refer: 62 85 N 1 0 0 1 0 0 3
Fore
SplineSet
53 45 m 0
 53 74 76 97 105 97 c 0
 134 97 157 74 157 45 c 0
 157 16 134 -7 105 -7 c 0
 76 -7 53 16 53 45 c 0
EndSplineSet
EndChar

StartChar: umacron
Encoding: 363 363 197
Width: 210
Flags: HMW
LayerCount: 3
Back
Refer: 109 175 N 1 0 0 1 122 0 2
Refer: 85 117 N 1 0 0 1 0 0 3
Fore
SplineSet
53 45 m 0
 53 74 76 97 105 97 c 0
 134 97 157 74 157 45 c 0
 157 16 134 -7 105 -7 c 0
 76 -7 53 16 53 45 c 0
EndSplineSet
EndChar

StartChar: endash
Encoding: 8211 8211 198
Width: 500
Flags: HMW
LayerCount: 3
Back
SplineSet
30 240 m 1
 470 240 l 1
 470 200 l 1
 30 200 l 1
 30 240 l 1
EndSplineSet
Fore
SplineSet
30 240 m 1
 470 240 l 1
 470 200 l 1
 30 200 l 1
 30 240 l 1
EndSplineSet
EndChar

StartChar: emdash
Encoding: 8212 8212 199
Width: 980
Flags: HMW
LayerCount: 3
Back
SplineSet
30 240 m 1
 950 240 l 1
 950 200 l 1
 30 200 l 1
 30 240 l 1
EndSplineSet
Fore
SplineSet
30 240 m 1
 950 240 l 1
 950 200 l 1
 30 200 l 1
 30 240 l 1
EndSplineSet
EndChar

StartChar: uni2010
Encoding: 8208 8208 200
Width: 210
Flags: HMW
LayerCount: 3
Back
SplineSet
25 234 m 1
 220 234 l 1
 220 176 l 1
 25 176 l 1
 25 234 l 1
EndSplineSet
Fore
SplineSet
53 45 m 0
 53 74 76 97 105 97 c 0
 134 97 157 74 157 45 c 0
 157 16 134 -7 105 -7 c 0
 76 -7 53 16 53 45 c 0
EndSplineSet
EndChar

StartChar: uni2011
Encoding: 8209 8209 201
Width: 210
Flags: HMW
LayerCount: 3
Back
SplineSet
25 234 m 1
 220 234 l 1
 220 176 l 1
 25 176 l 1
 25 234 l 1
EndSplineSet
Fore
SplineSet
53 45 m 0
 53 74 76 97 105 97 c 0
 134 97 157 74 157 45 c 0
 157 16 134 -7 105 -7 c 0
 76 -7 53 16 53 45 c 0
EndSplineSet
EndChar

StartChar: afii00208
Encoding: 8213 8213 202
Width: 1420
Flags: HMW
LayerCount: 3
Back
SplineSet
0 240 m 1
 1420 240 l 1
 1420 200 l 1
 0 200 l 1
 0 240 l 1
EndSplineSet
Fore
SplineSet
0 240 m 1
 1420 240 l 1
 1420 200 l 1
 0 200 l 1
 0 240 l 1
EndSplineSet
EndChar

StartChar: quoteleft
Encoding: 8216 8216 203
Width: 210
Flags: HMW
LayerCount: 3
Back
SplineSet
152 499 m 1
 137 426 l 1
 136 426 l 1
 78 430 34 466 34 528 c 0
 34 583 77 641 148 668 c 1
 158 645 l 1
 116 625 92 592 92 559 c 0
 92 525 116 505 152 499 c 1
EndSplineSet
Fore
SplineSet
53 45 m 0
 53 74 76 97 105 97 c 0
 134 97 157 74 157 45 c 0
 157 16 134 -7 105 -7 c 0
 76 -7 53 16 53 45 c 0
EndSplineSet
Substitution2: "'ital' Italics in Latin lookup 2-1" quoteleft.ital
EndChar

StartChar: quoteright
Encoding: 8217 8217 204
Width: 210
Flags: HMW
LayerCount: 3
Back
SplineSet
46 581 m 1
 61 654 l 1
 62 654 l 1
 120 650 164 614 164 552 c 0
 164 497 121 439 50 412 c 1
 40 435 l 1
 82 455 106 488 106 521 c 0
 106 555 82 575 46 581 c 1
EndSplineSet
Fore
SplineSet
53 45 m 0
 53 74 76 97 105 97 c 0
 134 97 157 74 157 45 c 0
 157 16 134 -7 105 -7 c 0
 76 -7 53 16 53 45 c 0
EndSplineSet
Substitution2: "'ital' Italics in Latin lookup 2-1" quoteright.ital
EndChar

StartChar: quotesinglbase
Encoding: 8218 8218 205
Width: 210
Flags: HMW
LayerCount: 3
Back
SplineSet
46 31 m 1
 61 104 l 1
 62 104 l 1
 120 100 164 64 164 2 c 0
 164 -53 121 -111 50 -138 c 1
 40 -115 l 1
 82 -95 106 -62 106 -29 c 0
 106 5 82 25 46 31 c 1
EndSplineSet
Fore
SplineSet
53 45 m 0
 53 74 76 97 105 97 c 0
 134 97 157 74 157 45 c 0
 157 16 134 -7 105 -7 c 0
 76 -7 53 16 53 45 c 0
EndSplineSet
EndChar

StartChar: quotereversed
Encoding: 8219 8219 206
Width: 210
Flags: HMW
LayerCount: 3
Back
SplineSet
154 581 m 1
 118 575 94 555 94 521 c 0
 94 488 118 455 160 435 c 1
 150 412 l 1
 79 439 36 497 36 552 c 0
 36 614 80 650 138 654 c 1
 139 654 l 1
 154 581 l 1
EndSplineSet
Fore
SplineSet
53 45 m 0
 53 74 76 97 105 97 c 0
 134 97 157 74 157 45 c 0
 157 16 134 -7 105 -7 c 0
 76 -7 53 16 53 45 c 0
EndSplineSet
EndChar

StartChar: quotedblleft
Encoding: 8220 8220 207
Width: 210
Flags: HMW
LayerCount: 3
Back
SplineSet
311 499 m 1
 295 426 l 1
 294 426 l 1
 237 431 195 466 195 528 c 0
 195 583 237 641 308 668 c 1
 318 645 l 1
 276 625 252 592 252 559 c 0
 252 526 275 505 311 499 c 1
151 499 m 1
 135 426 l 1
 134 426 l 1
 77 431 35 466 35 528 c 0
 35 583 77 641 148 668 c 1
 158 645 l 1
 116 625 92 592 92 559 c 0
 92 526 115 505 151 499 c 1
EndSplineSet
Fore
SplineSet
53 45 m 0
 53 74 76 97 105 97 c 0
 134 97 157 74 157 45 c 0
 157 16 134 -7 105 -7 c 0
 76 -7 53 16 53 45 c 0
EndSplineSet
Substitution2: "'ital' Italics in Latin lookup 2-1" quotedblleft.ital
EndChar

StartChar: quotedblright
Encoding: 8221 8221 208
Width: 210
Flags: HMW
LayerCount: 3
Back
SplineSet
47 581 m 1
 63 654 l 1
 64 654 l 1
 121 649 163 614 163 552 c 0
 163 497 121 439 50 412 c 1
 40 435 l 1
 82 455 106 488 106 521 c 0
 106 554 83 575 47 581 c 1
207 581 m 1
 223 654 l 1
 224 654 l 1
 281 649 323 614 323 552 c 0
 323 497 281 439 210 412 c 1
 200 435 l 1
 242 455 266 488 266 521 c 0
 266 554 243 575 207 581 c 1
EndSplineSet
Fore
SplineSet
53 45 m 0
 53 74 76 97 105 97 c 0
 134 97 157 74 157 45 c 0
 157 16 134 -7 105 -7 c 0
 76 -7 53 16 53 45 c 0
EndSplineSet
Substitution2: "'ital' Italics in Latin lookup 2-1" quotedblright.ital
EndChar

StartChar: quotedblbase
Encoding: 8222 8222 209
Width: 210
Flags: HMW
LayerCount: 3
Back
SplineSet
47 31 m 1
 63 104 l 1
 64 104 l 1
 121 99 163 64 163 2 c 0
 163 -53 121 -111 50 -138 c 1
 40 -115 l 1
 82 -95 106 -62 106 -29 c 0
 106 4 83 25 47 31 c 1
207 31 m 1
 223 104 l 1
 224 104 l 1
 281 99 323 64 323 2 c 0
 323 -53 281 -111 210 -138 c 1
 200 -115 l 1
 242 -95 266 -62 266 -29 c 0
 266 4 243 25 207 31 c 1
EndSplineSet
Fore
SplineSet
53 45 m 0
 53 74 76 97 105 97 c 0
 134 97 157 74 157 45 c 0
 157 16 134 -7 105 -7 c 0
 76 -7 53 16 53 45 c 0
EndSplineSet
EndChar

StartChar: uni201F
Encoding: 8223 8223 210
Width: 210
Flags: HMW
LayerCount: 3
Back
SplineSet
311 581 m 1
 275 575 252 554 252 521 c 0
 252 488 276 455 318 435 c 1
 308 412 l 1
 237 439 195 497 195 552 c 0
 195 614 237 649 294 654 c 1
 295 654 l 1
 311 581 l 1
151 581 m 1
 115 575 92 554 92 521 c 0
 92 488 116 455 158 435 c 1
 148 412 l 1
 77 439 35 497 35 552 c 0
 35 614 77 649 134 654 c 1
 135 654 l 1
 151 581 l 1
EndSplineSet
Fore
SplineSet
53 45 m 0
 53 74 76 97 105 97 c 0
 134 97 157 74 157 45 c 0
 157 16 134 -7 105 -7 c 0
 76 -7 53 16 53 45 c 0
EndSplineSet
EndChar

StartChar: dagger
Encoding: 8224 8224 211
Width: 210
Flags: HMW
LayerCount: 3
Back
SplineSet
207 645 m 2
 207 662 220 675 240 675 c 0
 260 675 273 662 273 645 c 2
 273 640 l 1
 260 635 l 1
 260 465 l 1
 415 465 l 1
 415 425 l 1
 268 425 l 1
 268 335 l 2
 268 155 265 -55 241 -145 c 1
 239 -145 l 1
 215 -55 212 155 212 335 c 2
 212 425 l 1
 65 425 l 1
 65 465 l 1
 220 465 l 1
 220 635 l 1
 207 640 l 1
 207 645 l 2
EndSplineSet
Fore
SplineSet
53 45 m 0
 53 74 76 97 105 97 c 0
 134 97 157 74 157 45 c 0
 157 16 134 -7 105 -7 c 0
 76 -7 53 16 53 45 c 0
EndSplineSet
EndChar

StartChar: daggerdbl
Encoding: 8225 8225 212
Width: 210
Flags: HMW
LayerCount: 3
Back
SplineSet
207 645 m 2
 207 662 220 675 240 675 c 0
 260 675 273 662 273 645 c 2
 273 640 l 1
 260 635 l 1
 260 465 l 1
 415 465 l 1
 415 425 l 1
 265 425 l 1
 265 295 l 1
 385 295 l 1
 385 255 l 1
 267 255 l 1
 266 125 263 -63 241 -145 c 1
 239 -145 l 1
 217 -63 214 125 213 255 c 1
 95 255 l 1
 95 295 l 1
 215 295 l 1
 215 425 l 1
 65 425 l 1
 65 465 l 1
 220 465 l 1
 220 635 l 1
 207 640 l 1
 207 645 l 2
EndSplineSet
Fore
SplineSet
53 45 m 0
 53 74 76 97 105 97 c 0
 134 97 157 74 157 45 c 0
 157 16 134 -7 105 -7 c 0
 76 -7 53 16 53 45 c 0
EndSplineSet
EndChar

StartChar: bullet
Encoding: 8226 8226 213
Width: 210
Flags: HMW
LayerCount: 3
Back
SplineSet
50 325 m 0
 50 380 95 425 150 425 c 0
 205 425 250 380 250 325 c 0
 250 270 205 225 150 225 c 0
 95 225 50 270 50 325 c 0
EndSplineSet
Fore
SplineSet
53 45 m 0
 53 74 76 97 105 97 c 0
 134 97 157 74 157 45 c 0
 157 16 134 -7 105 -7 c 0
 76 -7 53 16 53 45 c 0
EndSplineSet
EndChar

StartChar: ellipsis
Encoding: 8230 8230 214
Width: 210
Flags: HMW
LayerCount: 3
Back
SplineSet
323 45 m 0
 323 74 346 97 375 97 c 0
 404 97 427 74 427 45 c 0
 427 16 404 -7 375 -7 c 0
 346 -7 323 16 323 45 c 0
73 45 m 0
 73 74 96 97 125 97 c 0
 154 97 177 74 177 45 c 0
 177 16 154 -7 125 -7 c 0
 96 -7 73 16 73 45 c 0
573 45 m 0
 573 74 596 97 625 97 c 0
 654 97 677 74 677 45 c 0
 677 16 654 -7 625 -7 c 0
 596 -7 573 16 573 45 c 0
EndSplineSet
Fore
SplineSet
53 45 m 0
 53 74 76 97 105 97 c 0
 134 97 157 74 157 45 c 0
 157 16 134 -7 105 -7 c 0
 76 -7 53 16 53 45 c 0
EndSplineSet
EndChar

StartChar: twodotenleader
Encoding: 8229 8229 215
Width: 210
Flags: HMW
LayerCount: 3
Back
SplineSet
73 45 m 0
 73 74 96 97 125 97 c 0
 154 97 177 74 177 45 c 0
 177 16 154 -7 125 -7 c 0
 96 -7 73 16 73 45 c 0
323 45 m 0
 323 74 346 97 375 97 c 0
 404 97 427 74 427 45 c 0
 427 16 404 -7 375 -7 c 0
 346 -7 323 16 323 45 c 0
EndSplineSet
Fore
SplineSet
53 45 m 0
 53 74 76 97 105 97 c 0
 134 97 157 74 157 45 c 0
 157 16 134 -7 105 -7 c 0
 76 -7 53 16 53 45 c 0
EndSplineSet
EndChar

StartChar: uni204B
Encoding: 8267 8267 216
Width: 480
Flags: HMW
LayerCount: 3
Back
SplineSet
190 220 m 2
 145 220 l 1
 145 -58 l 2
 145 -147 180 -185 235 -185 c 0
 252 -185 268 -180 280 -172 c 1
 280 -170 l 1
 260 -163 245 -142 245 -120 c 0
 245 -90 270 -65 300 -65 c 0
 330 -65 355 -90 355 -125 c 0
 355 -172 310 -220 235 -220 c 0
 159 -220 100 -165 100 -55 c 2
 100 605 l 1
 25 605 l 1
 25 640 l 1
 190 640 l 2
 340 640 440 555 440 430 c 0
 440 305 340 220 190 220 c 2
145 605 m 1
 145 255 l 1
 175 255 l 2
 270 255 325 325 325 430 c 0
 325 535 270 605 175 605 c 2
 145 605 l 1
EndSplineSet
Fore
SplineSet
190 220 m 2
 145 220 l 1
 145 -58 l 2
 145 -147 180 -185 235 -185 c 0
 252 -185 268 -180 280 -172 c 1
 280 -170 l 1
 260 -163 245 -142 245 -120 c 0
 245 -90 270 -65 300 -65 c 0
 330 -65 355 -90 355 -125 c 0
 355 -172 310 -220 235 -220 c 0
 159 -220 100 -165 100 -55 c 2
 100 605 l 1
 25 605 l 1
 25 640 l 1
 190 640 l 2
 340 640 440 555 440 430 c 0
 440 305 340 220 190 220 c 2
145 605 m 1
 145 255 l 1
 175 255 l 2
 270 255 325 325 325 430 c 0
 325 535 270 605 175 605 c 2
 145 605 l 1
EndSplineSet
EndChar

StartChar: uni203D
Encoding: 8253 8253 217
Width: 210
Flags: HMW
LayerCount: 3
Back
SplineSet
262 442 m 0
 262 520 190 559 95 562 c 1
 95 668 l 1
 123 668 l 1
 123 664 l 2
 123 637 136 637 176 617 c 0
 252 580 297 525 297 440 c 0
 297 358 254 301 180 265 c 0
 140 245 130 240 130 210 c 2
 130 180 l 1
 100 180 l 1
 77 515 l 1
 153 515 l 1
 137 328 l 1
 137 323 l 1
 208 334 262 372 262 442 c 0
115 -4 m 0
 90 -4 69 17 69 42 c 0
 69 67 90 88 115 88 c 0
 140 88 161 67 161 42 c 0
 161 17 140 -4 115 -4 c 0
EndSplineSet
Fore
SplineSet
53 45 m 0
 53 74 76 97 105 97 c 0
 134 97 157 74 157 45 c 0
 157 16 134 -7 105 -7 c 0
 76 -7 53 16 53 45 c 0
EndSplineSet
LCarets2: 1 0
Ligature2: "'dlig' Discretionary Ligatures lookup 12-1" exclam question
EndChar

StartChar: guilsinglright
Encoding: 8250 8250 218
Width: 210
Flags: HMW
LayerCount: 3
Back
SplineSet
220 213 m 1
 220 207 l 1
 50 35 l 1
 25 45 l 1
 135 208 l 1
 135 210 l 1
 25 375 l 1
 50 385 l 1
 220 213 l 1
EndSplineSet
Fore
SplineSet
53 45 m 0
 53 74 76 97 105 97 c 0
 134 97 157 74 157 45 c 0
 157 16 134 -7 105 -7 c 0
 76 -7 53 16 53 45 c 0
EndSplineSet
EndChar

StartChar: guilsinglleft
Encoding: 8249 8249 219
Width: 210
Flags: HMW
LayerCount: 3
Back
SplineSet
30 207 m 1
 30 213 l 1
 200 385 l 1
 225 375 l 1
 115 212 l 1
 115 210 l 1
 225 45 l 1
 200 35 l 1
 30 207 l 1
EndSplineSet
Fore
SplineSet
53 45 m 0
 53 74 76 97 105 97 c 0
 134 97 157 74 157 45 c 0
 157 16 134 -7 105 -7 c 0
 76 -7 53 16 53 45 c 0
EndSplineSet
EndChar

StartChar: perthousand
Encoding: 8240 8240 220
Width: 210
Flags: HMW
LayerCount: 3
Back
SplineSet
577 660 m 1
 625 660 l 1
 203 -50 l 1
 155 -50 l 1
 577 660 l 1
445 150 m 0
 445 238 512 310 595 310 c 0
 678 310 745 238 745 150 c 0
 745 62 678 -10 595 -10 c 0
 512 -10 445 62 445 150 c 0
504 165 m 0
 504 78 548 24 603 24 c 0
 650 24 686 72 686 135 c 0
 686 222 642 276 587 276 c 0
 540 276 504 228 504 165 c 0
35 460 m 0
 35 548 102 620 185 620 c 0
 268 620 335 548 335 460 c 0
 335 372 268 300 185 300 c 0
 102 300 35 372 35 460 c 0
94 475 m 0
 94 388 138 334 193 334 c 0
 240 334 276 382 276 445 c 0
 276 532 232 586 177 586 c 0
 130 586 94 538 94 475 c 0
790 150 m 0
 790 238 857 310 940 310 c 0
 1023 310 1090 238 1090 150 c 0
 1090 62 1023 -10 940 -10 c 0
 857 -10 790 62 790 150 c 0
849 165 m 0
 849 78 893 24 948 24 c 0
 995 24 1031 72 1031 135 c 0
 1031 222 987 276 932 276 c 0
 885 276 849 228 849 165 c 0
EndSplineSet
Fore
SplineSet
53 45 m 0
 53 74 76 97 105 97 c 0
 134 97 157 74 157 45 c 0
 157 16 134 -7 105 -7 c 0
 76 -7 53 16 53 45 c 0
EndSplineSet
EndChar

StartChar: uni2027
Encoding: 8231 8231 221
Width: 210
Flags: HMW
LayerCount: 3
Back
SplineSet
48 220 m 0
 48 249 71 272 100 272 c 0
 129 272 152 249 152 220 c 0
 152 191 129 168 100 168 c 0
 71 168 48 191 48 220 c 0
EndSplineSet
Fore
SplineSet
53 45 m 0
 53 74 76 97 105 97 c 0
 134 97 157 74 157 45 c 0
 157 16 134 -7 105 -7 c 0
 76 -7 53 16 53 45 c 0
EndSplineSet
EndChar

StartChar: uni2048
Encoding: 8264 8264 222
Width: 210
Flags: HMW
LayerCount: 3
Back
Refer: 11 33 N 1 0 0 1 310 0 2
Refer: 40 63 N 1 0 0 1 0 0 2
Fore
SplineSet
53 45 m 0
 53 74 76 97 105 97 c 0
 134 97 157 74 157 45 c 0
 157 16 134 -7 105 -7 c 0
 76 -7 53 16 53 45 c 0
EndSplineSet
EndChar

StartChar: uni2049
Encoding: 8265 8265 223
Width: 210
Flags: HMW
LayerCount: 3
Back
Refer: 40 63 N 1 0 0 1 170 0 2
Refer: 11 33 N 1 0 0 1 0 0 2
Fore
SplineSet
53 45 m 0
 53 74 76 97 105 97 c 0
 134 97 157 74 157 45 c 0
 157 16 134 -7 105 -7 c 0
 76 -7 53 16 53 45 c 0
EndSplineSet
EndChar

StartChar: arrowleft
Encoding: 8592 8592 224
Width: 600
Flags: HMW
LayerCount: 3
Back
SplineSet
570 200 m 1
 200 200 l 1
 205 120 l 1
 20 220 l 1
 205 320 l 1
 200 240 l 1
 570 240 l 1
 570 200 l 1
EndSplineSet
Fore
SplineSet
570 200 m 1
 200 200 l 1
 205 120 l 1
 20 220 l 1
 205 320 l 1
 200 240 l 1
 570 240 l 1
 570 200 l 1
EndSplineSet
EndChar

StartChar: arrowup
Encoding: 8593 8593 225
Width: 340
Flags: HMW
LayerCount: 3
Back
SplineSet
150 -50 m 1
 150 320 l 1
 70 315 l 1
 170 500 l 1
 270 315 l 1
 190 320 l 1
 190 -50 l 1
 150 -50 l 1
EndSplineSet
Fore
SplineSet
150 -50 m 1
 150 320 l 1
 70 315 l 1
 170 500 l 1
 270 315 l 1
 190 320 l 1
 190 -50 l 1
 150 -50 l 1
EndSplineSet
EndChar

StartChar: arrowright
Encoding: 8594 8594 226
Width: 600
Flags: HMW
LayerCount: 3
Back
SplineSet
30 240 m 1
 400 240 l 1
 395 320 l 1
 580 220 l 1
 395 120 l 1
 400 200 l 1
 30 200 l 1
 30 240 l 1
EndSplineSet
Fore
SplineSet
30 240 m 1
 400 240 l 1
 395 320 l 1
 580 220 l 1
 395 120 l 1
 400 200 l 1
 30 200 l 1
 30 240 l 1
EndSplineSet
EndChar

StartChar: arrowdown
Encoding: 8595 8595 227
Width: 340
Flags: HMW
LayerCount: 3
Back
SplineSet
190 490 m 1
 190 120 l 1
 270 125 l 1
 170 -60 l 1
 70 125 l 1
 150 120 l 1
 150 490 l 1
 190 490 l 1
EndSplineSet
Fore
SplineSet
190 490 m 1
 190 120 l 1
 270 125 l 1
 170 -60 l 1
 70 125 l 1
 150 120 l 1
 150 490 l 1
 190 490 l 1
EndSplineSet
EndChar

StartChar: arrowboth
Encoding: 8596 8596 228
Width: 600
Flags: HMW
LayerCount: 3
Back
SplineSet
400 240 m 1
 395 320 l 1
 580 220 l 1
 395 120 l 1
 400 200 l 1
 200 200 l 1
 205 120 l 1
 20 220 l 1
 205 320 l 1
 200 240 l 1
 400 240 l 1
EndSplineSet
Fore
SplineSet
400 240 m 1
 395 320 l 1
 580 220 l 1
 395 120 l 1
 400 200 l 1
 200 200 l 1
 205 120 l 1
 20 220 l 1
 205 320 l 1
 200 240 l 1
 400 240 l 1
EndSplineSet
EndChar

StartChar: arrowupdn
Encoding: 8597 8597 229
Width: 340
Flags: HMW
LayerCount: 3
Back
SplineSet
150 320 m 1
 70 315 l 1
 170 500 l 1
 270 315 l 1
 190 320 l 1
 190 120 l 1
 270 125 l 1
 170 -60 l 1
 70 125 l 1
 150 120 l 1
 150 320 l 1
EndSplineSet
Fore
SplineSet
150 320 m 1
 70 315 l 1
 170 500 l 1
 270 315 l 1
 190 320 l 1
 190 120 l 1
 270 125 l 1
 170 -60 l 1
 70 125 l 1
 150 120 l 1
 150 320 l 1
EndSplineSet
EndChar

StartChar: uni2196
Encoding: 8598 8598 230
Width: 460
Flags: HMW
LayerCount: 3
Back
SplineSet
404 17 m 1
 143 279 l 1
 90 219 l 1
 30 420 l 1
 231 360 l 1
 171 307 l 1
 433 46 l 1
 404 17 l 1
EndSplineSet
Fore
SplineSet
404 17 m 1
 143 279 l 1
 90 219 l 1
 30 420 l 1
 231 360 l 1
 171 307 l 1
 433 46 l 1
 404 17 l 1
EndSplineSet
EndChar

StartChar: uni2197
Encoding: 8599 8599 231
Width: 460
Flags: HMW
LayerCount: 3
Back
SplineSet
27 46 m 1
 289 307 l 1
 229 360 l 1
 430 420 l 1
 370 219 l 1
 317 279 l 1
 56 17 l 1
 27 46 l 1
EndSplineSet
Fore
SplineSet
27 46 m 1
 289 307 l 1
 229 360 l 1
 430 420 l 1
 370 219 l 1
 317 279 l 1
 56 17 l 1
 27 46 l 1
EndSplineSet
EndChar

StartChar: uni2198
Encoding: 8600 8600 232
Width: 460
Flags: HMW
LayerCount: 3
Back
SplineSet
56 423 m 1
 317 161 l 1
 370 221 l 1
 430 20 l 1
 229 80 l 1
 289 133 l 1
 27 394 l 1
 56 423 l 1
EndSplineSet
Fore
SplineSet
56 423 m 1
 317 161 l 1
 370 221 l 1
 430 20 l 1
 229 80 l 1
 289 133 l 1
 27 394 l 1
 56 423 l 1
EndSplineSet
EndChar

StartChar: uni2199
Encoding: 8601 8601 233
Width: 460
Flags: HMW
LayerCount: 3
Back
SplineSet
433 394 m 1
 171 133 l 1
 231 80 l 1
 30 20 l 1
 90 221 l 1
 143 161 l 1
 404 423 l 1
 433 394 l 1
EndSplineSet
Fore
SplineSet
433 394 m 1
 171 133 l 1
 231 80 l 1
 30 20 l 1
 90 221 l 1
 143 161 l 1
 404 423 l 1
 433 394 l 1
EndSplineSet
EndChar

StartChar: fj.liga
Encoding: 65536 -1 235
Width: 210
Flags: HMW
LayerCount: 3
Fore
SplineSet
53 45 m 0
 53 74 76 97 105 97 c 0
 134 97 157 74 157 45 c 0
 157 16 134 -7 105 -7 c 0
 76 -7 53 16 53 45 c 0
EndSplineSet
Layer: 2
SplineSet
395 608 m 257
 369 628 334 642 295 642 c 256
 217 642 170 590 170 470 c 258
 170 399 l 257
 382 399 l 257
 430 415 l 257
 440 415 l 257
 440 32 l 257
 512 32 l 257
 512 0 l 257
 307 0 l 257
 307 32 l 257
 370 32 l 257
 370 330 l 257
 345 359 l 257
 170 359 l 257
 170 32 l 257
 245 32 l 257
 245 0 l 257
 40 0 l 257
 40 32 l 257
 100 32 l 257
 100 357 l 257
 43 357 l 257
 43 378 l 257
 100 404 l 257
 100 425 l 258
 100 585 218 698 337 698 c 256
 373 698 408 686 435 667 c 257
 397 608 l 257
 395 608 l 257
EndSplineSet
Substitution2: "'salt' Stylistic Alternatives in Latin lookup 2-1" fj.liga.alt
Substitution2: "'ital' Italics in Latin lookup 2-1" fj.ital
Ligature2: "'liga' Standard Ligatures in Latin lookup 2-1" f j
Substitution2: "'ss07' Style Set 7 lookup 19-1" fj.liga.alt
LCarets2: 1 0
EndChar

StartChar: sp.liga
Encoding: 65537 -1 236
Width: 210
Flags: HMW
LayerCount: 3
Back
SplineSet
492 71 m 1
 516 46 550 30 597 30 c 0
 669 30 727 83 727 183 c 0
 727 290 662 357 587 357 c 0
 553 357 518 344 492 322 c 1
 492 71 l 1
422 -239 m 1
 422 445 l 2
 422 540 389 595 324 595 c 0
 267 595 226 552 226 497 c 0
 226 455 244 424 273 400 c 1
 281 290 l 1
 252 290 l 1
 249 315 l 2
 244 357 214 381 171 381 c 0
 139 381 114 362 114 332 c 0
 114 300 136 277 196 237 c 0
 267 189 296 157 296 108 c 0
 296 36 234 -13 154 -13 c 0
 119 -13 81 -3 56 14 c 1
 44 125 l 1
 73 125 l 1
 78 95 l 2
 86 45 116 20 164 20 c 0
 206 20 231 45 231 80 c 0
 231 110 206 138 139 182 c 0
 74 225 54 262 54 307 c 0
 54 367 109 413 179 413 c 0
 192 413 206 411 213 409 c 1
 214 412 l 1
 198 432 187 458 187 495 c 0
 187 570 252 635 337 635 c 0
 432 635 492 565 492 455 c 2
 492 390 l 1
 491 350 l 1
 492 348 l 1
 523 382 569 412 620 412 c 0
 717 412 798 334 798 212 c 0
 798 83 689 -10 582 -10 c 0
 549 -10 514 -3 493 5 c 1
 491 3 l 1
 492 -40 l 1
 492 -239 l 1
 572 -239 l 1
 572 -270 l 1
 357 -270 l 1
 357 -239 l 1
 422 -239 l 1
EndSplineSet
Fore
SplineSet
53 45 m 0
 53 74 76 97 105 97 c 0
 134 97 157 74 157 45 c 0
 157 16 134 -7 105 -7 c 0
 76 -7 53 16 53 45 c 0
EndSplineSet
Layer: 2
SplineSet
425 450 m 1
 425 545 392 595 327 595 c 0
 269 595 228 555 228 497 c 0
 228 455 245 424 273 400 c 1
 281 290 l 1
 252 290 l 1
 249 314 l 2
 244 355 216 380 171 380 c 0
 139 380 114 361 114 332 c 0
 114 300 135 277 195 237 c 0
 266 189 296 157 296 108 c 0
 296 36 234 -13 154 -13 c 0
 119 -13 81 -3 56 14 c 1
 42 125 l 1
 71 125 l 1
 77 95 l 2
 86 49 116 21 164 21 c 0
 206 21 231 45 231 80 c 0
 231 110 206 138 139 182 c 0
 74 225 54 262 54 307 c 0
 54 366 109 413 179 413 c 0
 192 413 207 411 218 407 c 1
 219 409 l 1
 200 430 189 460 189 495 c 0
 189 570 250 635 341 635 c 0
 440 635 495 560 495 455 c 1
 495 405 l 1
 494 350 l 1
 495 348 l 1
 526 382 572 412 623 412 c 0
 720 412 801 334 801 212 c 0
 801 83 692 -10 585 -10 c 0
 552 -10 517 -3 496 5 c 1
 494 4 l 1
 495 -40 l 1
 495 -240 l 1
 575 -240 l 1
 575 -272 l 1
 360 -272 l 1
 360 -240 l 1
 425 -240 l 1
 425 450 l 1
495 71 m 1
 519 46 553 30 600 30 c 0
 672 30 730 83 730 183 c 0
 730 290 665 357 590 357 c 0
 556 357 521 344 495 322 c 1
 495 71 l 1
EndSplineSet
LCarets2: 1 0
Ligature2: "'dlig' Discretionary Ligatures lookup 12-1" s p
EndChar

StartChar: Th.liga
Encoding: 65538 -1 237
Width: 210
Flags: HMW
LayerCount: 3
Back
SplineSet
30 675 m 1
 60 675 l 1
 65 640 l 1
 580 640 l 1
 580 642 l 1
 579 665 l 1
 579 673 l 1
 640 705 l 1
 650 705 l 1
 650 390 l 1
 647 341 l 1
 650 340 l 1
 685 380 749 412 800 412 c 0
 870 412 920 370 920 290 c 2
 920 31 l 1
 985 31 l 1
 985 0 l 1
 800 0 l 1
 800 31 l 1
 850 31 l 1
 850 270 l 2
 850 325 813 360 760 360 c 0
 723 360 682 342 650 307 c 1
 650 31 l 1
 705 31 l 1
 705 0 l 1
 520 0 l 1
 520 31 l 1
 580 31 l 1
 580 602 l 1
 345 602 l 1
 345 31 l 1
 425 31 l 1
 425 0 l 1
 185 0 l 1
 185 31 l 1
 265 31 l 1
 265 602 l 1
 113 602 l 2
 75 602 52 580 37 512 c 2
 30 480 l 1
 0 480 l 1
 30 675 l 1
EndSplineSet
Fore
SplineSet
53 45 m 0
 53 74 76 97 105 97 c 0
 134 97 157 74 157 45 c 0
 157 16 134 -7 105 -7 c 0
 76 -7 53 16 53 45 c 0
EndSplineSet
Layer: 2
SplineSet
529 665 m 1
 529 673 l 1
 640 710 l 1
 650 710 l 1
 650 390 l 1
 647 341 l 1
 650 340 l 1
 685 380 749 412 800 412 c 0
 870 412 920 370 920 290 c 2
 920 32 l 1
 985 32 l 1
 985 0 l 1
 800 0 l 1
 800 32 l 1
 850 32 l 1
 850 270 l 2
 850 325 813 360 760 360 c 0
 723 360 682 342 650 307 c 1
 650 32 l 1
 705 32 l 1
 705 0 l 1
 520 0 l 1
 520 32 l 1
 580 32 l 1
 580 627 l 1
 529 665 l 1
30 675 m 1
 60 675 l 1
 65 640 l 1
 565 640 l 1
 575 675 l 1
 605 675 l 1
 595 475 l 1
 565 475 l 1
 565 518 l 2
 565 585 545 602 512 602 c 2
 345 602 l 1
 345 32 l 1
 427 32 l 1
 427 0 l 1
 183 0 l 1
 183 32 l 1
 265 32 l 1
 265 602 l 1
 113 602 l 2
 75 602 52 580 37 512 c 2
 30 480 l 1
 0 480 l 1
 30 675 l 1
EndSplineSet
Substitution2: "'ital' Italics in Latin lookup 2-1" Th.ital
LCarets2: 1 0
Ligature2: "'dlig' Discretionary Ligatures lookup 12-1" T h
EndChar

StartChar: rr.ital
Encoding: 65539 -1 238
Width: 665
Flags: HMW
LayerCount: 3
Back
SplineSet
657 318 m 1
 651 321 640 323 632 323 c 0
 572 323 512 250 465 110 c 2
 433 15 l 1
 400 -3 l 1
 365 -3 l 1
 415 160 l 2
 431 212 437 253 437 285 c 0
 437 325 426 345 410 345 c 0
 390 345 365 330 342 305 c 1
 340 305 l 1
 335 312 324 317 312 317 c 0
 259 317 202 250 155 110 c 2
 123 15 l 1
 90 -3 l 1
 55 -3 l 1
 105 160 l 2
 121 212 127 253 127 285 c 0
 127 325 116 345 100 345 c 0
 80 345 53 330 25 300 c 1
 10 320 l 1
 50 375 105 414 145 414 c 0
 173 414 191 392 191 345 c 0
 191 316 184 277 167 228 c 1
 172 225 l 1
 225 330 290 405 360 405 c 0
 373 405 384 397 390 382 c 1
 410 403 435 414 455 414 c 0
 483 414 501 392 501 345 c 0
 501 316 494 277 477 228 c 1
 482 225 l 1
 535 330 600 414 670 414 c 0
 680 414 695 410 700 405 c 1
 657 318 l 1
EndSplineSet
Fore
SplineSet
279 350 m 0
 279 378 302 401 330 401 c 0
 358 401 381 378 381 350 c 0
 381 322 358 299 330 299 c 0
 302 299 279 322 279 350 c 0
EndSplineSet
EndChar

StartChar: longs
Encoding: 383 383 239
Width: 210
Flags: HMW
LayerCount: 3
Back
SplineSet
170 32 m 1
 248 32 l 1
 248 0 l 1
 40 0 l 1
 40 32 l 1
 100 32 l 1
 100 357 l 1
 43 357 l 1
 43 378 l 1
 100 404 l 1
 100 435 l 2
 100 595 225 698 310 698 c 0
 335 698 361 690 380 676 c 1
 350 617 l 1
 348 617 l 1
 326 631 296 640 273 640 c 0
 215 640 170 600 170 475 c 2
 170 32 l 1
EndSplineSet
Fore
SplineSet
53 45 m 0
 53 74 76 97 105 97 c 0
 134 97 157 74 157 45 c 0
 157 16 134 -7 105 -7 c 0
 76 -7 53 16 53 45 c 0
EndSplineSet
Layer: 2
SplineSet
348 617 m 1
 325 632 294 640 272 640 c 0
 215 640 170 600 170 475 c 2
 170 400 l 1
 285 400 l 1
 280 357 l 1
 170 357 l 1
 170 32 l 1
 255 32 l 1
 255 0 l 1
 40 0 l 1
 40 32 l 1
 100 32 l 1
 100 357 l 1
 43 357 l 1
 43 378 l 1
 100 404 l 1
 100 435 l 2
 100 595 225 698 310 698 c 0
 335 698 362 690 380 676 c 1
 350 617 l 1
 348 617 l 1
EndSplineSet
Substitution2: "'ital' Italics in Latin lookup 2-1" longs.ital
EndChar

StartChar: uni2604
Encoding: 9732 9732 240
Width: 1000
Flags: HMW
LayerCount: 3
Back
SplineSet
316 196 m 1
 453 326 682 475 842 534 c 1
 849 515 l 1
 856 495 l 1
 703 439 468 300 336 176 c 1
 316 196 l 1
229 247 m 1
 334 403 525 598 668 690 c 1
 679 672 l 1
 691 654 l 1
 555 568 353 381 252 231 c 1
 229 247 l 1
355 102 m 1
 517 199 771 301 941 323 c 1
 943 302 l 1
 945 282 l 1
 785 261 527 169 370 77 c 1
 355 102 l 1
75 30 m 0
 75 85 120 130 175 130 c 0
 230 130 275 85 275 30 c 0
 275 -25 230 -70 175 -70 c 0
 120 -70 75 -25 75 30 c 0
EndSplineSet
Fore
SplineSet
316 196 m 1
 453 326 682 475 842 534 c 1
 849 515 l 1
 856 495 l 1
 703 439 468 300 336 176 c 1
 316 196 l 1
229 247 m 1
 334 403 525 598 668 690 c 1
 679 672 l 1
 691 654 l 1
 555 568 353 381 252 231 c 1
 229 247 l 1
355 102 m 1
 517 199 771 301 941 323 c 1
 943 302 l 1
 945 282 l 1
 785 261 527 169 370 77 c 1
 355 102 l 1
75 30 m 0
 75 85 120 130 175 130 c 0
 230 130 275 85 275 30 c 0
 275 -25 230 -70 175 -70 c 0
 120 -70 75 -25 75 30 c 0
EndSplineSet
EndChar

StartChar: uni2E3A
Encoding: 11834 11834 241
Width: 1960
Flags: HMW
LayerCount: 3
Back
SplineSet
30 240 m 1
 1930 240 l 1
 1930 200 l 1
 30 200 l 1
 30 240 l 1
EndSplineSet
Fore
SplineSet
30 240 m 1
 1930 240 l 1
 1930 200 l 1
 30 200 l 1
 30 240 l 1
EndSplineSet
EndChar

StartChar: uni2E3B
Encoding: 11835 11835 242
Width: 2940
Flags: HMW
LayerCount: 3
Back
SplineSet
30 240 m 1
 2910 240 l 1
 2910 200 l 1
 30 200 l 1
 30 240 l 1
EndSplineSet
Fore
SplineSet
30 240 m 1
 2910 240 l 1
 2910 200 l 1
 30 200 l 1
 30 240 l 1
EndSplineSet
EndChar

StartChar: uni3003
Encoding: 12291 12291 243
Width: 210
Flags: HMW
LayerCount: 3
Back
SplineSet
182 530 m 1
 260 500 l 1
 260 495 l 1
 80 150 l 1
 45 165 l 1
 182 530 l 1
417 465 m 1
 495 435 l 1
 495 430 l 1
 315 85 l 1
 280 100 l 1
 417 465 l 1
EndSplineSet
Fore
SplineSet
53 45 m 0
 53 74 76 97 105 97 c 0
 134 97 157 74 157 45 c 0
 157 16 134 -7 105 -7 c 0
 76 -7 53 16 53 45 c 0
EndSplineSet
EndChar

StartChar: kgreenlandic
Encoding: 312 312 244
Width: 210
Flags: HMW
LayerCount: 3
Back
SplineSet
450 400 m 1
 450 368 l 1
 399 368 l 1
 250 240 l 1
 439 32 l 1
 480 32 l 1
 480 0 l 1
 304 0 l 1
 304 32 l 1
 349 32 l 1
 180 220 l 1
 333 358 l 1
 336 368 l 1
 284 368 l 1
 284 400 l 1
 450 400 l 1
51 364 m 1
 51 372 l 1
 160 415 l 1
 170 415 l 1
 170 32 l 1
 227 32 l 1
 227 0 l 1
 35 0 l 1
 35 32 l 1
 100 32 l 1
 100 330 l 1
 51 364 l 1
EndSplineSet
Fore
SplineSet
53 45 m 0
 53 74 76 97 105 97 c 0
 134 97 157 74 157 45 c 0
 157 16 134 -7 105 -7 c 0
 76 -7 53 16 53 45 c 0
EndSplineSet
Layer: 2
SplineSet
445 400 m 1
 445 368 l 1
 394 368 l 1
 245 240 l 1
 434 32 l 1
 475 32 l 1
 475 0 l 1
 299 0 l 1
 299 32 l 1
 344 32 l 1
 175 220 l 1
 328 358 l 1
 331 368 l 1
 279 368 l 1
 279 400 l 1
 445 400 l 1
46 665 m 1
 46 673 l 1
 155 710 l 1
 165 710 l 1
 165 32 l 1
 225 32 l 1
 225 0 l 1
 33 0 l 1
 33 32 l 1
 95 32 l 1
 95 625 l 1
 46 665 l 1
EndSplineSet
EndChar

StartChar: ampersand.ital
Encoding: 65540 -1 245
Width: 900
Flags: HMW
LayerCount: 3
Back
SplineSet
85 273 m 1
 150 325 l 2
 202 367 212 397 212 425 c 0
 212 462 185 485 157 485 c 0
 107 485 73 417 73 355 c 0
 73 327 77 299 85 273 c 1
295 440 m 2
 359 491 380 540 385 570 c 1
 464 586 l 1
 465 585 l 1
 455 545 388 470 310 410 c 2
 95 244 l 1
 143 127 262 42 405 42 c 0
 555 42 640 130 640 240 c 0
 640 320 602 390 540 390 c 0
 498 390 465 362 465 315 c 0
 465 305 468 292 472 285 c 1
 472 283 l 1
 408 245 l 1
 403 255 400 268 400 280 c 0
 400 355 495 437 585 437 c 0
 665 437 755 385 815 385 c 0
 855 385 875 408 875 440 c 0
 875 452 871 470 865 480 c 1
 865 482 l 1
 930 522 l 1
 933 513 935 500 935 490 c 0
 935 415 860 332 780 332 c 0
 715 332 679 365 629 373 c 1
 627 369 l 1
 675 337 695 295 695 258 c 0
 695 123 565 -12 375 -12 c 0
 150 -12 22 170 22 325 c 0
 22 450 115 535 190 535 c 0
 237 535 270 498 270 453 c 0
 270 438 257 420 250 412 c 1
 256 409 l 1
 295 440 l 2
EndSplineSet
Fore
SplineSet
85 273 m 1
 150 325 l 2
 202 367 212 397 212 425 c 0
 212 462 187 485 157 485 c 0
 107 485 73 417 73 355 c 0
 73 327 77 299 85 273 c 1
295 440 m 2
 359 491 380 540 385 570 c 1
 464 586 l 1
 465 585 l 1
 455 545 388 470 310 410 c 2
 95 244 l 1
 143 127 262 42 405 42 c 0
 555 42 640 130 640 240 c 0
 640 320 602 390 540 390 c 0
 498 390 465 362 465 315 c 0
 465 305 467 293 471 285 c 1
 471 283 l 1
 407 245 l 1
 403 254 400 268 400 280 c 0
 400 355 495 437 585 437 c 0
 665 437 755 385 815 385 c 0
 855 385 875 408 875 440 c 0
 875 452 871 470 865 480 c 1
 865 482 l 1
 930 522 l 1
 933 513 935 500 935 490 c 0
 935 415 860 332 780 332 c 0
 715 332 679 365 629 373 c 1
 628 370 l 1
 675 337 695 295 695 258 c 0
 695 123 565 -12 375 -12 c 0
 150 -12 22 170 22 325 c 0
 22 450 115 535 190 535 c 0
 235 535 269 501 269 460 c 0
 269 440 259 419 250 409 c 1
 253 406 l 1
 295 440 l 2
EndSplineSet
Layer: 2
SplineSet
85 273 m 1
 150 325 l 2
 202 367 212 397 212 425 c 0
 212 462 187 485 157 485 c 0
 107 485 73 417 73 355 c 0
 73 327 77 299 85 273 c 1
295 440 m 2
 359 491 380 540 385 570 c 1
 464 586 l 1
 465 585 l 1
 455 545 388 470 310 410 c 2
 95 244 l 1
 143 127 262 42 405 42 c 0
 555 42 640 130 640 240 c 0
 640 320 602 390 540 390 c 0
 498 390 465 362 465 315 c 0
 465 305 467 293 471 285 c 1
 471 283 l 1
 407 245 l 1
 403 254 400 268 400 280 c 0
 400 355 495 437 585 437 c 0
 665 437 755 385 815 385 c 0
 855 385 875 408 875 440 c 0
 875 452 871 470 865 480 c 1
 865 482 l 1
 930 522 l 1
 933 513 935 500 935 490 c 0
 935 415 860 332 780 332 c 0
 715 332 679 365 629 373 c 1
 628 370 l 1
 675 337 695 295 695 258 c 0
 695 123 565 -12 375 -12 c 0
 150 -12 22 170 22 325 c 0
 22 450 115 535 190 535 c 0
 235 535 269 501 269 460 c 0
 269 440 259 419 251 410 c 1
 254 407 l 1
 295 440 l 2
EndSplineSet
EndChar

StartChar: Q.alt
Encoding: 65541 -1 246
Width: 210
Flags: HMW
LayerCount: 3
Back
SplineSet
134 335 m 0
 134 153 241 23 385 23 c 0
 520 23 616 143 616 305 c 0
 616 487 509 618 365 618 c 0
 230 618 134 497 134 335 c 0
40 320 m 0
 40 507 188 654 375 654 c 0
 562 654 710 507 710 320 c 0
 710 175 622 53 489 6 c 1
 489 4 l 1
 555 -37 l 2
 730 -146 932 -197 1125 -197 c 0
 1200 -197 1295 -180 1355 -150 c 1
 1365 -170 l 1
 1285 -225 1175 -255 1070 -255 c 0
 870 -255 675 -196 470 -73 c 2
 372 -14 l 1
 187 -13 40 134 40 320 c 0
EndSplineSet
Fore
SplineSet
53 45 m 0
 53 74 76 97 105 97 c 0
 134 97 157 74 157 45 c 0
 157 16 134 -7 105 -7 c 0
 76 -7 53 16 53 45 c 0
EndSplineSet
EndChar

StartChar: OE
Encoding: 338 338 247
Width: 210
Flags: HMW
LayerCount: 3
Back
SplineSet
495 57 m 1
 495 577 l 1
 460 602 415 614 366 614 c 0
 230 614 134 497 134 333 c 0
 134 150 240 27 384 27 c 0
 430 27 470 37 495 57 c 1
490 640 m 2
 865 640 l 1
 870 490 l 1
 841 490 l 1
 837 524 l 2
 829 590 807 604 765 604 c 2
 575 604 l 1
 575 352 l 1
 770 352 l 1
 770 420 l 1
 800 420 l 1
 800 335 l 1
 800 240 l 1
 770 240 l 1
 770 315 l 1
 575 315 l 1
 575 68 l 2
 575 48 585 38 605 38 c 2
 755 38 l 2
 815 38 843 62 867 147 c 2
 875 175 l 1
 905 175 l 1
 870 0 l 1
 490 0 l 2
 455 0 430 -10 375 -10 c 0
 188 -10 40 133 40 320 c 0
 40 507 188 650 375 650 c 0
 430 650 455 640 490 640 c 2
EndSplineSet
Fore
SplineSet
53 45 m 0
 53 74 76 97 105 97 c 0
 134 97 157 74 157 45 c 0
 157 16 134 -7 105 -7 c 0
 76 -7 53 16 53 45 c 0
EndSplineSet
Layer: 2
SplineSet
505 57 m 1
 597 577 l 1
 566 602 523 614 474 614 c 0
 338 614 222 497 193 333 c 0
 161 150 245 27 389 27 c 0
 435 27 476 37 505 57 c 1
603 640 m 2
 978 640 l 1
 956 490 l 1
 927 490 l 1
 929 524 l 2
 933 590 914 604 872 604 c 2
 682 604 l 1
 637 352 l 1
 832 352 l 1
 844 420 l 1
 874 420 l 1
 859 335 l 1
 842 240 l 1
 812 240 l 1
 826 315 l 1
 631 315 l 1
 587 68 l 2
 583 48 592 38 612 38 c 2
 762 38 l 2
 822 38 854 62 893 147 c 2
 906 175 l 1
 936 175 l 1
 870 0 l 1
 490 0 l 2
 455 0 428 -10 373 -10 c 0
 186 -10 63 133 96 320 c 0
 129 507 303 650 490 650 c 0
 545 650 568 640 603 640 c 2
EndSplineSet
Substitution2: "'ital' Italics in Latin lookup 2-1" OE.ital
Substitution2: "'c2sc' Capitals to Small Capitals in Latin lookup 9-1" oe.smcp
EndChar

StartChar: oe
Encoding: 339 339 248
Width: 210
Flags: HMW
LayerCount: 3
Back
SplineSet
458 280 m 1
 645 280 l 1
 645 340 613 376 565 376 c 0
 517 376 473 343 458 280 c 1
115 210 m 0
 115 110 173 23 253 23 c 0
 327 23 375 92 375 190 c 0
 375 290 317 378 238 378 c 0
 163 378 115 308 115 210 c 0
33 200 m 0
 33 318 127 412 245 412 c 0
 320 412 380 375 415 316 c 1
 418 316 l 1
 450 375 511 412 577 412 c 0
 663 412 720 350 720 265 c 2
 720 250 l 1
 452 250 l 1
 451 242 450 227 450 215 c 0
 450 115 515 52 595 52 c 0
 645 52 680 71 704 100 c 1
 720 87 l 1
 690 30 630 -12 562 -12 c 0
 500 -12 442 22 413 77 c 1
 410 77 l 1
 375 20 313 -12 245 -12 c 0
 127 -12 33 82 33 200 c 0
EndSplineSet
Fore
SplineSet
53 45 m 0
 53 74 76 97 105 97 c 0
 134 97 157 74 157 45 c 0
 157 16 134 -7 105 -7 c 0
 76 -7 53 16 53 45 c 0
EndSplineSet
Layer: 2
SplineSet
457 280 m 1
 645 280 l 1
 645 340 613 376 565 376 c 0
 515 376 474 343 457 280 c 1
451 250 m 1
 450 240 449 227 449 215 c 0
 449 115 514 52 595 52 c 0
 642 52 680 70 704 96 c 1
 719 82 l 1
 690 33 635 -12 565 -12 c 0
 465 -12 380 67 380 195 c 0
 380 310 466 412 577 412 c 0
 660 412 720 353 720 265 c 2
 720 250 l 1
 451 250 l 1
EndSplineSet
Substitution2: "'ital' Italics in Latin lookup 2-1" oe.ital
Substitution2: "'smcp' Lowercase to Small Capitals in Latin lookup 8-1" oe.smcp
EndChar

StartChar: uni203B
Encoding: 8251 8251 249
Width: 210
Flags: HMW
LayerCount: 3
Back
SplineSet
350 350 m 1
 560 560 l 1
 590 530 l 1
 380 320 l 1
 590 110 l 1
 560 80 l 1
 350 290 l 1
 140 80 l 1
 110 110 l 1
 320 320 l 1
 110 530 l 1
 140 560 l 1
 350 350 l 1
305 570 m 0
 305 595 325 615 350 615 c 0
 375 615 395 595 395 570 c 0
 395 545 375 525 350 525 c 0
 325 525 305 545 305 570 c 0
305 70 m 0
 305 95 325 115 350 115 c 0
 375 115 395 95 395 70 c 0
 395 45 375 25 350 25 c 0
 325 25 305 45 305 70 c 0
55 320 m 0
 55 345 75 365 100 365 c 0
 125 365 145 345 145 320 c 0
 145 295 125 275 100 275 c 0
 75 275 55 295 55 320 c 0
555 320 m 0
 555 345 575 365 600 365 c 0
 625 365 645 345 645 320 c 0
 645 295 625 275 600 275 c 0
 575 275 555 295 555 320 c 0
EndSplineSet
Fore
SplineSet
53 45 m 0
 53 74 76 97 105 97 c 0
 134 97 157 74 157 45 c 0
 157 16 134 -7 105 -7 c 0
 76 -7 53 16 53 45 c 0
EndSplineSet
EndChar

StartChar: figuredash
Encoding: 8210 8210 250
Width: 210
Flags: HMW
LayerCount: 3
Back
SplineSet
50 243 m 1
 430 243 l 1
 430 197 l 1
 50 197 l 1
 50 243 l 1
EndSplineSet
Fore
SplineSet
53 45 m 0
 53 74 76 97 105 97 c 0
 134 97 157 74 157 45 c 0
 157 16 134 -7 105 -7 c 0
 76 -7 53 16 53 45 c 0
EndSplineSet
EndChar

StartChar: uni204A
Encoding: 8266 8266 251
Width: 210
Flags: HMW
LayerCount: 3
Back
SplineSet
180 -34 m 2
 322 343 l 1
 322 345 l 1
 91 345 l 2
 66 345 50 335 42 295 c 2
 38 275 l 1
 10 275 l 1
 35 426 l 1
 63 426 l 1
 63 400 l 1
 370 400 l 1
 370 360 l 1
 200 -85 l 2
 175 -150 136 -185 101 -185 c 1
 78 -120 l 1
 78 -118 l 1
 135 -112 158 -93 180 -34 c 2
EndSplineSet
Fore
SplineSet
53 45 m 0
 53 74 76 97 105 97 c 0
 134 97 157 74 157 45 c 0
 157 16 134 -7 105 -7 c 0
 76 -7 53 16 53 45 c 0
EndSplineSet
EndChar

StartChar: uniFB00
Encoding: 64256 64256 252
Width: 210
Flags: HMW
LayerCount: 3
Back
SplineSet
438 626 m 257
 478 671 532 698 575 698 c 256
 600 698 627 690 645 676 c 257
 615 617 l 257
 613 617 l 257
 590 632 559 640 537 640 c 256
 480 640 435 600 435 475 c 258
 435 400 l 257
 548 400 l 257
 543 358 l 257
 435 358 l 257
 435 31 l 257
 520 31 l 257
 520 0 l 257
 305 0 l 257
 305 31 l 257
 365 31 l 257
 365 358 l 257
 170 358 l 257
 170 31 l 257
 248 31 l 257
 248 0 l 257
 40 0 l 257
 40 31 l 257
 100 31 l 257
 100 358 l 257
 45 358 l 257
 45 379 l 257
 100 404 l 257
 100 410 l 257
 104 553 225 663 330 663 c 256
 370 663 410 647 436 626 c 257
 438 626 l 257
170 399 m 257
 350 399 l 257
 365 405 l 257
 365 435 l 258
 365 488 379 537 401 574 c 257
 375 597 339 610 300 610 c 256
 225 610 170 562 170 440 c 258
 170 399 l 257
EndSplineSet
Fore
SplineSet
53 45 m 0
 53 74 76 97 105 97 c 0
 134 97 157 74 157 45 c 0
 157 16 134 -7 105 -7 c 0
 76 -7 53 16 53 45 c 0
EndSplineSet
Layer: 2
SplineSet
616 617 m 1
 594 631 564 640 541 640 c 0
 483 640 438 600 438 475 c 2
 438 400 l 1
 553 400 l 1
 548 357 l 1
 438 357 l 1
 438 32 l 1
 523 32 l 1
 523 0 l 1
 308 0 l 1
 308 32 l 1
 368 32 l 1
 368 364 l 1
 312 364 l 1
 312 380 l 1
 368 406 l 1
 368 435 l 2
 368 595 493 698 578 698 c 0
 603 698 629 690 648 676 c 1
 618 617 l 1
 616 617 l 1
405 570 m 1
 380 595 340 611 300 611 c 0
 225 611 170 565 170 445 c 2
 170 399 l 1
 395 399 l 1
 390 359 l 1
 170 359 l 1
 170 32 l 1
 245 32 l 1
 245 0 l 1
 40 0 l 1
 40 32 l 1
 100 32 l 1
 100 357 l 1
 43 357 l 1
 43 378 l 1
 100 404 l 1
 100 410 l 2
 100 550 225 664 330 664 c 0
 372 664 410 646 438 623 c 1
 445 623 l 1
 405 570 l 1
958 590 m 1
 935 605 903 620 873 620 c 0
 800 620 750 580 750 455 c 2
 750 400 l 1
 875 400 l 1
 870 357 l 1
 750 357 l 1
 750 32 l 1
 835 32 l 1
 835 0 l 1
 620 0 l 1
 620 32 l 1
 680 32 l 1
 680 357 l 1
 623 357 l 1
 623 378 l 1
 680 404 l 1
 680 420 l 2
 680 570 805 668 910 668 c 0
 935 668 970 659 990 645 c 1
 960 590 l 1
 958 590 l 1
EndSplineSet
Substitution2: "'ital' Italics in Latin lookup 2-1" ff.ital
Substitution2: "'ss11' Style Set 11 lookup 19-1" ff.alt
LCarets2: 1 0
Ligature2: "'liga' Standard Ligatures in Latin lookup 2-1" f f
EndChar

StartChar: uniFB01
Encoding: 64257 64257 253
Width: 210
Flags: HMW
LayerCount: 3
Back
SplineSet
324 361 m 1
 324 369 l 1
 435 415 l 1
 445 415 l 1
 445 32 l 1
 517 32 l 1
 517 0 l 1
 307 0 l 1
 307 32 l 1
 375 32 l 1
 375 319 l 1
 324 361 l 1
370 588 m 0
 370 613 390 633 415 633 c 0
 440 633 460 613 460 588 c 0
 460 563 440 543 415 543 c 0
 390 543 370 563 370 588 c 0
348 617 m 1
 325 632 294 640 272 640 c 0
 215 640 170 600 170 475 c 2
 170 400 l 1
 285 400 l 1
 280 357 l 1
 170 357 l 1
 170 32 l 1
 255 32 l 1
 255 0 l 1
 40 0 l 1
 40 32 l 1
 100 32 l 1
 100 357 l 1
 43 357 l 1
 43 378 l 1
 100 404 l 1
 100 435 l 2
 100 595 225 698 310 698 c 0
 335 698 362 690 380 676 c 1
 350 617 l 1
 348 617 l 1
EndSplineSet
Fore
SplineSet
53 45 m 0
 53 74 76 97 105 97 c 0
 134 97 157 74 157 45 c 0
 157 16 134 -7 105 -7 c 0
 76 -7 53 16 53 45 c 0
EndSplineSet
Layer: 2
SplineSet
390 605 m 257
 365 625 325 642 290 642 c 256
 220 642 170 595 170 470 c 258
 170 399 l 257
 382 399 l 257
 430 415 l 257
 440 415 l 257
 440 32 l 257
 512 32 l 257
 512 0 l 257
 307 0 l 257
 307 32 l 257
 370 32 l 257
 370 330 l 257
 345 359 l 257
 170 359 l 257
 170 32 l 257
 245 32 l 257
 245 0 l 257
 40 0 l 257
 40 32 l 257
 100 32 l 257
 100 357 l 257
 43 357 l 257
 43 378 l 257
 100 404 l 257
 100 425 l 258
 100 585 215 698 335 698 c 256
 370 698 407 684 430 664 c 257
 392 605 l 257
 390 605 l 257
EndSplineSet
Substitution2: "'ital' Italics in Latin lookup 2-1" fi.ital
LCarets2: 1 0
Ligature2: "'liga' Standard Ligatures in Latin lookup 2-1" f i
EndChar

StartChar: uniFB02
Encoding: 64258 64258 254
Width: 210
Flags: HMW
LayerCount: 3
Back
SplineSet
326 665 m 1
 326 673 l 1
 437 710 l 1
 447 710 l 1
 447 32 l 1
 519 32 l 1
 519 0 l 1
 310 0 l 1
 310 32 l 1
 377 32 l 1
 377 625 l 1
 326 665 l 1
EndSplineSet
Fore
SplineSet
53 45 m 0
 53 74 76 97 105 97 c 0
 134 97 157 74 157 45 c 0
 157 16 134 -7 105 -7 c 0
 76 -7 53 16 53 45 c 0
EndSplineSet
Layer: 2
SplineSet
375 614 m 1
 357 630 325 639 295 639 c 0
 220 639 170 590 170 466 c 2
 170 400 l 1
 280 400 l 1
 275 357 l 1
 170 357 l 1
 170 32 l 1
 250 32 l 1
 250 0 l 1
 40 0 l 1
 40 32 l 1
 100 32 l 1
 100 357 l 1
 43 357 l 1
 43 378 l 1
 100 404 l 1
 100 425 l 2
 100 583 225 695 330 695 c 0
 346 695 365 692 378 688 c 1
 435 710 l 1
 445 710 l 1
 445 32 l 1
 517 32 l 1
 517 0 l 1
 308 0 l 1
 308 32 l 1
 375 32 l 1
 375 614 l 1
EndSplineSet
Substitution2: "'ital' Italics in Latin lookup 2-1" fl.ital
LCarets2: 1 0
Ligature2: "'liga' Standard Ligatures in Latin lookup 2-1" f l
EndChar

StartChar: uniFB03
Encoding: 64259 64259 255
Width: 210
Flags: HMW
LayerCount: 3
Back
SplineSet
616 617 m 1
 594 631 564 640 541 640 c 0
 483 640 438 600 438 475 c 2
 438 400 l 1
 553 400 l 1
 548 357 l 1
 438 357 l 1
 438 32 l 1
 523 32 l 1
 523 0 l 1
 308 0 l 1
 308 32 l 1
 368 32 l 1
 368 359 l 1
 170 359 l 1
 170 32 l 1
 245 32 l 1
 245 0 l 1
 40 0 l 1
 40 32 l 1
 100 32 l 1
 100 357 l 1
 43 357 l 1
 43 378 l 1
 100 404 l 1
 100 410 l 2
 100 550 224 664 330 664 c 0
 372 664 411 646 438 625 c 1
 440 625 l 1
 481 671 534 698 578 698 c 0
 603 698 629 690 648 676 c 1
 618 617 l 1
 616 617 l 1
404 572 m 1
 378 596 339 611 300 611 c 0
 225 611 170 564 170 445 c 2
 170 399 l 1
 353 399 l 1
 368 406 l 1
 368 435 l 2
 368 487 382 534 404 572 c 1
402 222 m 257
 377 245 342 260 300 260 c 256
 225 260 170 212 170 90 c 258
 170 49 l 257
 350 49 l 257
 365 55 l 257
 365 75 l 258
 365 130 380 181 402 222 c 257
655 255 m 257
 630 275 590 292 555 292 c 256
 485 292 435 245 435 120 c 258
 435 48 l 257
 643 48 l 257
 693 65 l 257
 703 65 l 257
 703 -319 l 257
 775 -319 l 257
 775 -350 l 257
 570 -350 l 257
 570 -319 l 257
 633 -319 l 257
 633 -20 l 257
 608 10 l 257
 435 10 l 257
 435 -319 l 257
 510 -319 l 257
 510 -350 l 257
 305 -350 l 257
 305 -319 l 257
 365 -319 l 257
 365 8 l 257
 170 8 l 257
 170 -319 l 257
 248 -319 l 257
 248 -350 l 257
 40 -350 l 257
 40 -319 l 257
 100 -319 l 257
 100 8 l 257
 45 8 l 257
 45 29 l 257
 100 54 l 257
 105 204 225 313 330 313 c 256
 374 313 414 295 439 274 c 257
 440 274 l 257
 482 323 542 348 600 348 c 256
 635 348 672 334 695 314 c 257
 657 255 l 257
 655 255 l 257
EndSplineSet
Fore
SplineSet
53 45 m 0
 53 74 76 97 105 97 c 0
 134 97 157 74 157 45 c 0
 157 16 134 -7 105 -7 c 0
 76 -7 53 16 53 45 c 0
EndSplineSet
Layer: 2
SplineSet
663 608 m 257
 637 628 602 642 563 642 c 256
 485 642 438 590 438 470 c 258
 438 399 l 257
 650 399 l 257
 698 415 l 257
 708 415 l 257
 708 32 l 257
 780 32 l 257
 780 0 l 257
 575 0 l 257
 575 32 l 257
 638 32 l 257
 638 330 l 257
 613 359 l 257
 438 359 l 257
 438 32 l 257
 513 32 l 257
 513 0 l 257
 308 0 l 257
 308 32 l 257
 368 32 l 257
 368 364 l 257
 312 364 l 257
 312 380 l 257
 368 406 l 257
 368 425 l 258
 368 585 486 698 605 698 c 256
 641 698 676 686 703 667 c 257
 665 608 l 257
 663 608 l 257
406 570 m 1
 380 595 340 611 300 611 c 0
 225 611 170 565 170 445 c 2
 170 399 l 1
 395 399 l 1
 390 359 l 1
 170 359 l 1
 170 32 l 1
 245 32 l 1
 245 0 l 1
 40 0 l 1
 40 32 l 1
 100 32 l 1
 100 357 l 1
 43 357 l 1
 43 378 l 1
 100 404 l 1
 100 410 l 2
 100 550 225 664 330 664 c 0
 371 664 410 647 441 622 c 1
 443 622 l 1
 406 570 l 1
EndSplineSet
Substitution2: "'ital' Italics in Latin lookup 2-1" ffi.ital
LCarets2: 2 0 0
Ligature2: "'liga' Standard Ligatures in Latin lookup 2-1" f f i
EndChar

StartChar: uniFB04
Encoding: 64260 64260 256
Width: 210
Flags: HMW
LayerCount: 3
Back
SplineSet
406 570 m 1
 380 595 340 611 300 611 c 0
 225 611 170 565 170 445 c 2
 170 399 l 1
 395 399 l 1
 390 359 l 1
 170 359 l 1
 170 32 l 1
 245 32 l 1
 245 0 l 1
 40 0 l 1
 40 32 l 1
 100 32 l 1
 100 357 l 1
 43 357 l 1
 43 378 l 1
 100 404 l 1
 100 410 l 2
 100 550 225 664 330 664 c 0
 371 664 410 647 441 622 c 1
 443 622 l 1
 406 570 l 1
663 608 m 257
 637 628 602 642 563 642 c 256
 485 642 438 590 438 470 c 258
 438 399 l 257
 650 399 l 257
 698 415 l 257
 708 415 l 257
 708 32 l 257
 780 32 l 257
 780 0 l 257
 575 0 l 257
 575 32 l 257
 638 32 l 257
 638 330 l 257
 613 359 l 257
 438 359 l 257
 438 32 l 257
 513 32 l 257
 513 0 l 257
 308 0 l 257
 308 32 l 257
 368 32 l 257
 368 364 l 257
 312 364 l 257
 312 380 l 257
 368 406 l 257
 368 425 l 258
 368 585 486 698 605 698 c 256
 641 698 676 686 703 667 c 257
 665 608 l 257
 663 608 l 257
EndSplineSet
Fore
SplineSet
53 45 m 0
 53 74 76 97 105 97 c 0
 134 97 157 74 157 45 c 0
 157 16 134 -7 105 -7 c 0
 76 -7 53 16 53 45 c 0
EndSplineSet
Layer: 2
SplineSet
645 613 m 1
 626 630 593 639 563 639 c 0
 488 639 438 590 438 466 c 2
 438 400 l 1
 548 400 l 1
 543 357 l 1
 438 357 l 1
 438 32 l 1
 518 32 l 1
 518 0 l 1
 308 0 l 1
 308 32 l 1
 368 32 l 1
 368 364 l 1
 312 364 l 1
 312 380 l 1
 368 406 l 1
 368 425 l 2
 368 583 493 695 598 695 c 0
 614 695 633 692 646 687 c 1
 705 710 l 1
 715 710 l 1
 715 32 l 1
 787 32 l 1
 787 0 l 1
 578 0 l 1
 578 32 l 1
 645 32 l 1
 645 613 l 1
408 570 m 1
 380 596 340 611 300 611 c 0
 225 611 170 565 170 445 c 2
 170 399 l 1
 395 399 l 1
 390 359 l 1
 170 359 l 1
 170 32 l 1
 245 32 l 1
 245 0 l 1
 40 0 l 1
 40 32 l 1
 100 32 l 1
 100 357 l 1
 43 357 l 1
 43 378 l 1
 100 404 l 1
 100 410 l 2
 100 550 225 664 330 664 c 0
 371 664 412 648 444 622 c 1
 446 622 l 1
 408 570 l 1
EndSplineSet
Substitution2: "'ital' Italics in Latin lookup 2-1" ffl.ital
LCarets2: 2 0 0
Ligature2: "'liga' Standard Ligatures in Latin lookup 2-1" f f l
EndChar

StartChar: uniFB05
Encoding: 64261 64261 257
Width: 210
Flags: HMW
LayerCount: 3
Back
SplineSet
170 31 m 257
 246 31 l 257
 246 0 l 257
 40 0 l 257
 40 31 l 257
 100 31 l 257
 100 358 l 257
 45 358 l 257
 45 379 l 257
 100 404 l 257
 100 435 l 258
 100 595 225 698 310 698 c 256
 385 698 445 650 445 560 c 256
 445 505 420 475 420 450 c 258
 420 400 l 257
 552 400 l 257
 552 358 l 257
 420 358 l 257
 420 105 l 258
 420 64 442 42 474 42 c 256
 502 42 523 53 542 75 c 257
 557 60 l 257
 533 20 489 -14 439 -14 c 256
 383 -14 350 20 350 80 c 258
 350 358 l 257
 294 358 l 257
 294 378 l 257
 355 428 l 258
 380 448 395 470 395 520 c 256
 395 600 350 646 285 646 c 256
 215 646 170 595 170 475 c 258
 170 31 l 257
EndSplineSet
Fore
SplineSet
53 45 m 0
 53 74 76 97 105 97 c 0
 134 97 157 74 157 45 c 0
 157 16 134 -7 105 -7 c 0
 76 -7 53 16 53 45 c 0
EndSplineSet
Layer: 2
SplineSet
395 520 m 3
 395 600 350 646 285 646 c 0
 220 646 170 600 170 475 c 2
 170 32 l 1
 248 32 l 1
 248 0 l 1
 40 0 l 1
 40 32 l 1
 100 32 l 1
 100 357 l 1
 43 357 l 1
 43 378 l 1
 100 404 l 1
 100 435 l 2
 100 595 225 698 310 698 c 0
 385 698 445 650 445 560 c 3
 445 505 420 475 420 450 c 2
 420 400 l 1
 553 400 l 1
 553 357 l 1
 420 357 l 1
 420 105 l 2
 420 64 442 42 474 42 c 0
 502 42 523 53 542 75 c 1
 558 60 l 1
 533 19 489 -14 439 -14 c 0
 383 -14 350 20 350 80 c 2
 350 357 l 1
 294 357 l 1
 294 377 l 1
 360 431 l 10
 387 454 395 480 395 520 c 3
EndSplineSet
LCarets2: 1 0
Ligature2: "'dlig' Discretionary Ligatures lookup 12-1" longs t
EndChar

StartChar: uniFB06
Encoding: 64262 64262 258
Width: 210
Flags: HMW
LayerCount: 3
Back
SplineSet
422 80 m 2
 422 357 l 1
 366 357 l 1
 366 377 l 1
 477 470 l 1
 492 470 l 1
 492 400 l 1
 625 400 l 1
 625 357 l 1
 492 357 l 1
 492 105 l 2
 492 64 514 42 546 42 c 0
 574 42 595 53 614 75 c 1
 630 60 l 1
 605 19 561 -14 511 -14 c 0
 455 -14 422 20 422 80 c 2
164 21 m 0
 206 21 231 45 231 80 c 0
 231 110 206 138 139 182 c 0
 74 225 54 262 54 307 c 0
 54 366 109 413 179 413 c 0
 217 413 254 400 274 385 c 1
 283 290 l 1
 254 290 l 1
 250 314 l 2
 243 354 214 380 171 380 c 0
 139 380 114 361 114 332 c 0
 114 300 135 277 195 237 c 0
 266 189 296 157 296 108 c 0
 296 36 234 -13 154 -13 c 0
 119 -13 81 -3 56 14 c 1
 42 125 l 1
 71 125 l 1
 77 95 l 2
 86 49 116 21 164 21 c 0
EndSplineSet
Fore
SplineSet
53 45 m 0
 53 74 76 97 105 97 c 0
 134 97 157 74 157 45 c 0
 157 16 134 -7 105 -7 c 0
 76 -7 53 16 53 45 c 0
EndSplineSet
Layer: 2
SplineSet
492 470 m 258
 492 400 l 257
 624 400 l 257
 624 358 l 257
 492 358 l 257
 492 105 l 258
 492 64 514 42 546 42 c 256
 574 42 595 53 614 75 c 257
 629 60 l 257
 605 20 561 -14 511 -14 c 256
 455 -14 422 20 422 80 c 258
 422 358 l 257
 366 358 l 257
 366 378 l 257
 442 441 l 257
 442 449 l 258
 442 545 397 600 332 600 c 256
 277 600 234 560 234 498 c 256
 234 460 249 430 272 410 c 257
 281 290 l 257
 252 290 l 257
 249 315 l 258
 244 357 214 381 171 381 c 256
 139 381 114 362 114 332 c 256
 114 300 136 277 196 237 c 256
 267 189 296 157 296 108 c 256
 296 36 234 -13 154 -13 c 256
 119 -13 81 -3 56 14 c 257
 44 125 l 257
 73 125 l 257
 78 95 l 258
 86 45 116 20 164 20 c 256
 206 20 231 45 231 80 c 256
 231 110 206 138 139 182 c 256
 74 225 54 262 54 307 c 256
 54 367 109 413 179 413 c 256
 194 413 209 411 219 407 c 257
 220 410 l 257
 206 430 195 460 195 495 c 256
 195 575 262 640 347 640 c 256
 437 640 492 565 492 470 c 258
EndSplineSet
LCarets2: 1 0
Ligature2: "'dlig' Discretionary Ligatures lookup 12-1" s t
EndChar

StartChar: dotlessi
Encoding: 305 305 259
Width: 210
Flags: HMW
LayerCount: 3
Back
SplineSet
49 361 m 1
 49 369 l 1
 160 415 l 1
 170 415 l 1
 170 32 l 1
 242 32 l 1
 242 0 l 1
 32 0 l 1
 32 32 l 1
 100 32 l 1
 100 319 l 1
 49 361 l 1
EndSplineSet
Fore
SplineSet
53 45 m 0
 53 74 76 97 105 97 c 0
 134 97 157 74 157 45 c 0
 157 16 134 -7 105 -7 c 0
 76 -7 53 16 53 45 c 0
EndSplineSet
EndChar

StartChar: Ecaron
Encoding: 282 282 260
Width: 520
Flags: HMW
LayerCount: 3
Back
Refer: 404 -1 N 1 0 0 1 158 0 2
Refer: 46 69 N 1 0 0 1 0 0 3
Fore
SplineSet
53 45 m 0
 53 74 76 97 105 97 c 0
 134 97 157 74 157 45 c 0
 157 16 134 -7 105 -7 c 0
 76 -7 53 16 53 45 c 0
EndSplineSet
EndChar

